<?xml version="1.0" encoding="UTF-8"?>
<svg id="_レイヤー_1" data-name="レイヤー_1" xmlns="http://www.w3.org/2000/svg" xmlns:xlink="http://www.w3.org/1999/xlink" version="1.1" viewBox="0 0 417.8 431.7">
  <!-- Generator: Adobe Illustrator 30.1.0, SVG Export Plug-In . SVG Version: 2.1.1 Build 136)  -->
  <defs>
    <style>
      .st0 {
        fill: none;
      }

      .st1 {
        font-family: Arial-BoldMT, Arial;
        font-size: 50.7px;
        font-weight: 700;
      }

      .st1, .st2 {
        isolation: isolate;
      }

      .st1, .st3 {
        fill: #fff;
      }

      .st4 {
        mix-blend-mode: overlay;
        opacity: .4;
      }

      .st5 {
        clip-path: url(#clippath);
      }
    </style>
    <clipPath id="clippath">
      <rect class="st0" x="4.3" y="49" width="413.5" height="342.8"/>
    </clipPath>
  </defs>
  <g class="st2">
    <g id="b">
      <g id="c">
        <path class="st3" d="M290.1,238.1c-.2,2.7-1.8,5.8-5.8,6.7l-.3-.5c2.8-1.2,3.8-3.5,3.9-6.2h-5.4v-.7h12v.7h-4.4ZM284.4,233.9h7.8v.7h-7.8v-.7ZM292.7,235.2c-.3-.9-.7-1.7-1.1-2.3l.3-.2c.7.4,1.4.9,1.9,1.5l-1.1,1h0ZM294.1,234.4c-.4-.8-.8-1.5-1.3-2l.3-.3c.6.3,1.3.7,1.9,1.2l-.9,1.1Z"/>
        <path class="st3" d="M298.7,239.4l-.2-1.6c1.9.1,4.8.1,7.6.1h3.8v1.5h-11.2Z"/>
        <path class="st3" d="M324.7,236.2c-1.2,4.7-4.9,7.7-10.6,8.5l-.3-.5c2.4-.5,4.4-1.6,5.8-3-.8-1-1.7-1.8-2.5-2.4l.3-.5c1.1.4,2.2,1,3.3,1.7.9-1.2,1.5-2.5,1.8-3.9h-3.8c-1.1,1.4-2.6,2.6-4.4,3.4l-.4-.4c2.1-1.4,3.5-3.8,4.1-6.2l2.2.6c-.3.7-.6,1.3-1.1,1.9h5.5v.9l.1-.1Z"/>
        <path class="st3" d="M337.5,237.4v.5c0,2.8-.7,6-5.7,7.1l-.3-.5c3.2-1.3,4-3.3,4-6.6v-.5h-3.1v3.7h-2v-3.7h-2.8v-.6h2.8v-3.4h2v3.4h3.1v-3.4h2v3.4h2.7v.6h-2.7Z"/>
        <path class="st3" d="M347.9,244.7v-6.7c-1.5.7-3.1,1.3-4.7,1.8l-.2-.5c3.5-1.2,6.9-4,8.5-6.4l2,1.3c-1.3,1.4-3,2.6-4.8,3.5h1.4v7h-2.2Z"/>
        <polygon class="st3" points="357 243.1 357 242.4 362.3 242.4 362.3 236 358.7 236 358.7 235.3 368 235.3 368 236 364.4 236 364.4 242.4 369.8 242.4 369.8 243.1 357 243.1"/>
        <path class="st3" d="M376.4,238.2c-.9-1.5-1.9-2.8-3-3.5l.4-.5c1.4.4,2.9,1.1,4.3,2l-1.7,2h0ZM384.3,236.9c-1.3,3.7-4.5,7-10.3,7.6l-.5-2.1c5.5-.3,8.6-2.5,10.2-5.8l.6.3h0Z"/>
        <path class="st3" d="M397.6,244.6c-1-1.4-2.2-2.9-3.8-4.1-1.7,1.8-3.6,3.1-6.4,4.1l-.3-.5c4.1-2,6.3-5.1,7.3-9.1h-5.2v-.6h7.5v.6c-.6,2-1.3,3.5-2.5,5,1.8.8,3.3,1.6,4.8,2.6l-1.5,2h.1Z"/>
        <path class="st3" d="M411.9,244.4c-.8.1-2,.2-3.2.2h-2.5c-2.5-.2-3.7-1.3-3.7-2.6s.5-1.6,1.4-2.3c.5-.4,1.2-.8,2-1.2-.3-1.4-.6-3.4-.8-5.2l2.1-.2c0,1.6.3,3.4.6,4.6,1.2-.5,2.5-.9,3.8-1.2l.2.8c-3.1.7-6.1,1.8-7.1,2.7-.6.5-.9,1-.9,1.4,0,.7.8,1.3,2.5,1.5h1.7c1.4,0,3-.1,4-.3v2l-.1-.2Z"/>
        <path class="st3" d="M282.2,262.1v-.7h5.8v-3.9h-3.4v-.7h3.4v-3.2h-2.7c-.7,1.2-1.6,2.3-2.7,3.4l-.3-.4c1.2-2,1.8-4.1,2.1-6.6l2.3.5c-.3.8-.6,1.6-.9,2.3h2.3v-3.5h1.9v3.5h4.4v.7h-4.4v3.2h3.5v.7h-3.5v3.9h5.1v.7h-12.8l-.1.1Z"/>
        <path class="st3" d="M310.2,254.9c-1.9-.7-3.7-1.9-5.3-3.7-1.8,1.8-4,3-6.6,3.7l-.2-.4c2.6-1.3,4.3-3,5.5-5l2.4.6c-.2.3-.4.5-.6.8,1.8,1.1,3.8,1.7,5.9,1.9l-.9,2.2-.2-.1ZM300.9,260.7v.8h-1.6v-5.9h4.5v5.2h-2.9v-.1ZM302.3,256.1h-1.3v4.1h1.3v-4.1ZM301.3,253.9h6.4v.5h-6.4v-.5ZM304.8,262.8v-7.2h5v3.8c0,1.2-.3,1.8-1.2,1.8s-1.1-.1-1.9-.4v-.5c.4.1.7.2.9.2.4,0,.5-.3.5-1.1v-3.1h-1.6v6.6h-1.7v-.1Z"/>
        <path class="st3" d="M316.7,261.9v.9h-1.8v-12.5h11.5v.5h-9.7v10.5h10.3v.5h-10.3v.1ZM324.8,261c-.8-1.5-1.6-2.6-2.4-3.4-.6,1.3-2.2,2.6-4.7,3.5l-.2-.5c2-1.1,3.1-2.5,3.4-4.2h-3.5v-.5h3.5v-2.4h-.9c-.6.8-1.3,1.5-2.2,2.2l-.3-.4c.8-1.2,1.3-2.9,1.5-4.2l2.1.5c-.2.4-.5,1-.7,1.4h4.8v.5h-2.4v2.4h3.5v.5h-3.6c0,.3-.1.5-.2.7,1.3.5,2.4,1.1,3.6,1.9l-1.4,1.9.1.1Z"/>
        <path class="st3" d="M332.3,262.8v-5.6c-.7,1.2-1.1,1.7-1.9,2.7l-.3-.3c1-1.6,1.4-3.2,1.8-5.1h-1.6v-.5h2v-2.2c-.7.1-1.1.1-1.8.2v-.4c1.5-.6,2.9-1.3,3.9-2.1l1.5,1.5c-.6.2-1.3.3-2,.4v2.4h2.2v.5h-2.2v.6c.8.6,1.8,1.3,2.5,2l-1.4,1.3c-.2-1.1-.8-1.9-1.1-2.6v7.1h-1.7l.1.1ZM339.8,262.8v-4.3c-1.1.3-2.7.6-4.3.9v-.6c1.5-.3,3.2-.7,4.3-.9v-7.8h1.8v7.3c.9-.2,1.6-.5,1.6-.5v.6s-.9.3-1.6.5v4.8h-1.8ZM337.8,253.9c-.5-1.4-1.5-2.6-1.5-2.6l.3-.3s1.4.5,2.6,1.6l-1.5,1.3h.1ZM337.9,257.2c-.5-1.7-1.4-2.9-1.4-2.9l.3-.3s1.5.7,2.5,1.9l-1.5,1.3h.1Z"/>
        <path class="st3" d="M354,258.9v1.8c0,1.1-.3,2.1-1.7,2.1s-1.5-.2-2.7-.6v-.5c.8.2,1.3.3,1.7.3.8,0,.8-.5.8-1.2v-1.8h-6.1v-.5h6.1v-1.2c.6-.4,1-1.1,1.3-1.6h-4.5v-.5h7v.5c-.6.6-1.3,1-1.9,1.3v1.5h5.1v.5h-5.1v-.1ZM356.4,255.8c.3-.6.5-1.4.5-2.3h-8.6v2.3h-1.8v-2.9h12.4v.8c-.4.9-1.3,1.7-2.2,2.3l-.4-.3.1.1ZM349.1,253s-.5-1.4-1.5-2.8l.3-.3c1.5.6,2.9,1.8,2.9,1.8l-1.7,1.3h0ZM351.9,252.8s0-1.5-.6-3.1l.4-.3c1.4,1.1,2.2,2.3,2.2,2.3l-2,1.1ZM354.8,252.6s.6-1,1-3l2.2.9c-1.6,1.8-2.8,2.4-2.8,2.4l-.4-.3h0Z"/>
        <path class="st3" d="M364.7,261.1v1.1h-1.5v-5.3c-.2.4-.5.8-.8,1.1l-.3-.2c1-2.1,1.4-4.2,1.6-6.7h-1.3v-.5h5.3v.5h-2.2c-.2,1.2-.5,2.3-.8,3.3h2.6v6.7h-2.6ZM365.7,254.9h-1v5.7h1v-5.7ZM372.1,262.8v-7.1h-1.3c-.1,2.6-.6,5-3.2,7l-.3-.4c1.4-2.1,1.7-4.5,1.7-6.7h-1.5v-.5h1.5v-4.4h-1.1v-.5h6.9v.5h-1v4.4h1.4v.5h-1.4v7.1h-1.7v.1ZM372.1,250.8h-1.2v4.4h1.2v-4.4Z"/>
        <path class="st3" d="M388.1,262.5c-1,0-1.5-.6-1.5-1.7v-3.4h-2c-.6,3.5-2.6,4.6-6.1,5.4v-.5c2.4-1,3.8-2.3,4.3-4.9h-3.1v-.5h3.2c0-.5.1-1.1.1-1.7h1.9v1.7h3.8v3.7c0,.4.1.4.5.4h.6c.7,0,1-.4,1.3-2.2l.5.2c-.2,3-.5,3.5-1.7,3.5h-1.8ZM388.4,253.3c.3-.5.5-1.2.6-1.8h-8.6v2h-1.8v-2.5h5.1v-1.5h2v1.5h5.4v.9c-.5.7-1.5,1.4-2.2,1.8l-.4-.3-.1-.1ZM378.6,255.5c2-.6,3.3-1.7,3.6-3.7l1.9.5c-.8,2.4-2.5,3.4-5.3,3.7l-.2-.5ZM386.5,255.8c-1,0-1.4-.4-1.4-1.3v-2.6h1.7v2.2c0,.3,0,.4.4.4h1.8c.5,0,.7-.1.9-1.2l.5.2c-.2,2-.6,2.4-1.4,2.4h-2.4l-.1-.1Z"/>
        <path class="st3" d="M399.9,261.2c3-.5,4.3-2,4.4-4.4v-.4c0-2.6-1.5-4-3.3-4-.3,4.1-1.4,6.8-3.6,8.1-.4.3-.8.4-1.1.4-.9,0-1.7-.9-1.7-2.7s0-.5,0-.8c.3-2.8,2.9-5.5,6.4-5.5s5.5,1.8,5.5,4.6,0,.2,0,.3c-.2,2.9-2.5,4.6-6.4,4.7l-.2-.4v.1ZM396.5,257.1v.8c0,.8.2,1.2.6,1.2s.4-.1.6-.3c1.3-.9,2.3-3.1,2.7-6.4-2.3.3-3.7,2.6-3.9,4.6"/>
        <path class="st3" d="M282.6,279c4.3-1.4,6.8-4.3,7.4-8.6h-8v-.8h10.2v.9c-.7,5-3.8,8-9.4,9l-.2-.5Z"/>
        <path class="st3" d="M304,278.8v-1h-5.7v1h-2v-8.8h9.6v8.8h-1.9ZM304,270.6h-5.7v6.6h5.7v-6.6Z"/>
        <path class="st3" d="M313.4,273.2c-.9-1.5-1.9-2.8-3-3.5l.4-.5c1.4.4,2.9,1.1,4.3,2l-1.7,2h0ZM321.3,271.9c-1.3,3.7-4.5,7-10.3,7.6l-.5-2.1c5.5-.3,8.6-2.5,10.2-5.8l.6.3h0Z"/>
        <path class="st3" d="M332.2,273.1c-.2,2.7-1.8,5.8-5.8,6.7l-.3-.5c2.8-1.2,3.8-3.5,3.9-6.2h-5.4v-.7h12v.7h-4.4ZM326.4,268.9h8.3v.7h-8.3v-.7Z"/>
        <path class="st3" d="M343.1,279.5v-5c-1.1.5-2.3,1-3.6,1.3v-.4c2.4-.9,5.1-3,6.2-4.8l1.5,1c-1,1-2.2,1.9-3.6,2.6h1v5.3h-1.6.1Z"/>
        <path class="st3" d="M357.2,274c1.4-.9,2.3-2.4,2.6-4.2h-8.7v-.6h11.2v.8c-.9,2.2-2.5,3.6-4.8,4.5l-.3-.5h0ZM351.3,279.2c2.9-1.8,3.9-4.1,3.9-7.8h2.3c0,4-2.1,7-5.9,8.2l-.3-.4h0Z"/>
        <g class="st4">
          <g class="st5">
            <path class="st3" d="M320.2,73.5c-.8-.8-2.8-1.5-5.8-2.1-5-1.1-8.6-2.6-10.7-4.5s-3.2-4.2-3.2-7.1.6-3.7,1.6-5.4c1.1-1.7,2.8-3,5-4s5.2-1.4,9.1-1.4,8.3.9,10.8,2.6c2.5,1.8,3.9,4.5,4.4,8.4l-10.7.6c-.3-1.7-.9-2.9-1.8-3.6-.9-.8-2.2-1.1-3.8-1.1s-2.3.3-3,.8c-.7.6-1,1.2-1,2s.3,1.1.8,1.6,1.8.9,3.8,1.4c5,1.1,8.5,2.2,10.7,3.3,2.2,1.1,3.7,2.5,4.7,4.1s1.5,3.4,1.5,5.5-.7,4.5-2,6.5-3.1,3.5-5.5,4.5c-2.3,1-5.3,1.5-8.9,1.5-6.3,0-10.6-1.2-13-3.6s-3.8-5.5-4.1-9.2l10.8-.7c.2,1.8.7,3.1,1.4,4,1.2,1.5,2.8,2.2,5,2.2s2.9-.4,3.8-1.1,1.3-1.6,1.3-2.7-.4-1.8-1.3-2.6M339.9,171.3v36.5h-10.6l-13.7-20v20h-10.6v-36.5h10.5l13.7,20.2v-20.2h10.7ZM276.2,292.4v7.9h-19.2v5.9h17.8v7.5h-17.8v7.3h19.7v8.4h-31.2v-37h30.7ZM248.7,171.3h11.3v36.5h-11.3v-36.5ZM268.1,207.8v-36.5h30.2v7.8h-18.9v5.8h17.6v7.4h-17.6v7.2h19.5v8.3h-30.8ZM261.1,49.6h19c3.5,0,6.2.3,8.1.9s3.4,1.7,4.5,3.4c1.1,1.6,1.7,3.6,1.7,6s-.4,3.8-1.3,5.3-2.1,2.7-3.6,3.6c-1,.6-2.3,1.1-4,1.5,1.4.5,2.3.9,3,1.4.4.3,1,.9,1.8,1.9s1.3,1.8,1.6,2.3l5.5,10.7h-12.9l-6.1-11.3c-.8-1.5-1.5-2.4-2.1-2.8-.8-.6-1.8-.9-2.8-.9h-1v15h-11.4v-37ZM223.7,49.6h30.5v7.9h-19.1v5.9h17.7v7.5h-17.7v7.3h19.7v8.3h-31.1v-36.9ZM234.4,207c-2.1.9-4.8,1.4-8.1,1.4s-7.2-.6-9.7-1.7c-2.5-1.2-4.7-3.2-6.5-6.1-1.8-2.9-2.7-6.6-2.7-11.1s1.6-10.7,4.8-13.9,7.8-4.9,13.6-4.9,8.2.9,10.8,2.8,4.6,4.7,5.9,8.6l-10,2.2c-.3-1.1-.7-1.9-1.1-2.4-.6-.9-1.4-1.5-2.3-2-.9-.5-1.9-.7-3.1-.7-2.6,0-4.5,1-5.9,3.1-1,1.5-1.5,3.9-1.5,7.2s.6,6.8,1.8,8.3,3,2.2,5.2,2.2,3.8-.6,4.9-1.8c1.1-1.2,1.9-3,2.4-5.3l9.9,3c-.7,2.8-1.7,5.1-3.1,6.9-1.4,1.9-3.2,3.3-5.3,4.2M237.4,329.4h-11.5v-37h11.5v37ZM204.2,49.6h11.4v36.8h-11.4s0-36.8,0-36.8ZM201.8,181.6l-10.6.6c-.3-1.6-.9-2.8-1.8-3.6-.9-.7-2.2-1.1-3.7-1.1s-2.3.3-3,.8c-.7.6-1,1.2-1,2s.3,1.1.8,1.6,1.8.9,3.8,1.3c4.9,1.1,8.5,2.1,10.6,3.2,2.1,1.1,3.7,2.4,4.7,4s1.5,3.4,1.5,5.4-.6,4.5-1.9,6.5c-1.3,2-3.1,3.5-5.4,4.5-2.3,1-5.3,1.5-8.8,1.5-6.2,0-10.5-1.2-12.9-3.6-2.4-2.4-3.7-5.4-4.1-9.1l10.7-.7c.2,1.7.7,3.1,1.4,4,1.2,1.5,2.8,2.2,5,2.2s2.9-.4,3.7-1.1c.9-.8,1.3-1.6,1.3-2.6s-.4-1.8-1.2-2.5-2.8-1.5-5.8-2.1c-4.9-1.1-8.5-2.6-10.6-4.4-2.1-1.8-3.2-4.2-3.2-7s.5-3.6,1.6-5.3,2.7-3,4.9-3.9c2.2-1,5.2-1.4,9-1.4s8.2.9,10.7,2.6c2.4,1.7,3.9,4.5,4.4,8.3M97.2,292.4h30.6v7.9h-19.2v5.9h17.8v7.5h-17.8v7.3h19.7v8.4h-31.2v-37h.1ZM91.9,269.6v-37.1h17.1c3.4,0,6.1.5,8.2,1.4s3.8,2.2,5.1,3.9c1.4,1.7,2.3,3.7,2.9,6s.9,4.7.9,7.2c0,4-.5,7-1.4,9.2s-2.2,4-3.8,5.5c-1.6,1.5-3.3,2.5-5.2,3-2.5.7-4.8,1-6.8,1h-17.1l.1-.1ZM125.2,201.8l-1.8,6h-11.6l13.8-36.6h12.4l13.8,36.6h-11.9l-1.8-6h-12.9ZM167.2,316.4c-.8-.8-2.8-1.5-5.9-2.1-5-1.1-8.6-2.6-10.7-4.5-2.2-1.9-3.2-4.2-3.2-7.1s.6-3.7,1.7-5.4c1.1-1.7,2.8-3,5-4s5.2-1.4,9.1-1.4,8.3.9,10.8,2.6c2.5,1.8,4,4.6,4.4,8.4l-10.8.6c-.3-1.7-.9-2.9-1.8-3.6-.9-.8-2.2-1.1-3.8-1.1s-2.3.3-3,.8c-.7.6-1,1.2-1,2.1s.3,1.1.8,1.6,1.8.9,3.8,1.4c5,1.1,8.6,2.2,10.7,3.3,2.2,1.1,3.7,2.5,4.7,4.1s1.5,3.5,1.5,5.5-.7,4.6-2,6.6-3.1,3.5-5.5,4.5-5.3,1.6-8.9,1.6c-6.3,0-10.6-1.2-13.1-3.6-2.4-2.4-3.8-5.5-4.1-9.2l10.9-.7c.2,1.8.7,3.1,1.4,4,1.2,1.5,2.9,2.2,5,2.2s2.9-.4,3.8-1.1c.9-.8,1.3-1.7,1.3-2.7s-.4-1.8-1.3-2.6M163.9,49.6h34.6v9.1h-11.6v27.7h-11.4v-27.7h-11.6v-9.1ZM123.7,49.6h10.6l13.9,20.4v-20.4h10.7v36.8h-10.7l-13.8-20.2v20.2h-10.7s0-36.8,0-36.8ZM84.3,54c3.4-3.3,8-5,14-5s10.9,1.6,14.2,4.9,5,7.9,5,13.8-.7,7.8-2.2,10.6c-1.5,2.8-3.5,4.9-6.3,6.4-2.7,1.5-6.2,2.3-10.2,2.3s-7.6-.7-10.3-2c-2.7-1.3-4.9-3.4-6.6-6.3s-2.5-6.5-2.5-10.8,1.7-10.7,5-14M79.5,171.2h34.4v9h-11.5v27.6h-11.3v-27.6h-11.5v-9h-.1ZM88.6,306.8v7.5h-14.3v15.1h-11.5v-37h28.3v7.9h-16.8v6.5h14.3ZM48.5,269.6v-37.1h10.7l14,20.6v-20.6h10.8v37.1h-10.8l-13.9-20.4v20.4s-10.8,0-10.8,0ZM54.5,329.4h-11.5v-37h11.5v37ZM42.1,207.8l13.8-36.6h12.3l13.8,36.6h-11.9l-1.8-6h-12.9l-1.8,6h-11.6.1ZM79.7,115.2h-17.1v6.6h14.6v7.6h-14.6v15.3h-11.7v-37.6h28.7v8.1h.1ZM41.7,49.6h19c3.5,0,6.2.3,8.1.9s3.4,1.7,4.5,3.4c1.1,1.6,1.7,3.6,1.7,6s-.4,3.8-1.3,5.3-2.1,2.7-3.6,3.6c-1,.6-2.3,1.1-4,1.5,1.4.5,2.3.9,3,1.4.4.3,1,.9,1.8,1.9s1.3,1.8,1.6,2.3l5.5,10.7h-12.9l-6.1-11.3c-.8-1.5-1.5-2.4-2.1-2.8-.8-.6-1.8-.9-2.8-.9h-1v15h-11.4v-37ZM7.2,49.6h28.2v7.9h-16.7v6.4h14.3v7.4h-14.3v15.1H7.2v-36.8ZM10.9,111.6c3.4-3.4,8.2-5.1,14.3-5.1s11.1,1.7,14.5,5c3.4,3.4,5.1,8.1,5.1,14.1s-.7,8-2.2,10.8-3.6,5-6.4,6.6c-2.8,1.6-6.3,2.3-10.4,2.3s-7.7-.7-10.5-2c-2.8-1.3-5-3.5-6.8-6.4-1.7-2.9-2.6-6.6-2.6-11s1.7-10.9,5.1-14.3M42,189.4c0,3.9-.4,6.9-1.3,9.1-.9,2.2-2.1,4-3.7,5.4-1.6,1.5-3.3,2.4-5.1,2.9-2.5.7-4.7,1-6.7,1H8.3v-36.6h16.8c3.3,0,6,.5,8,1.3,2,.9,3.7,2.2,5.1,3.9,1.3,1.7,2.3,3.6,2.9,5.9.6,2.2.9,4.6.9,7.1M18.3,232.4h12.5l14,37.1h-12l-1.9-6.1h-13l-1.8,6.1H4.3l14-37.1ZM8.1,292.4h11.4v27.9h17.8v9.1H8.1v-37ZM31.2,391.2l-6-11.1c-.8-1.4-1.4-2.4-2-2.8-.8-.6-1.7-.8-2.8-.8h-1v14.8h-11.3v-36.4h18.8c3.5,0,6.1.3,8,.9,1.8.6,3.3,1.7,4.5,3.3,1.1,1.6,1.7,3.6,1.7,5.9s-.4,3.8-1.3,5.2c-.9,1.5-2,2.7-3.6,3.6-1,.6-2.3,1.1-4,1.4,1.3.4,2.3.9,2.9,1.3.4.3,1,.9,1.8,1.9s1.3,1.7,1.6,2.3l5.5,10.6h-12.7l-.1-.1ZM78.2,391.2h-30.7v-36.4h30.2v7.8h-18.9v5.8h17.5v7.4h-17.5v7.2h19.4v8.2ZM113.5,385.8c-1.3,2-3.1,3.5-5.4,4.5s-5.2,1.5-8.8,1.5c-6.2,0-10.5-1.2-12.9-3.6s-3.7-5.4-4.1-9.1l10.7-.7c.2,1.7.7,3.1,1.4,4,1.2,1.5,2.8,2.2,5,2.2s2.8-.4,3.7-1.1c.9-.8,1.3-1.6,1.3-2.6s-.4-1.8-1.2-2.5c-.8-.7-2.8-1.4-5.8-2.1-4.9-1.1-8.5-2.6-10.6-4.4s-3.2-4.2-3.2-7,.5-3.6,1.6-5.3c1.1-1.7,2.7-3,4.9-3.9,2.2-1,5.2-1.4,9-1.4s8.2.9,10.7,2.6,3.9,4.5,4.4,8.3l-10.6.6c-.3-1.6-.9-2.8-1.8-3.6-.9-.7-2.2-1.1-3.7-1.1s-2.3.3-3,.8c-.7.6-1,1.2-1,2s.3,1.1.8,1.6,1.8.9,3.8,1.3c4.9,1.1,8.4,2.1,10.6,3.2,2.1,1.1,3.7,2.4,4.6,4,1,1.6,1.5,3.4,1.5,5.4s-.6,4.5-1.9,6.5M151.8,391.2h-30.7v-36.4h30.2v7.8h-18.9v5.8h17.5v7.4h-17.5v7.2h19.4v8.2ZM182.1,391.2l-1.8-6h-12.8l-1.8,6h-11.5l13.7-36.4h12.3l13.7,36.4h-11.8,0ZM186.7,322.1c-1.9-2.9-2.8-6.7-2.8-11.3s1.6-10.8,4.9-14.1c3.3-3.3,7.9-4.9,13.8-4.9s8.3.9,11,2.8,4.6,4.8,5.9,8.7l-10.1,2.2c-.4-1.1-.7-2-1.1-2.5-.6-.9-1.4-1.5-2.3-2-.9-.5-2-.7-3.1-.7-2.6,0-4.6,1-6,3.1-1,1.5-1.6,4-1.6,7.3s.6,6.9,1.9,8.4c1.2,1.5,3,2.3,5.2,2.3s3.8-.6,5-1.8c1.1-1.2,1.9-3,2.4-5.3l10,3c-.7,2.8-1.7,5.2-3.2,7-1.4,1.9-3.2,3.3-5.4,4.3-2.1,1-4.9,1.4-8.2,1.4s-7.3-.6-9.9-1.8c-2.5-1.2-4.7-3.2-6.6-6.2M220.7,391.2l-6-11.1c-.8-1.4-1.4-2.4-2-2.8-.8-.6-1.7-.8-2.8-.8h-1v14.8h-11.3v-36.4h18.8c3.5,0,6.1.3,8,.9,1.8.6,3.3,1.7,4.5,3.3,1.1,1.6,1.7,3.6,1.7,5.9s-.4,3.8-1.3,5.2c-.9,1.5-2,2.7-3.6,3.6-1,.6-2.3,1.1-4,1.4,1.3.4,2.3.9,2.9,1.3.4.3,1,.9,1.8,1.9s1.3,1.7,1.6,2.3l5.5,10.6h-12.7l-.1-.1ZM267.1,386.2c-1.4,1.9-3.2,3.3-5.3,4.2-2.1.9-4.8,1.4-8.1,1.4s-7.2-.6-9.7-1.7-4.7-3.2-6.5-6.1-2.7-6.6-2.7-11.1,1.6-10.7,4.8-13.9c3.2-3.2,7.7-4.9,13.6-4.9s8.2.9,10.8,2.8,4.6,4.7,5.9,8.5l-9.9,2.2c-.3-1.1-.7-1.9-1.1-2.4-.6-.9-1.4-1.5-2.3-2s-1.9-.7-3.1-.7c-2.6,0-4.5,1-5.9,3.1-1,1.5-1.5,3.9-1.5,7.2s.6,6.8,1.8,8.3,3,2.2,5.2,2.2,3.8-.6,4.9-1.8c1.1-1.2,1.9-3,2.4-5.3l9.9,3c-.7,2.8-1.7,5.1-3.1,6.9M310.7,391.2h-11.3v-14.7h-12.3v14.7h-11.3v-36.4h11.3v12.7h12.3v-12.7h11.3v36.4ZM318.4,329.4h-10.8l-13.9-20.3v20.3h-10.8v-37h10.7l13.9,20.5v-20.5h10.8v37h.1ZM357.5,324.3c-1.4,1.9-3.2,3.3-5.4,4.3-2.1,1-4.9,1.4-8.2,1.4s-7.3-.6-9.9-1.8c-2.5-1.2-4.7-3.2-6.6-6.2-1.9-2.9-2.8-6.7-2.8-11.3s1.6-10.8,4.9-14.1c3.3-3.3,7.9-4.9,13.8-4.9s8.3.9,11,2.8,4.6,4.8,5.9,8.7l-10.1,2.2c-.4-1.1-.7-2-1.1-2.5-.6-.9-1.4-1.5-2.3-2s-2-.7-3.1-.7c-2.6,0-4.6,1-6,3.1-1,1.5-1.6,4-1.6,7.3s.6,6.9,1.9,8.4c1.2,1.5,3,2.3,5.2,2.3s3.8-.6,5-1.8c1.1-1.2,1.9-3,2.4-5.3l10,3c-.7,2.8-1.7,5.2-3.2,7M355.4,206.7c-2.5-1.2-4.7-3.2-6.5-6.1-1.8-2.9-2.7-6.6-2.7-11.1s1.6-10.7,4.8-13.9c3.2-3.2,7.8-4.9,13.6-4.9s8.2.9,10.8,2.8c2.6,1.9,4.6,4.7,5.9,8.6l-10,2.2c-.3-1.1-.7-1.9-1.1-2.4-.6-.9-1.4-1.5-2.3-2s-1.9-.7-3.1-.7c-2.6,0-4.5,1-5.9,3.1-1,1.5-1.5,3.9-1.5,7.2s.6,6.8,1.8,8.3c1.2,1.5,3,2.2,5.2,2.2s3.8-.6,4.9-1.8,1.9-3,2.4-5.3l9.9,3c-.7,2.8-1.7,5.1-3.1,6.9-1.4,1.9-3.2,3.3-5.3,4.2-2.1.9-4.8,1.4-8.1,1.4s-7.2-.6-9.7-1.7M397.3,329.4h-31.2v-37h30.6v7.9h-19.2v5.9h17.8v7.5h-17.8v7.3h19.7v8.4h.1ZM417.8,207.8h-30.8v-36.5h30.2v7.8h-18.9v5.8h17.6v7.4h-17.6v7.2h19.5v8.3h0Z"/>
          </g>
        </g>
        <g class="st2">
          <text class="st1" transform="translate(0 90.8)"><tspan x="0" y="0">F</tspan></text>
          <text class="st1" transform="translate(33.8 90.8)"><tspan x="0" y="0">R</tspan></text>
          <text class="st1" transform="translate(72.4 90.8)"><tspan x="0" y="0">ONTIERS</tspan></text>
        </g>
        <g class="st2">
          <text class="st1" transform="translate(0 151.7)"><tspan x="0" y="0">OF</tspan></text>
        </g>
        <g class="st2">
          <text class="st1" transform="translate(0 212.5)"><tspan x="0" y="0">D</tspan></text>
          <text class="st1" transform="translate(37.3 212.5)"><tspan x="0" y="0">A</tspan></text>
          <text class="st1" transform="translate(73.3 212.5)"><tspan x="0" y="0">T</tspan></text>
          <text class="st1" transform="translate(106.5 212.5)"><tspan x="0" y="0">A SCIENCE</tspan></text>
        </g>
        <g class="st2">
          <text class="st1" transform="translate(0 273.4)"><tspan x="0" y="0">AND</tspan></text>
        </g>
        <g class="st2">
          <text class="st1" transform="translate(0 334.2)"><tspan x="0" y="0">LIFE SCIENCE</tspan></text>
        </g>
        <g class="st2">
          <text class="st1" transform="translate(0 395.1)"><tspan x="0" y="0">RESEA</tspan></text>
          <text class="st1" transform="translate(188.8 395.1)"><tspan x="0" y="0">R</tspan></text>
          <text class="st1" transform="translate(227.3 395.1)"><tspan x="0" y="0">CH</tspan></text>
        </g>
      </g>
    </g>
  </g>
</svg>