<?xml version="1.0" encoding="UTF-8"?><svg xmlns="http://www.w3.org/2000/svg" xmlns:xlink="http://www.w3.org/1999/xlink" viewBox="0 0 417.8 346.7"><defs><style>.e{fill:none;}.f{isolation:isolate;}.g{fill:#fff;}.h{mix-blend-mode:overlay;opacity:.4;}.i{clip-path:url(#d);}</style><clipPath id="d"><rect class="e" x="4.2" width="413.5" height="342.8"/></clipPath></defs><g class="f"><g id="b"><g id="c"><path class="g" d="M290,189.1c-.2,2.7-1.8,5.8-5.8,6.7l-.3-.5c2.8-1.2,3.8-3.5,3.9-6.2h-5.4v-.7h12v.7h-4.4ZM284.3,185h7.8v.7h-7.8v-.7ZM292.6,186.2c-.3-.9-.7-1.7-1.1-2.3l.3-.2c.7.4,1.4.9,1.9,1.5l-1.1,1ZM294.1,185.4c-.4-.8-.8-1.5-1.3-2l.3-.3c.6.3,1.3.7,1.9,1.2l-.9,1.1Z"/><path class="g" d="M298.6,190.5l-.2-1.6c1.9.1,4.8.1,7.6.1h3.8v1.5h-11.1Z"/><path class="g" d="M324.6,187.2c-1.2,4.7-4.9,7.7-10.6,8.5l-.3-.5c2.4-.5,4.4-1.6,5.8-3-.8-1-1.7-1.8-2.5-2.4l.3-.5c1.1.4,2.2,1,3.3,1.7.9-1.2,1.5-2.5,1.8-3.9h-3.8c-1.1,1.4-2.6,2.6-4.4,3.4l-.4-.4c2.1-1.4,3.5-3.8,4.1-6.2l2.2.6c-.3.7-.6,1.3-1.1,1.9h5.5v.9Z"/><path class="g" d="M337.5,188.4v.5c0,2.8-.7,6-5.7,7.1l-.3-.5c3.2-1.3,4-3.3,4-6.6v-.5h-3.1v3.7h-2v-3.7h-2.8v-.6h2.8v-3.4h2v3.4h3.1v-3.4h2v3.4h2.7v.6h-2.7Z"/><path class="g" d="M347.8,195.7v-6.7c-1.5.7-3.1,1.3-4.7,1.8l-.2-.5c3.5-1.2,6.9-4,8.5-6.4l2,1.3c-1.3,1.4-3,2.6-4.8,3.5h1.4v7h-2.1Z"/><polygon class="g" points="356.9 194.1 356.9 193.5 362.2 193.5 362.2 187 358.7 187 358.7 186.3 368 186.3 368 187 364.4 187 364.4 193.5 369.7 193.5 369.7 194.1 356.9 194.1"/><path class="g" d="M376.3,189.3c-.9-1.5-1.9-2.8-3-3.5l.4-.5c1.4.4,2.9,1.1,4.3,2l-1.7,2ZM384.2,187.9c-1.3,3.7-4.5,7-10.3,7.6l-.5-2.1c5.5-.3,8.6-2.5,10.2-5.8l.6.3Z"/><path class="g" d="M397.5,195.6c-1-1.4-2.2-2.9-3.8-4.1-1.7,1.8-3.6,3.1-6.4,4.1l-.3-.5c4.1-2,6.3-5.1,7.3-9.1h-5.2v-.6h7.5v.6c-.6,2-1.3,3.5-2.5,5,1.8.8,3.3,1.6,4.8,2.6l-1.5,2Z"/><path class="g" d="M411.8,195.4c-.8.1-2,.2-3.2.2s-1.8,0-2.5,0c-2.5-.2-3.7-1.3-3.7-2.6s.5-1.6,1.4-2.3c.5-.4,1.2-.8,2-1.2-.3-1.4-.6-3.4-.8-5.2l2.1-.2c0,1.6.3,3.4.6,4.6,1.2-.5,2.5-.9,3.8-1.2l.2.8c-3.1.7-6.1,1.8-7.1,2.7-.6.5-.9,1-.9,1.4,0,.7.8,1.3,2.5,1.5.5,0,1.1,0,1.7,0,1.4,0,3-.1,4-.3v2Z"/><path class="g" d="M282.1,213.1v-.7h5.8v-3.9h-3.4v-.7h3.4v-3.2h-2.7c-.7,1.2-1.6,2.3-2.7,3.4l-.3-.4c1.2-2,1.8-4.1,2.1-6.6l2.3.5c-.3.8-.6,1.6-.9,2.3h2.3v-3.5h1.9v3.5h4.4v.7h-4.4v3.2h3.5v.7h-3.5v3.9h5.1v.7h-12.8Z"/><path class="g" d="M310.1,205.9c-1.9-.7-3.7-1.9-5.3-3.7-1.8,1.8-4,3-6.6,3.7l-.2-.4c2.6-1.3,4.3-3,5.5-5l2.4.6c-.2.3-.4.5-.6.8,1.8,1.1,3.8,1.7,5.9,1.9l-.9,2.2ZM300.9,211.7v.8h-1.6v-5.9h4.5v5.2h-2.9ZM302.2,207.1h-1.3v4.1h1.3v-4.1ZM301.2,204.9h6.4v.5h-6.4v-.5ZM304.8,213.8v-7.2h5v3.8c0,1.2-.3,1.8-1.2,1.8s-1.1-.1-1.9-.4v-.5c.4.1.7.2.9.2.4,0,.5-.3.5-1.1v-3.1h-1.6v6.6h-1.7Z"/><path class="g" d="M316.6,212.9v.9h-1.8v-12.5h11.5v.5h-9.7v10.5h10.3v.5h-10.3ZM324.7,212c-.8-1.5-1.6-2.6-2.4-3.4-.6,1.3-2.2,2.6-4.7,3.5l-.2-.5c2-1.1,3.1-2.5,3.4-4.2h-3.5v-.5h3.5c0-.2,0-.4,0-.6v-1.8h-.9c-.6.8-1.3,1.5-2.2,2.2l-.3-.4c.8-1.2,1.3-2.9,1.5-4.2l2.1.5c-.2.4-.5,1-.7,1.4h4.8v.5h-2.4v1.8c0,.2,0,.4,0,.6h3.5v.5h-3.6c0,.3-.1.5-.2.7,1.3.5,2.4,1.1,3.6,1.9l-1.4,1.9Z"/><path class="g" d="M332.2,213.8v-5.6c-.7,1.2-1.1,1.7-1.9,2.7l-.3-.3c1-1.6,1.4-3.2,1.8-5.1h-1.6v-.5h2v-2.2c-.7.1-1.1.1-1.8.2v-.4c1.5-.6,2.9-1.3,3.9-2.1l1.5,1.5c-.6.2-1.3.3-2,.4v2.4h2.2v.5h-2.2v.6c.8.6,1.8,1.3,2.5,2l-1.4,1.3c-.2-1.1-.8-1.9-1.1-2.6v7.1h-1.7ZM339.7,213.8v-4.3c-1.1.3-2.7.6-4.3.9v-.6c1.5-.3,3.2-.7,4.3-.9v-7.8h1.8v7.3c.9-.2,1.6-.5,1.6-.5v.6s-.9.3-1.6.5v4.8h-1.8ZM337.8,204.9c-.5-1.4-1.5-2.6-1.5-2.6l.3-.3s1.4.5,2.6,1.6l-1.5,1.3ZM337.8,208.2c-.5-1.7-1.4-2.9-1.4-2.9l.3-.3s1.5.7,2.5,1.9l-1.5,1.3Z"/><path class="g" d="M354,209.9v1.8c0,1.1-.3,2.1-1.7,2.1s-1.5-.2-2.7-.6v-.5c.8.2,1.3.3,1.7.3.8,0,.8-.5.8-1.2v-1.8h-6.1v-.5h6.1v-1.2c.6-.4,1-1.1,1.3-1.6h-4.5v-.5h7v.5c-.6.6-1.3,1-1.9,1.3v1.5h5.1v.5h-5.1ZM356.3,206.8c.3-.6.5-1.4.5-2.3h-8.6v2.3h-1.8v-2.9h12.4v.8c-.4.9-1.3,1.7-2.2,2.3l-.4-.3ZM349,204s-.5-1.4-1.5-2.8l.3-.3c1.5.6,2.9,1.8,2.9,1.8l-1.7,1.3ZM351.8,203.8s0-1.5-.6-3.1l.4-.3c1.4,1.1,2.2,2.3,2.2,2.3l-2,1.1ZM354.7,203.7s.6-1,1-3l2.2.9c-1.6,1.8-2.8,2.4-2.8,2.4l-.4-.3Z"/><path class="g" d="M364.7,212.1v1.1h-1.5v-5.3c-.2.4-.5.8-.8,1.1l-.3-.2c1-2.1,1.4-4.2,1.6-6.7h-1.3v-.5h5.3v.5h-2.2c-.2,1.2-.5,2.3-.8,3.3h2.6v6.7h-2.5ZM365.7,205.9h-1v5.7h1v-5.7ZM372,213.8v-7.1h-1.3c-.1,2.6-.6,5-3.2,7l-.3-.4c1.4-2.1,1.7-4.5,1.7-6.7h-1.5v-.5h1.5v-4.4h-1.1v-.5h6.9v.5h-1v4.4h1.4v.5h-1.4v7.1h-1.7ZM372,201.8h-1.2v4.4h1.2v-4.4Z"/><path class="g" d="M388,213.5c-1,0-1.5-.6-1.5-1.7v-3.4h-2c-.6,3.5-2.6,4.6-6.1,5.4v-.5c2.4-1,3.8-2.3,4.3-4.9h-3.1v-.5h3.2c0-.5.1-1.1.1-1.7h1.9c0,.6,0,1.2,0,1.7h3.8v3.7c0,.4.1.4.5.4h.6c.7,0,1-.4,1.3-2.2l.5.2c-.2,3-.5,3.5-1.7,3.5h-1.6ZM388.3,204.4c.3-.5.5-1.2.6-1.8h-8.6v2h-1.8v-2.5h5.1v-1.5h2v1.5h5.4v.9c-.5.7-1.5,1.4-2.2,1.8l-.4-.3ZM378.5,206.5c2-.6,3.3-1.7,3.6-3.7l1.9.5c-.8,2.4-2.5,3.4-5.3,3.7l-.2-.5ZM386.4,206.9c-1,0-1.4-.4-1.4-1.3v-2.6h1.7v2.2c0,.3,0,.4.4.4h1.8c.5,0,.7-.1.9-1.2l.5.2c-.2,2-.6,2.4-1.4,2.4h-2.4Z"/><path class="g" d="M399.8,212.2c3-.5,4.3-2,4.4-4.4,0-.1,0-.2,0-.4,0-2.6-1.5-4-3.3-4-.3,4.1-1.4,6.8-3.6,8.1-.4.3-.8.4-1.1.4-.9,0-1.7-.9-1.7-2.7s0-.5,0-.8c.3-2.8,2.9-5.5,6.4-5.5s5.5,1.8,5.5,4.6,0,.2,0,.3c-.2,2.9-2.5,4.6-6.4,4.7l-.2-.4ZM396.4,208.1c0,.3,0,.6,0,.8,0,.8.2,1.2.6,1.2s.4-.1.6-.3c1.3-.9,2.3-3.1,2.7-6.4-2.3.3-3.7,2.6-3.9,4.6"/><path class="g" d="M282.5,230c4.3-1.4,6.8-4.3,7.4-8.6h-8v-.8h10.2v.9c-.7,5-3.8,8-9.4,9l-.2-.5Z"/><path class="g" d="M303.9,229.8v-1h-5.7v1h-2v-8.8h9.6v8.8h-1.9ZM303.9,221.6h-5.7v6.6h5.7v-6.6Z"/><path class="g" d="M313.3,224.2c-.9-1.5-1.9-2.8-3-3.5l.4-.5c1.4.4,2.9,1.1,4.3,2l-1.7,2ZM321.2,222.9c-1.3,3.7-4.5,7-10.3,7.6l-.5-2.1c5.5-.3,8.6-2.5,10.2-5.8l.6.3Z"/><path class="g" d="M332.1,224.1c-.2,2.7-1.8,5.8-5.8,6.7l-.3-.5c2.8-1.2,3.8-3.5,3.9-6.2h-5.4v-.7h12v.7h-4.4ZM326.3,219.9h8.3v.7h-8.3v-.7Z"/><path class="g" d="M343,230.5v-5c-1.1.5-2.3,1-3.6,1.3v-.4c2.4-.9,5.1-3,6.2-4.8l1.5,1c-1,1-2.2,1.9-3.6,2.6h1v5.3h-1.6Z"/><path class="g" d="M357.1,225c1.4-.9,2.3-2.4,2.6-4.2h-8.7v-.6h11.2v.8c-.9,2.2-2.5,3.6-4.8,4.5l-.3-.5ZM351.3,230.2c2.9-1.8,3.9-4.1,3.9-7.8h2.3c0,4-2.1,7-5.9,8.2l-.3-.4Z"/><g class="h"><g class="i"><path class="g" d="M320.1,24.5c-.8-.8-2.8-1.5-5.8-2.1-5-1.1-8.6-2.6-10.7-4.5-2.1-1.9-3.2-4.2-3.2-7.1s.6-3.7,1.6-5.4c1.1-1.7,2.8-3,5-4C309.2.5,312.2,0,316,0s8.3.9,10.8,2.6c2.5,1.8,3.9,4.5,4.4,8.4l-10.7.6c-.3-1.7-.9-2.9-1.8-3.6-.9-.8-2.2-1.1-3.8-1.1s-2.3.3-3,.8c-.7.6-1,1.2-1,2s.3,1.1.8,1.6c.5.5,1.8.9,3.8,1.4,5,1.1,8.5,2.2,10.7,3.3,2.2,1.1,3.7,2.5,4.7,4.1,1,1.6,1.5,3.4,1.5,5.5s-.7,4.5-2,6.5-3.1,3.5-5.5,4.5c-2.3,1-5.3,1.5-8.9,1.5-6.3,0-10.6-1.2-13-3.6-2.4-2.4-3.8-5.5-4.1-9.2l10.8-.7c.2,1.8.7,3.1,1.4,4,1.2,1.5,2.8,2.2,5,2.2s2.9-.4,3.8-1.1,1.3-1.6,1.3-2.7-.4-1.8-1.3-2.6M339.9,122.3v36.5h-10.6l-13.7-20v20h-10.6v-36.5h10.5l13.7,20.2v-20.2h10.6ZM276.1,243.4v7.9h-19.2v5.9h17.8v7.5h-17.8v7.3h19.7v8.4h-31.2v-37h30.6ZM248.7,122.3h11.3v36.5h-11.3v-36.5ZM268,158.8v-36.5h30.2v7.8h-18.9v5.8h17.6v7.4h-17.6v7.2h19.5v8.3h-30.8ZM261,.6h19c3.5,0,6.2.3,8.1.9,1.9.6,3.4,1.7,4.5,3.4,1.1,1.6,1.7,3.6,1.7,6s-.4,3.8-1.3,5.3c-.9,1.5-2.1,2.7-3.6,3.6-1,.6-2.3,1.1-4,1.5,1.4.5,2.3.9,3,1.4.4.3,1,.9,1.8,1.9.8,1,1.3,1.8,1.6,2.3l5.5,10.7h-12.9l-6.1-11.3c-.8-1.5-1.5-2.4-2.1-2.8-.8-.6-1.8-.9-2.8-.9h-1v15h-11.4V.6ZM223.7.6h30.5v7.9h-19.1v5.9h17.7v7.5h-17.7v7.3h19.7v8.3h-31.1V.6ZM234.3,158c-2.1.9-4.8,1.4-8.1,1.4s-7.2-.6-9.7-1.7c-2.5-1.2-4.7-3.2-6.5-6.1-1.8-2.9-2.7-6.6-2.7-11.1s1.6-10.7,4.8-13.9c3.2-3.2,7.8-4.9,13.6-4.9s8.2.9,10.8,2.8,4.6,4.7,5.9,8.6l-10,2.2c-.3-1.1-.7-1.9-1.1-2.4-.6-.9-1.4-1.5-2.3-2-.9-.5-1.9-.7-3.1-.7-2.6,0-4.5,1-5.9,3.1-1,1.5-1.5,3.9-1.5,7.2s.6,6.8,1.8,8.3c1.2,1.5,3,2.2,5.2,2.2s3.8-.6,4.9-1.8c1.1-1.2,1.9-3,2.4-5.3l9.9,3c-.7,2.8-1.7,5.1-3.1,6.9-1.4,1.9-3.2,3.3-5.3,4.2M237.3,280.4h-11.5v-37h11.5v37ZM204.1.6h11.4v36.8h-11.4V.6ZM201.7,132.6l-10.6.6c-.3-1.6-.9-2.8-1.8-3.6-.9-.7-2.2-1.1-3.7-1.1s-2.3.3-3,.8c-.7.6-1,1.2-1,2s.3,1.1.8,1.6c.5.5,1.8.9,3.8,1.3,4.9,1.1,8.5,2.1,10.6,3.2,2.1,1.1,3.7,2.4,4.7,4,1,1.6,1.5,3.4,1.5,5.4s-.6,4.5-1.9,6.5c-1.3,2-3.1,3.5-5.4,4.5-2.3,1-5.3,1.5-8.8,1.5-6.2,0-10.5-1.2-12.9-3.6-2.4-2.4-3.7-5.4-4.1-9.1l10.7-.7c.2,1.7.7,3.1,1.4,4,1.2,1.5,2.8,2.2,5,2.2s2.9-.4,3.7-1.1c.9-.8,1.3-1.6,1.3-2.6s-.4-1.8-1.2-2.5c-.8-.7-2.8-1.5-5.8-2.1-4.9-1.1-8.5-2.6-10.6-4.4-2.1-1.8-3.2-4.2-3.2-7s.5-3.6,1.6-5.3c1.1-1.7,2.7-3,4.9-3.9,2.2-1,5.2-1.4,9-1.4s8.2.9,10.7,2.6c2.4,1.7,3.9,4.5,4.4,8.3M97.1,243.4h30.6v7.9h-19.2v5.9h17.8v7.5h-17.8v7.3h19.7v8.4h-31.2v-37ZM91.8,220.6v-37.1h17.1c3.4,0,6.1.5,8.2,1.4,2.1.9,3.8,2.2,5.1,3.9,1.4,1.7,2.3,3.7,2.9,6,.6,2.3.9,4.7.9,7.2,0,4-.5,7-1.4,9.2-.9,2.2-2.2,4-3.8,5.5-1.6,1.5-3.3,2.5-5.2,3-2.5.7-4.8,1-6.8,1h-17.1ZM125.2,152.8l-1.8,6h-11.6l13.8-36.6h12.4l13.8,36.6h-11.9l-1.8-6h-12.9ZM167.1,267.4c-.8-.8-2.8-1.5-5.9-2.1-5-1.1-8.6-2.6-10.7-4.5-2.2-1.9-3.2-4.2-3.2-7.1s.6-3.7,1.7-5.4c1.1-1.7,2.8-3,5-4,2.2-1,5.2-1.4,9.1-1.4s8.3.9,10.8,2.6c2.5,1.8,4,4.6,4.4,8.4l-10.8.6c-.3-1.7-.9-2.9-1.8-3.6-.9-.8-2.2-1.1-3.8-1.1s-2.3.3-3,.8c-.7.6-1,1.2-1,2.1s.3,1.1.8,1.6c.5.5,1.8.9,3.8,1.4,5,1.1,8.6,2.2,10.7,3.3,2.2,1.1,3.7,2.5,4.7,4.1,1,1.6,1.5,3.5,1.5,5.5s-.7,4.6-2,6.6c-1.3,2-3.1,3.5-5.5,4.5-2.4,1-5.3,1.6-8.9,1.6-6.3,0-10.6-1.2-13.1-3.6-2.4-2.4-3.8-5.5-4.1-9.2l10.9-.7c.2,1.8.7,3.1,1.4,4,1.2,1.5,2.9,2.2,5,2.2s2.9-.4,3.8-1.1c.9-.8,1.3-1.7,1.3-2.7s-.4-1.8-1.3-2.6M163.9.6h34.6v9.1h-11.6v27.7h-11.4V9.7h-11.6V.6ZM123.6.6h10.6l13.9,20.4V.6h10.7v36.8h-10.7l-13.8-20.2v20.2h-10.7V.6ZM84.2,5C87.6,1.7,92.2,0,98.2,0s10.9,1.6,14.2,4.9,5,7.9,5,13.8-.7,7.8-2.2,10.6c-1.5,2.8-3.5,4.9-6.3,6.4-2.7,1.5-6.2,2.3-10.2,2.3s-7.6-.7-10.3-2c-2.7-1.3-4.9-3.4-6.6-6.3-1.7-2.9-2.5-6.5-2.5-10.8s1.7-10.7,5-14M79.4,122.3h34.4v9h-11.5v27.6h-11.3v-27.6h-11.5v-9ZM88.5,257.8v7.5h-14.3v15.1h-11.5v-37h28.3v7.9h-16.8v6.5h14.3ZM48.5,220.6v-37.1h10.7l14,20.6v-20.6h10.8v37.1h-10.8l-13.9-20.4v20.4h-10.8ZM54.4,280.4h-11.5v-37h11.5v37ZM42,158.9l13.8-36.6h12.3l13.8,36.6h-11.9l-1.8-6h-12.9l-1.8,6h-11.6ZM79.6,66.2h-17.1v6.6h14.6v7.6h-14.6v15.3h-11.7v-37.6h28.7v8.1ZM41.6.6h19c3.5,0,6.2.3,8.1.9,1.9.6,3.4,1.7,4.5,3.4,1.1,1.6,1.7,3.6,1.7,6s-.4,3.8-1.3,5.3c-.9,1.5-2.1,2.7-3.6,3.6-1,.6-2.3,1.1-4,1.5,1.4.5,2.3.9,3,1.4.4.3,1,.9,1.8,1.9.8,1,1.3,1.8,1.6,2.3l5.5,10.7h-12.9l-6.1-11.3c-.8-1.5-1.5-2.4-2.1-2.8-.8-.6-1.8-.9-2.8-.9h-1v15h-11.4V.6ZM7.1.6h28.2v7.9h-16.7v6.4h14.3v7.4h-14.3v15.1H7.1V.6ZM10.8,62.6c3.4-3.4,8.2-5.1,14.3-5.1s11.1,1.7,14.5,5c3.4,3.4,5.1,8.1,5.1,14.1s-.7,8-2.2,10.8c-1.5,2.8-3.6,5-6.4,6.6-2.8,1.6-6.3,2.3-10.4,2.3s-7.7-.7-10.5-2c-2.8-1.3-5-3.5-6.8-6.4-1.7-2.9-2.6-6.6-2.6-11s1.7-10.9,5.1-14.3M42,140.4c0,3.9-.4,6.9-1.3,9.1-.9,2.2-2.1,4-3.7,5.4-1.6,1.5-3.3,2.4-5.1,2.9-2.5.7-4.7,1-6.7,1H8.2v-36.6h16.8c3.3,0,6,.5,8,1.3,2,.9,3.7,2.2,5.1,3.9,1.3,1.7,2.3,3.6,2.9,5.9.6,2.2.9,4.6.9,7.1M18.2,183.5h12.5l14,37.1h-12l-1.9-6.1h-13l-1.8,6.1H4.2l14-37.1ZM8.1,243.4h11.4v27.9h17.8v9.1H8.1v-37ZM31.1,342.2l-6-11.1c-.8-1.4-1.4-2.4-2-2.8-.8-.6-1.7-.8-2.8-.8h-1v14.8H8v-36.4h18.8c3.5,0,6.1.3,8,.9,1.8.6,3.3,1.7,4.5,3.3,1.1,1.6,1.7,3.6,1.7,5.9s-.4,3.8-1.3,5.2c-.9,1.5-2,2.7-3.6,3.6-1,.6-2.3,1.1-4,1.4,1.3.4,2.3.9,2.9,1.3.4.3,1,.9,1.8,1.9.8,1,1.3,1.7,1.6,2.3l5.5,10.6h-12.7ZM78.2,342.2h-30.7v-36.4h30.2v7.8h-18.9v5.8h17.5v7.4h-17.5v7.2h19.4v8.2ZM113.4,336.8c-1.3,2-3.1,3.5-5.4,4.5-2.3,1-5.2,1.5-8.8,1.5-6.2,0-10.5-1.2-12.9-3.6-2.4-2.4-3.7-5.4-4.1-9.1l10.7-.7c.2,1.7.7,3.1,1.4,4,1.2,1.5,2.8,2.2,5,2.2s2.8-.4,3.7-1.1c.9-.8,1.3-1.6,1.3-2.6s-.4-1.8-1.2-2.5c-.8-.7-2.8-1.4-5.8-2.1-4.9-1.1-8.5-2.6-10.6-4.4-2.1-1.8-3.2-4.2-3.2-7s.5-3.6,1.6-5.3c1.1-1.7,2.7-3,4.9-3.9,2.2-1,5.2-1.4,9-1.4s8.2.9,10.7,2.6,3.9,4.5,4.4,8.3l-10.6.6c-.3-1.6-.9-2.8-1.8-3.6-.9-.7-2.2-1.1-3.7-1.1s-2.3.3-3,.8c-.7.6-1,1.2-1,2s.3,1.1.8,1.6c.5.5,1.8.9,3.8,1.3,4.9,1.1,8.4,2.1,10.6,3.2,2.1,1.1,3.7,2.4,4.6,4,1,1.6,1.5,3.4,1.5,5.4s-.6,4.5-1.9,6.5M151.7,342.2h-30.7v-36.4h30.2v7.8h-18.9v5.8h17.5v7.4h-17.5v7.2h19.4v8.2ZM182,342.2l-1.8-6h-12.8l-1.8,6h-11.5l13.7-36.4h12.3l13.7,36.4h-11.8ZM186.6,273.1c-1.9-2.9-2.8-6.7-2.8-11.3s1.6-10.8,4.9-14.1c3.3-3.3,7.9-4.9,13.8-4.9s8.3.9,11,2.8c2.7,1.9,4.6,4.8,5.9,8.7l-10.1,2.2c-.4-1.1-.7-2-1.1-2.5-.6-.9-1.4-1.5-2.3-2-.9-.5-2-.7-3.1-.7-2.6,0-4.6,1-6,3.1-1,1.5-1.6,4-1.6,7.3s.6,6.9,1.9,8.4c1.2,1.5,3,2.3,5.2,2.3s3.8-.6,5-1.8c1.1-1.2,1.9-3,2.4-5.3l10,3c-.7,2.8-1.7,5.2-3.2,7-1.4,1.9-3.2,3.3-5.4,4.3-2.1,1-4.9,1.4-8.2,1.4s-7.3-.6-9.9-1.8c-2.5-1.2-4.7-3.2-6.6-6.2M220.7,342.2l-6-11.1c-.8-1.4-1.4-2.4-2-2.8-.8-.6-1.7-.8-2.8-.8h-1v14.8h-11.3v-36.4h18.8c3.5,0,6.1.3,8,.9,1.8.6,3.3,1.7,4.5,3.3,1.1,1.6,1.7,3.6,1.7,5.9s-.4,3.8-1.3,5.2c-.9,1.5-2,2.7-3.6,3.6-1,.6-2.3,1.1-4,1.4,1.3.4,2.3.9,2.9,1.3.4.3,1,.9,1.8,1.9.8,1,1.3,1.7,1.6,2.3l5.5,10.6h-12.7ZM267.1,337.2c-1.4,1.9-3.2,3.3-5.3,4.2-2.1.9-4.8,1.4-8.1,1.4s-7.2-.6-9.7-1.7-4.7-3.2-6.5-6.1-2.7-6.6-2.7-11.1,1.6-10.7,4.8-13.9c3.2-3.2,7.7-4.9,13.6-4.9s8.2.9,10.8,2.8c2.6,1.9,4.6,4.7,5.9,8.5l-9.9,2.2c-.3-1.1-.7-1.9-1.1-2.4-.6-.9-1.4-1.5-2.3-2-.9-.5-1.9-.7-3.1-.7-2.6,0-4.5,1-5.9,3.1-1,1.5-1.5,3.9-1.5,7.2s.6,6.8,1.8,8.3c1.2,1.5,3,2.2,5.2,2.2s3.8-.6,4.9-1.8c1.1-1.2,1.9-3,2.4-5.3l9.9,3c-.7,2.8-1.7,5.1-3.1,6.9M310.6,342.2h-11.3v-14.7h-12.3v14.7h-11.3v-36.4h11.3v12.7h12.3v-12.7h11.3v36.4ZM318.3,280.4h-10.8l-13.9-20.3v20.3h-10.8v-37h10.7l13.9,20.5v-20.5h10.8v37ZM357.4,275.3c-1.4,1.9-3.2,3.3-5.4,4.3-2.1,1-4.9,1.4-8.2,1.4s-7.3-.6-9.9-1.8c-2.5-1.2-4.7-3.2-6.6-6.2-1.9-2.9-2.8-6.7-2.8-11.3s1.6-10.8,4.9-14.1c3.3-3.3,7.9-4.9,13.8-4.9s8.3.9,11,2.8c2.7,1.9,4.6,4.8,5.9,8.7l-10.1,2.2c-.4-1.1-.7-2-1.1-2.5-.6-.9-1.4-1.5-2.3-2-.9-.5-2-.7-3.1-.7-2.6,0-4.6,1-6,3.1-1,1.5-1.6,4-1.6,7.3s.6,6.9,1.9,8.4c1.2,1.5,3,2.3,5.2,2.3s3.8-.6,5-1.8c1.1-1.2,1.9-3,2.4-5.3l10,3c-.7,2.8-1.7,5.2-3.2,7M355.3,157.7c-2.5-1.2-4.7-3.2-6.5-6.1-1.8-2.9-2.7-6.6-2.7-11.1s1.6-10.7,4.8-13.9c3.2-3.2,7.8-4.9,13.6-4.9s8.2.9,10.8,2.8c2.6,1.9,4.6,4.7,5.9,8.6l-10,2.2c-.3-1.1-.7-1.9-1.1-2.4-.6-.9-1.4-1.5-2.3-2s-1.9-.7-3.1-.7c-2.6,0-4.5,1-5.9,3.1-1,1.5-1.5,3.9-1.5,7.2s.6,6.8,1.8,8.3c1.2,1.5,3,2.2,5.2,2.2s3.8-.6,4.9-1.8c1.1-1.2,1.9-3,2.4-5.3l9.9,3c-.7,2.8-1.7,5.1-3.1,6.9-1.4,1.9-3.2,3.3-5.3,4.2-2.1.9-4.8,1.4-8.1,1.4s-7.2-.6-9.7-1.7M397.3,280.4h-31.2v-37h30.6v7.9h-19.2v5.9h17.8v7.5h-17.8v7.3h19.7v8.4ZM417.8,158.8h-30.8v-36.5h30.2v7.8h-18.9v5.8h17.6v7.4h-17.6v7.2h19.5v8.3Z"/></g></g><path class="g" d="M3.7,5.5h27.7v7.8H15v6.3h14.1v7.3h-14.1v14.8H3.7V5.5Z"/><path class="g" d="M37.6,41.8V5.5h18.7c3.5,0,6.1.3,7.9.9,1.8.6,3.3,1.7,4.4,3.3,1.1,1.6,1.7,3.6,1.7,5.9s-.4,3.8-1.3,5.2c-.9,1.5-2,2.6-3.5,3.6-1,.6-2.3,1.1-3.9,1.4,1.3.4,2.3.9,2.9,1.3.4.3,1,.9,1.8,1.9.8,1,1.3,1.7,1.6,2.3l5.4,10.5h-12.7l-6-11.1c-.8-1.4-1.4-2.4-2-2.8-.8-.6-1.7-.8-2.7-.8h-1v14.7h-11.3ZM48.9,20.2h4.7c.5,0,1.5-.2,3-.5.7-.1,1.3-.5,1.8-1.1.5-.6.7-1.3.7-2.1,0-1.2-.4-2.1-1.1-2.7-.7-.6-2.1-.9-4.2-.9h-4.9v7.4Z"/><path class="g" d="M74.6,23.7c0-5.9,1.7-10.5,5-13.8s7.9-5,13.8-5,10.7,1.6,14,4.9c3.3,3.2,4.9,7.8,4.9,13.6s-.7,7.7-2.1,10.4c-1.4,2.7-3.5,4.8-6.2,6.3-2.7,1.5-6.1,2.3-10.1,2.3s-7.5-.7-10.2-2c-2.7-1.3-4.9-3.4-6.5-6.2-1.7-2.8-2.5-6.4-2.5-10.6ZM85.9,23.8c0,3.7.7,6.3,2,7.9,1.4,1.6,3.2,2.4,5.6,2.4s4.3-.8,5.6-2.4,2-4.4,2-8.4-.7-5.9-2.1-7.5c-1.4-1.6-3.2-2.4-5.6-2.4s-4.1.8-5.4,2.4c-1.4,1.6-2.1,4.3-2.1,7.9Z"/><path class="g" d="M118.4,5.5h10.5l13.7,20.1V5.5h10.6v36.3h-10.6l-13.6-19.9v19.9h-10.5V5.5Z"/><path class="g" d="M158,5.5h34.1v9h-11.4v27.3h-11.2V14.5h-11.4V5.5Z"/><path class="g" d="M197.6,5.5h11.2v36.3h-11.2V5.5Z"/><path class="g" d="M216.9,5.5h30.1v7.8h-18.8v5.8h17.5v7.4h-17.5v7.2h19.4v8.2h-30.6V5.5Z"/><path class="g" d="M253.7,41.8V5.5h18.7c3.5,0,6.1.3,7.9.9,1.8.6,3.3,1.7,4.4,3.3,1.1,1.6,1.7,3.6,1.7,5.9s-.4,3.8-1.3,5.2c-.9,1.5-2,2.6-3.5,3.6-1,.6-2.3,1.1-3.9,1.4,1.3.4,2.3.9,2.9,1.3.4.3,1,.9,1.8,1.9.8,1,1.3,1.7,1.6,2.3l5.4,10.5h-12.7l-6-11.1c-.8-1.4-1.4-2.4-2-2.8-.8-.6-1.7-.8-2.7-.8h-1v14.7h-11.3ZM264.9,20.2h4.7c.5,0,1.5-.2,3-.5.7-.1,1.3-.5,1.8-1.1.5-.6.7-1.3.7-2.1,0-1.2-.4-2.1-1.1-2.7-.7-.6-2.1-.9-4.2-.9h-4.9v7.4Z"/><path class="g" d="M291,29.8l10.7-.7c.2,1.7.7,3.1,1.4,4,1.2,1.5,2.8,2.2,5,2.2s2.8-.4,3.7-1.1c.9-.8,1.3-1.6,1.3-2.6s-.4-1.8-1.2-2.5c-.8-.7-2.7-1.4-5.7-2.1-4.9-1.1-8.4-2.6-10.5-4.4-2.1-1.8-3.2-4.2-3.2-7s.5-3.6,1.6-5.3c1.1-1.7,2.7-3,4.9-3.9s5.1-1.4,8.9-1.4,8.2.9,10.6,2.6c2.4,1.7,3.9,4.5,4.3,8.2l-10.6.6c-.3-1.6-.9-2.8-1.8-3.6-.9-.7-2.1-1.1-3.7-1.1s-2.3.3-2.9.8c-.7.6-1,1.2-1,2s.3,1.1.8,1.6c.5.5,1.8.9,3.8,1.3,4.9,1.1,8.4,2.1,10.5,3.2,2.1,1.1,3.7,2.4,4.6,4,1,1.6,1.4,3.4,1.4,5.4s-.6,4.5-1.9,6.4c-1.3,2-3.1,3.5-5.4,4.5-2.3,1-5.2,1.5-8.7,1.5-6.2,0-10.4-1.2-12.8-3.6-2.4-2.4-3.7-5.4-4-9.1Z"/><path class="g" d="M2.2,84.6c0-5.9,1.7-10.5,5-13.8s7.9-5,13.8-5,10.7,1.6,14,4.9c3.3,3.2,4.9,7.8,4.9,13.6s-.7,7.7-2.1,10.4c-1.4,2.7-3.5,4.8-6.2,6.3-2.7,1.5-6.1,2.3-10.1,2.3s-7.5-.7-10.2-2c-2.7-1.3-4.9-3.4-6.5-6.2-1.7-2.8-2.5-6.4-2.5-10.6ZM13.4,84.6c0,3.7.7,6.3,2,7.9,1.4,1.6,3.2,2.4,5.6,2.4s4.3-.8,5.6-2.4,2-4.4,2-8.4-.7-5.9-2.1-7.5c-1.4-1.6-3.2-2.4-5.6-2.4s-4.1.8-5.4,2.4c-1.4,1.6-2.1,4.3-2.1,7.9Z"/><path class="g" d="M45.9,66.4h27.7v7.8h-16.5v6.3h14.1v7.3h-14.1v14.8h-11.3v-36.3Z"/><path class="g" d="M3.8,127.3h16.7c3.3,0,5.9.4,8,1.3,2,.9,3.7,2.2,5,3.8,1.3,1.7,2.3,3.6,2.9,5.8.6,2.2.9,4.6.9,7,0,3.9-.4,6.9-1.3,9-.9,2.1-2.1,3.9-3.7,5.4-1.6,1.4-3.3,2.4-5.1,2.9-2.5.7-4.7,1-6.7,1H3.8v-36.3ZM15,135.5v19.8h2.7c2.3,0,4-.3,5-.8,1-.5,1.8-1.4,2.3-2.7.6-1.3.8-3.4.8-6.3s-.6-6.5-1.9-7.9c-1.3-1.4-3.3-2.1-6.2-2.1h-2.8Z"/><path class="g" d="M63.3,157.6h-12.7l-1.8,6h-11.5l13.6-36.3h12.2l13.6,36.3h-11.7l-1.8-6ZM60.9,149.7l-4-13-4,13h8Z"/><path class="g" d="M74.4,127.3h34.1v9h-11.4v27.3h-11.2v-27.3h-11.4v-9Z"/><path class="g" d="M132.5,157.6h-12.7l-1.8,6h-11.5l13.6-36.3h12.2l13.6,36.3h-11.7l-1.8-6ZM130.2,149.7l-4-13-4,13h8Z"/><path class="g" d="M164.6,151.5l10.7-.7c.2,1.7.7,3.1,1.4,4,1.2,1.5,2.8,2.2,5,2.2s2.8-.4,3.7-1.1c.9-.8,1.3-1.6,1.3-2.6s-.4-1.8-1.2-2.5c-.8-.7-2.7-1.4-5.7-2.1-4.9-1.1-8.4-2.6-10.5-4.4-2.1-1.8-3.2-4.2-3.2-7s.5-3.6,1.6-5.3c1.1-1.7,2.7-3,4.9-3.9s5.1-1.4,8.9-1.4,8.2.9,10.6,2.6c2.4,1.7,3.9,4.5,4.3,8.2l-10.6.6c-.3-1.6-.9-2.8-1.8-3.6-.9-.7-2.1-1.1-3.7-1.1s-2.3.3-2.9.8c-.7.6-1,1.2-1,2s.3,1.1.8,1.6c.5.5,1.8.9,3.8,1.3,4.9,1.1,8.4,2.1,10.5,3.2,2.1,1.1,3.7,2.4,4.6,4,1,1.6,1.4,3.4,1.4,5.4s-.6,4.5-1.9,6.4c-1.3,2-3.1,3.5-5.4,4.5-2.3,1-5.2,1.5-8.7,1.5-6.2,0-10.4-1.2-12.8-3.6-2.4-2.4-3.7-5.4-4-9.1Z"/><path class="g" d="M227.3,148.7l9.8,3c-.7,2.8-1.7,5.1-3.1,6.9-1.4,1.8-3.2,3.2-5.3,4.2-2.1.9-4.8,1.4-8,1.4s-7.2-.6-9.7-1.7c-2.5-1.1-4.7-3.2-6.5-6.1-1.8-2.9-2.7-6.6-2.7-11.1s1.6-10.6,4.8-13.8,7.7-4.8,13.6-4.8,8.2.9,10.8,2.8c2.6,1.8,4.6,4.7,5.8,8.5l-9.9,2.2c-.3-1.1-.7-1.9-1.1-2.4-.6-.9-1.4-1.5-2.3-2-.9-.5-1.9-.7-3-.7-2.5,0-4.5,1-5.8,3.1-1,1.5-1.5,3.9-1.5,7.1s.6,6.8,1.8,8.3c1.2,1.5,2.9,2.2,5.2,2.2s3.8-.6,4.9-1.8c1.1-1.2,1.9-3,2.4-5.2Z"/><path class="g" d="M243.1,127.3h11.2v36.3h-11.2v-36.3Z"/><path class="g" d="M262.3,127.3h30.1v7.8h-18.8v5.8h17.5v7.4h-17.5v7.2h19.4v8.2h-30.6v-36.3Z"/><path class="g" d="M299,127.3h10.5l13.7,20.1v-20.1h10.6v36.3h-10.6l-13.6-19.9v19.9h-10.5v-36.3Z"/><path class="g" d="M365.4,148.7l9.8,3c-.7,2.8-1.7,5.1-3.1,6.9-1.4,1.8-3.2,3.2-5.3,4.2-2.1.9-4.8,1.4-8,1.4s-7.2-.6-9.7-1.7-4.7-3.2-6.5-6.1c-1.8-2.9-2.7-6.6-2.7-11.1s1.6-10.6,4.8-13.8,7.7-4.8,13.6-4.8,8.2.9,10.8,2.8c2.6,1.8,4.6,4.7,5.8,8.5l-9.9,2.2c-.3-1.1-.7-1.9-1.1-2.4-.6-.9-1.4-1.5-2.3-2-.9-.5-1.9-.7-3-.7-2.5,0-4.5,1-5.8,3.1-1,1.5-1.5,3.9-1.5,7.1s.6,6.8,1.8,8.3c1.2,1.5,2.9,2.2,5.2,2.2s3.8-.6,4.9-1.8c1.1-1.2,1.9-3,2.4-5.2Z"/><path class="g" d="M380.6,127.3h30.1v7.8h-18.8v5.8h17.5v7.4h-17.5v7.2h19.4v8.2h-30.6v-36.3Z"/><path class="g" d="M26,218.4h-12.7l-1.8,6H0l13.6-36.3h12.2l13.6,36.3h-11.7l-1.8-6ZM23.6,210.6l-4-13-4,13h8Z"/><path class="g" d="M43.2,188.1h10.5l13.7,20.1v-20.1h10.6v36.3h-10.6l-13.6-19.9v19.9h-10.5v-36.3Z"/><path class="g" d="M85.5,188.1h16.7c3.3,0,5.9.4,8,1.3,2,.9,3.7,2.2,5,3.8,1.3,1.7,2.3,3.6,2.9,5.8.6,2.2.9,4.6.9,7,0,3.9-.4,6.9-1.3,9-.9,2.1-2.1,3.9-3.7,5.4-1.6,1.4-3.3,2.4-5.1,2.9-2.5.7-4.7,1-6.7,1h-16.7v-36.3ZM96.7,196.3v19.8h2.7c2.3,0,4-.3,5-.8,1-.5,1.8-1.4,2.3-2.7.6-1.3.8-3.4.8-6.3s-.6-6.5-1.9-7.9c-1.3-1.4-3.3-2.1-6.2-2.1h-2.8Z"/><path class="g" d="M3.6,249h11.2v27.4h17.5v8.9H3.6v-36.3Z"/><path class="g" d="M37.9,249h11.2v36.3h-11.2v-36.3Z"/><path class="g" d="M57.3,249h27.7v7.8h-16.5v6.3h14.1v7.3h-14.1v14.8h-11.3v-36.3Z"/><path class="g" d="M91,249h30.1v7.8h-18.8v5.8h17.5v7.4h-17.5v7.2h19.4v8.2h-30.6v-36.3Z"/><path class="g" d="M142.6,273.3l10.7-.7c.2,1.7.7,3.1,1.4,4,1.2,1.5,2.8,2.2,5,2.2s2.8-.4,3.7-1.1c.9-.8,1.3-1.6,1.3-2.6s-.4-1.8-1.2-2.5c-.8-.7-2.7-1.4-5.7-2.1-4.9-1.1-8.4-2.6-10.5-4.4-2.1-1.8-3.2-4.2-3.2-7s.5-3.6,1.6-5.3c1.1-1.7,2.7-3,4.9-3.9s5.1-1.4,8.9-1.4,8.2.9,10.6,2.6c2.4,1.7,3.9,4.5,4.3,8.2l-10.6.6c-.3-1.6-.9-2.8-1.8-3.6-.9-.7-2.1-1.1-3.7-1.1s-2.3.3-2.9.8c-.7.6-1,1.2-1,2s.3,1.1.8,1.6c.5.5,1.8.9,3.8,1.3,4.9,1.1,8.4,2.1,10.5,3.2,2.1,1.1,3.7,2.4,4.6,4,1,1.6,1.4,3.4,1.4,5.4s-.6,4.5-1.9,6.4c-1.3,2-3.1,3.5-5.4,4.5-2.3,1-5.2,1.5-8.7,1.5-6.2,0-10.4-1.2-12.8-3.6-2.4-2.4-3.7-5.4-4-9.1Z"/><path class="g" d="M205.4,270.4l9.8,3c-.7,2.8-1.7,5.1-3.1,6.9-1.4,1.8-3.2,3.2-5.3,4.2-2.1.9-4.8,1.4-8,1.4s-7.2-.6-9.7-1.7-4.7-3.2-6.5-6.1c-1.8-2.9-2.7-6.6-2.7-11.1s1.6-10.6,4.8-13.8,7.7-4.8,13.6-4.8,8.2.9,10.8,2.8,4.6,4.7,5.8,8.5l-9.9,2.2c-.3-1.1-.7-1.9-1.1-2.4-.6-.9-1.4-1.5-2.3-2-.9-.5-1.9-.7-3-.7-2.5,0-4.5,1-5.8,3.1-1,1.5-1.5,3.9-1.5,7.1s.6,6.8,1.8,8.3c1.2,1.5,2.9,2.2,5.2,2.2s3.8-.6,4.9-1.8c1.1-1.2,1.9-3,2.4-5.2Z"/><path class="g" d="M221.1,249h11.2v36.3h-11.2v-36.3Z"/><path class="g" d="M240.3,249h30.1v7.8h-18.8v5.8h17.5v7.4h-17.5v7.2h19.4v8.2h-30.6v-36.3Z"/><path class="g" d="M277.1,249h10.5l13.7,20.1v-20.1h10.6v36.3h-10.6l-13.6-19.9v19.9h-10.5v-36.3Z"/><path class="g" d="M343.4,270.4l9.8,3c-.7,2.8-1.7,5.1-3.1,6.9-1.4,1.8-3.2,3.2-5.3,4.2-2.1.9-4.8,1.4-8,1.4s-7.2-.6-9.7-1.7-4.7-3.2-6.5-6.1c-1.8-2.9-2.7-6.6-2.7-11.1s1.6-10.6,4.8-13.8,7.7-4.8,13.6-4.8,8.2.9,10.8,2.8c2.6,1.8,4.6,4.7,5.8,8.5l-9.9,2.2c-.3-1.1-.7-1.9-1.1-2.4-.6-.9-1.4-1.5-2.3-2-.9-.5-1.9-.7-3-.7-2.5,0-4.5,1-5.8,3.1-1,1.5-1.5,3.9-1.5,7.1s.6,6.8,1.8,8.3c1.2,1.5,2.9,2.2,5.2,2.2s3.8-.6,4.9-1.8c1.1-1.2,1.9-3,2.4-5.2Z"/><path class="g" d="M358.7,249h30.1v7.8h-18.8v5.8h17.5v7.4h-17.5v7.2h19.4v8.2h-30.6v-36.3Z"/><path class="g" d="M3.8,346.1v-36.3h18.7c3.5,0,6.1.3,7.9.9,1.8.6,3.3,1.7,4.4,3.3,1.1,1.6,1.7,3.6,1.7,5.9s-.4,3.8-1.3,5.2-2,2.6-3.5,3.6c-1,.6-2.3,1.1-3.9,1.4,1.3.4,2.3.9,2.9,1.3.4.3,1,.9,1.8,1.9s1.3,1.7,1.6,2.3l5.4,10.5h-12.7l-6-11.1c-.8-1.4-1.4-2.4-2-2.8-.8-.6-1.7-.8-2.7-.8h-1v14.7H3.8ZM15.1,324.5h4.7c.5,0,1.5-.2,3-.5.7-.1,1.3-.5,1.8-1.1.5-.6.7-1.3.7-2.1,0-1.2-.4-2.1-1.1-2.7-.7-.6-2.1-.9-4.2-.9h-4.9v7.4Z"/><path class="g" d="M43.1,309.8h30.1v7.8h-18.8v5.8h17.5v7.4h-17.5v7.2h19.4v8.2h-30.6v-36.3Z"/><path class="g" d="M77.8,334.1l10.7-.7c.2,1.7.7,3.1,1.4,4,1.2,1.5,2.8,2.2,5,2.2s2.8-.4,3.7-1.1c.9-.8,1.3-1.6,1.3-2.6s-.4-1.8-1.2-2.5c-.8-.7-2.7-1.4-5.7-2.1-4.9-1.1-8.4-2.6-10.5-4.4-2.1-1.8-3.2-4.2-3.2-7s.5-3.6,1.6-5.3c1.1-1.7,2.7-3,4.9-3.9s5.1-1.4,8.9-1.4,8.2.9,10.6,2.6c2.4,1.7,3.9,4.5,4.3,8.2l-10.6.6c-.3-1.6-.9-2.8-1.8-3.6-.9-.7-2.1-1.1-3.7-1.1s-2.3.3-2.9.8c-.7.6-1,1.2-1,2s.3,1.1.8,1.6c.5.5,1.8.9,3.8,1.3,4.9,1.1,8.4,2.1,10.5,3.2,2.1,1.1,3.7,2.4,4.6,4,1,1.6,1.4,3.4,1.4,5.4s-.6,4.5-1.9,6.4c-1.3,2-3.1,3.5-5.4,4.5-2.3,1-5.2,1.5-8.7,1.5-6.2,0-10.4-1.2-12.8-3.6-2.4-2.4-3.7-5.4-4-9.1Z"/><path class="g" d="M116.3,309.8h30.1v7.8h-18.8v5.8h17.5v7.4h-17.5v7.2h19.4v8.2h-30.6v-36.3Z"/><path class="g" d="M175.3,340.1h-12.7l-1.8,6h-11.5l13.6-36.3h12.2l13.6,36.3h-11.7l-1.8-6ZM172.9,332.3l-4-13.1-4,13.1h8Z"/><path class="g" d="M192.6,346.1v-36.3h18.7c3.5,0,6.1.3,7.9.9,1.8.6,3.3,1.7,4.4,3.3,1.1,1.6,1.7,3.6,1.7,5.9s-.4,3.8-1.3,5.2c-.9,1.5-2,2.6-3.5,3.6-1,.6-2.3,1.1-3.9,1.4,1.3.4,2.3.9,2.9,1.3.4.3,1,.9,1.8,1.9.8,1,1.3,1.7,1.6,2.3l5.4,10.5h-12.7l-6-11.1c-.8-1.4-1.4-2.4-2-2.8-.8-.6-1.7-.8-2.7-.8h-1v14.7h-11.3ZM203.8,324.5h4.7c.5,0,1.5-.2,3-.5.7-.1,1.3-.5,1.8-1.1.5-.6.7-1.3.7-2.1,0-1.2-.4-2.1-1.1-2.7-.7-.6-2.1-.9-4.2-.9h-4.9v7.4Z"/><path class="g" d="M255.1,331.3l9.8,3c-.7,2.8-1.7,5.1-3.1,6.9-1.4,1.8-3.2,3.2-5.3,4.2-2.1.9-4.8,1.4-8,1.4s-7.2-.6-9.7-1.7-4.7-3.2-6.5-6.1c-1.8-2.9-2.7-6.6-2.7-11.1s1.6-10.6,4.8-13.8,7.7-4.8,13.6-4.8,8.2.9,10.8,2.8c2.6,1.8,4.6,4.7,5.8,8.5l-9.9,2.2c-.3-1.1-.7-1.9-1.1-2.4-.6-.9-1.4-1.5-2.3-2-.9-.5-1.9-.7-3-.7-2.5,0-4.5,1-5.8,3.1-1,1.5-1.5,3.9-1.5,7.1s.6,6.8,1.8,8.3,2.9,2.2,5.2,2.2,3.8-.6,4.9-1.8c1.1-1.2,1.9-3,2.4-5.2Z"/><path class="g" d="M270.4,309.8h11.2v12.7h12.3v-12.7h11.3v36.3h-11.3v-14.7h-12.3v14.7h-11.2v-36.3Z"/></g></g></g></svg>