<?xml version="1.0" encoding="UTF-8"?>
<svg id="b" xmlns="http://www.w3.org/2000/svg" version="1.1" viewBox="0 0 380.9 405.1">
  <!-- Generator: Adobe Illustrator 30.1.0, SVG Export Plug-In . SVG Version: 2.1.1 Build 136)  -->
  <defs>
    <style>
      .st0 {
        opacity: .7;
      }

      .st0, .st1, .st2, .st3, .st4, .st5, .st6, .st7, .st8, .st9 {
        isolation: isolate;
      }

      .st1, .st2 {
        font-size: 11.88px;
      }

      .st1, .st2, .st5, .st8 {
        font-family: KozGoPr6N-Regular-83pv-RKSJ-H, 'Kozuka Gothic Pr6N';
      }

      .st1, .st3, .st5, .st10, .st9 {
        fill: #a2a2a2;
      }

      .st2, .st11, .st6, .st7, .st8 {
        fill: #fff;
      }

      .st3, .st6 {
        font-size: 17.82px;
      }

      .st3, .st6, .st7, .st9 {
        font-family: ArialMT, Arial;
      }

      .st5, .st8 {
        font-size: 15.27px;
      }

      .st7, .st9 {
        font-size: 33.94px;
      }
    </style>
  </defs>
  <g id="c">
    <g class="st4">
      <g class="st4">
        <g class="st4">
          <path class="st10" d="M42.79,63.88c4.88-4.86,7.64-7.79,7.64-10.43,0-1.85-1.01-3.17-3.08-3.17-1.36,0-2.53.86-3.45,1.95l-1.22-1.18c1.36-1.49,2.82-2.47,4.92-2.47,3,0,4.87,1.89,4.87,4.78,0,3.05-2.8,6.07-6.63,10.1.88-.07,1.89-.14,2.73-.14h4.69v1.8h-10.49v-1.24h.02Z"/>
          <path class="st10" d="M56.52,52.75h1.73l.18,1.78h.07c1.18-1.16,2.45-2.09,4.15-2.09,2.61,0,3.78,1.68,3.78,4.84v7.84h-2.09v-7.57c0-2.3-.7-3.29-2.33-3.29-1.26,0-2.14.65-3.38,1.9v8.96h-2.09v-12.37h-.02Z"/>
          <path class="st10" d="M69.56,58.95c0-4.01,2.53-6.51,5.35-6.51,1.44,0,2.38.54,3.47,1.43l-.09-2.12v-4.77h2.09v18.13h-1.73l-.18-1.46h-.07c-.96.96-2.28,1.77-3.75,1.77-3.09,0-5.1-2.35-5.1-6.48h0ZM78.29,61.98v-6.48c-1.06-.94-2.01-1.29-3.02-1.29-1.98,0-3.55,1.91-3.55,4.73,0,2.97,1.23,4.73,3.4,4.73,1.14,0,2.14-.56,3.17-1.69Z"/>
        </g>
      </g>
    </g>
    <g class="st0">
      <g class="st4">
        <g class="st4">
          <path class="st10" d="M45.24,81.17h9.63v1.8h-7.51v5.63h6.37v1.8h-6.37v7.47h-2.13v-16.7h0Z"/>
          <path class="st10" d="M62.9,81.17h5.23c3.4,0,5.85,1.22,5.85,4.7s-2.44,4.94-5.85,4.94h-3.11v7.06h-2.13v-16.7h.01ZM67.83,89.09c2.6,0,4.03-1.05,4.03-3.22s-1.43-2.98-4.03-2.98h-2.8v6.2s2.8,0,2.8,0ZM67.72,90.23l1.67-1.1,5.1,8.74h-2.41l-4.35-7.64h0Z"/>
          <path class="st10" d="M81.51,89.46c0-5.35,2.94-8.6,7.14-8.6s7.14,3.26,7.14,8.6-2.94,8.72-7.14,8.72-7.14-3.37-7.14-8.72ZM93.59,89.46c0-4.16-1.96-6.73-4.94-6.73s-4.94,2.57-4.94,6.73,1.96,6.85,4.94,6.85,4.94-2.69,4.94-6.85Z"/>
          <path class="st10" d="M104.46,81.17h2.2l6.05,10.5,1.8,3.46h.1c-.11-1.69-.27-3.57-.27-5.31v-8.65h2.02v16.7h-2.2l-6.05-10.51-1.8-3.45h-.1c.11,1.69.27,3.47.27,5.22v8.74h-2.02v-16.7Z"/>
          <path class="st10" d="M129.5,82.96h-5.05v-1.8h12.23v1.8h-5.05v14.91h-2.13s0-14.91,0-14.91Z"/>
          <path class="st10" d="M144.75,81.17h2.13v16.7h-2.13v-16.7Z"/>
          <path class="st10" d="M156.53,81.17h9.63v1.8h-7.5v5.23h6.33v1.8h-6.33v6.07h7.76v1.8h-9.88v-16.7h0Z"/>
          <path class="st10" d="M175.04,81.17h5.23c3.4,0,5.85,1.22,5.85,4.7s-2.44,4.94-5.85,4.94h-3.11v7.06h-2.13v-16.7h.01ZM179.96,89.09c2.6,0,4.03-1.05,4.03-3.22s-1.43-2.98-4.03-2.98h-2.8v6.2s2.8,0,2.8,0ZM179.85,90.23l1.67-1.1,5.1,8.74h-2.41l-4.35-7.64h0Z"/>
          <path class="st10" d="M193.39,95.7l1.27-1.46c1.2,1.25,2.87,2.07,4.61,2.07,2.19,0,3.49-1.09,3.49-2.71,0-1.71-1.21-2.25-2.79-2.94l-2.4-1.06c-1.56-.66-3.38-1.84-3.38-4.3s2.22-4.43,5.26-4.43c1.98,0,3.75.86,4.92,2.07l-1.13,1.37c-1.02-.97-2.25-1.57-3.79-1.57-1.87,0-3.11.94-3.11,2.44,0,1.61,1.46,2.21,2.77,2.76l2.38,1.03c1.93.83,3.44,1.98,3.44,4.47,0,2.64-2.18,4.75-5.69,4.75-2.34,0-4.38-.96-5.84-2.48h-.01Z"/>
          <path class="st10" d="M222.5,89.46c0-5.35,2.94-8.6,7.14-8.6s7.14,3.26,7.14,8.6-2.94,8.72-7.14,8.72-7.14-3.37-7.14-8.72ZM234.58,89.46c0-4.16-1.96-6.73-4.94-6.73s-4.94,2.57-4.94,6.73,1.96,6.85,4.94,6.85,4.94-2.69,4.94-6.85Z"/>
          <path class="st10" d="M245.45,81.17h9.63v1.8h-7.51v5.63h6.37v1.8h-6.37v7.47h-2.13v-16.7h0Z"/>
        </g>
      </g>
      <g class="st4">
        <g class="st4">
          <path class="st10" d="M45.24,111.71h4.18c5.14,0,7.89,2.98,7.89,8.29s-2.75,8.41-7.8,8.41h-4.27v-16.7ZM49.26,126.67c3.9,0,5.85-2.45,5.85-6.67s-1.95-6.55-5.85-6.55h-1.9v13.22h1.9Z"/>
          <path class="st10" d="M69.42,111.71h2.4l5.65,16.7h-2.25l-2.91-9.33c-.6-1.87-1.14-3.7-1.67-5.63h-.1c-.52,1.94-1.05,3.76-1.65,5.63l-2.94,9.33h-2.16l5.65-16.7h-.02ZM66.74,121.63h7.69v1.7h-7.69v-1.7Z"/>
          <path class="st10" d="M88.29,113.5h-5.05v-1.8h12.23v1.8h-5.05v14.91h-2.13s0-14.91,0-14.91Z"/>
          <path class="st10" d="M106.98,111.71h2.4l5.65,16.7h-2.25l-2.91-9.33c-.6-1.87-1.14-3.7-1.67-5.63h-.1c-.52,1.94-1.05,3.76-1.65,5.63l-2.94,9.33h-2.16l5.65-16.7h-.02ZM104.3,121.63h7.69v1.7h-7.69v-1.7Z"/>
          <path class="st10" d="M131.35,126.24l1.27-1.46c1.2,1.25,2.87,2.07,4.61,2.07,2.19,0,3.49-1.09,3.49-2.71,0-1.71-1.21-2.25-2.79-2.94l-2.4-1.06c-1.56-.66-3.38-1.84-3.38-4.3s2.22-4.43,5.26-4.43c1.98,0,3.75.86,4.92,2.07l-1.13,1.37c-1.02-.97-2.25-1.57-3.79-1.57-1.87,0-3.11.94-3.11,2.44,0,1.61,1.46,2.21,2.77,2.76l2.38,1.03c1.93.83,3.44,1.98,3.44,4.47,0,2.64-2.18,4.75-5.69,4.75-2.34,0-4.38-.96-5.84-2.48h0Z"/>
          <path class="st10" d="M150.27,120.07c0-5.39,3.17-8.67,7.41-8.67,2.03,0,3.62.99,4.59,2.06l-1.16,1.38c-.88-.94-1.98-1.58-3.39-1.58-3.16,0-5.25,2.58-5.25,6.75s2,6.83,5.17,6.83c1.59,0,2.81-.69,3.87-1.88l1.17,1.33c-1.32,1.53-2.96,2.41-5.12,2.41-4.16,0-7.28-3.22-7.28-8.64h0Z"/>
          <path class="st10" d="M170.86,111.71h2.13v16.7h-2.13v-16.7Z"/>
          <path class="st10" d="M182.65,111.71h9.63v1.8h-7.5v5.23h6.33v1.8h-6.33v6.07h7.76v1.8h-9.88v-16.7h0Z"/>
          <path class="st10" d="M201.15,111.71h2.2l6.05,10.5,1.8,3.46h.1c-.11-1.69-.27-3.57-.27-5.31v-8.65h2.02v16.7h-2.2l-6.05-10.51-1.8-3.45h-.1c.11,1.69.27,3.47.27,5.22v8.74h-2.02v-16.7Z"/>
          <path class="st10" d="M221.73,120.07c0-5.39,3.17-8.67,7.41-8.67,2.03,0,3.62.99,4.59,2.06l-1.17,1.38c-.88-.94-1.98-1.58-3.39-1.58-3.16,0-5.25,2.58-5.25,6.75s2,6.83,5.17,6.83c1.59,0,2.8-.69,3.87-1.88l1.17,1.33c-1.32,1.53-2.96,2.41-5.12,2.41-4.16,0-7.28-3.22-7.28-8.64h0Z"/>
          <path class="st10" d="M242.32,111.71h9.63v1.8h-7.5v5.23h6.33v1.8h-6.33v6.07h7.76v1.8h-9.88v-16.7h0Z"/>
          <path class="st10" d="M274.44,111.71h2.4l5.65,16.7h-2.25l-2.91-9.33c-.6-1.87-1.14-3.7-1.67-5.63h-.1c-.52,1.94-1.05,3.76-1.65,5.63l-2.94,9.33h-2.16l5.65-16.7h-.02ZM271.76,121.63h7.69v1.7h-7.69v-1.7Z"/>
          <path class="st10" d="M289.84,111.71h2.2l6.05,10.5,1.8,3.46h.1c-.11-1.69-.27-3.57-.27-5.31v-8.65h2.02v16.7h-2.2l-6.05-10.51-1.8-3.45h-.1c.11,1.69.27,3.47.27,5.22v8.74h-2.02v-16.7Z"/>
          <path class="st10" d="M311.39,111.71h4.18c5.14,0,7.89,2.98,7.89,8.29s-2.75,8.41-7.8,8.41h-4.27v-16.7h0ZM315.42,126.67c3.9,0,5.85-2.45,5.85-6.67s-1.95-6.55-5.85-6.55h-1.9v13.22h1.9Z"/>
        </g>
      </g>
      <g class="st4">
        <g class="st4">
          <path class="st10" d="M45.24,142.26h2.13v14.91h7.29v1.8h-9.42v-16.7h0Z"/>
          <path class="st10" d="M62.7,142.26h2.13v16.7h-2.13v-16.7Z"/>
          <path class="st10" d="M74.48,142.26h9.63v1.8h-7.51v5.63h6.37v1.8h-6.37v7.47h-2.13v-16.7h0Z"/>
          <path class="st10" d="M92.15,142.26h9.63v1.8h-7.5v5.23h6.33v1.8h-6.33v6.07h7.76v1.8h-9.88v-16.7h-.01Z"/>
          <path class="st10" d="M119.62,156.79l1.27-1.46c1.2,1.25,2.87,2.07,4.61,2.07,2.19,0,3.49-1.09,3.49-2.71,0-1.71-1.21-2.25-2.79-2.94l-2.4-1.06c-1.56-.66-3.38-1.84-3.38-4.3s2.22-4.43,5.26-4.43c1.98,0,3.75.86,4.92,2.07l-1.13,1.37c-1.02-.97-2.25-1.57-3.79-1.57-1.87,0-3.11.94-3.11,2.44,0,1.61,1.46,2.21,2.77,2.76l2.38,1.03c1.93.83,3.44,1.98,3.44,4.47,0,2.64-2.18,4.75-5.69,4.75-2.34,0-4.38-.96-5.84-2.48h0Z"/>
          <path class="st10" d="M138.54,150.62c0-5.39,3.17-8.67,7.41-8.67,2.03,0,3.62.99,4.59,2.06l-1.16,1.38c-.88-.94-1.98-1.58-3.39-1.58-3.16,0-5.25,2.58-5.25,6.75s2,6.83,5.17,6.83c1.59,0,2.81-.69,3.87-1.88l1.17,1.33c-1.32,1.53-2.96,2.41-5.12,2.41-4.16,0-7.28-3.22-7.28-8.64h0Z"/>
          <path class="st10" d="M159.13,142.26h2.13v16.7h-2.13v-16.7Z"/>
          <path class="st10" d="M170.91,142.26h9.63v1.8h-7.5v5.23h6.33v1.8h-6.33v6.07h7.76v1.8h-9.88v-16.7h0Z"/>
          <path class="st10" d="M189.41,142.26h2.2l6.05,10.5,1.8,3.46h.1c-.11-1.69-.27-3.57-.27-5.31v-8.65h2.02v16.7h-2.2l-6.05-10.51-1.8-3.45h-.1c.11,1.69.27,3.47.27,5.22v8.74h-2.02v-16.7h0Z"/>
          <path class="st10" d="M210,150.62c0-5.39,3.17-8.67,7.41-8.67,2.03,0,3.62.99,4.59,2.06l-1.16,1.38c-.88-.94-1.98-1.58-3.39-1.58-3.16,0-5.25,2.58-5.25,6.75s2,6.83,5.17,6.83c1.59,0,2.81-.69,3.87-1.88l1.17,1.33c-1.32,1.53-2.96,2.41-5.13,2.41-4.16,0-7.28-3.22-7.28-8.64h0Z"/>
          <path class="st10" d="M230.59,142.26h9.63v1.8h-7.5v5.23h6.33v1.8h-6.33v6.07h7.76v1.8h-9.88v-16.7h0Z"/>
        </g>
      </g>
      <g class="st4">
        <g class="st4">
          <path class="st10" d="M45.24,172.8h5.23c3.4,0,5.85,1.22,5.85,4.7s-2.44,4.94-5.85,4.94h-3.11v7.06h-2.13v-16.7h.01ZM50.17,180.71c2.6,0,4.03-1.05,4.03-3.22s-1.43-2.98-4.03-2.98h-2.8v6.2h2.8ZM50.06,181.86l1.67-1.1,5.1,8.74h-2.41l-4.35-7.64h-.01Z"/>
          <path class="st10" d="M64.81,172.8h9.63v1.8h-7.5v5.23h6.33v1.8h-6.33v6.07h7.76v1.8h-9.88v-16.7h0Z"/>
          <path class="st10" d="M82.1,187.33l1.27-1.46c1.2,1.25,2.87,2.07,4.61,2.07,2.19,0,3.49-1.09,3.49-2.71,0-1.71-1.21-2.25-2.79-2.94l-2.4-1.06c-1.56-.66-3.38-1.84-3.38-4.3s2.22-4.43,5.26-4.43c1.98,0,3.75.86,4.92,2.07l-1.13,1.37c-1.02-.97-2.25-1.57-3.79-1.57-1.87,0-3.11.94-3.11,2.44,0,1.61,1.46,2.21,2.77,2.76l2.38,1.03c1.93.83,3.44,1.98,3.44,4.47,0,2.64-2.18,4.75-5.69,4.75-2.34,0-4.38-.96-5.84-2.48h0Z"/>
          <path class="st10" d="M102,172.8h9.63v1.8h-7.5v5.23h6.33v1.8h-6.33v6.07h7.76v1.8h-9.88v-16.7h-.01Z"/>
          <path class="st10" d="M123.93,172.8h2.4l5.65,16.7h-2.25l-2.91-9.33c-.6-1.87-1.14-3.7-1.67-5.63h-.1c-.52,1.94-1.05,3.76-1.65,5.63l-2.94,9.33h-2.16l5.65-16.7h-.02ZM121.25,182.71h7.69v1.7h-7.69v-1.7Z"/>
          <path class="st10" d="M139.33,172.8h5.23c3.4,0,5.85,1.22,5.85,4.7s-2.44,4.94-5.85,4.94h-3.11v7.06h-2.13v-16.7h0ZM144.26,180.71c2.6,0,4.03-1.05,4.03-3.22s-1.43-2.98-4.03-2.98h-2.8v6.2h2.8ZM144.14,181.86l1.67-1.1,5.1,8.74h-2.41l-4.35-7.64h0Z"/>
          <path class="st10" d="M157.93,181.16c0-5.39,3.17-8.67,7.41-8.67,2.03,0,3.62.99,4.59,2.06l-1.16,1.38c-.88-.94-1.98-1.58-3.39-1.58-3.16,0-5.25,2.58-5.25,6.75s2,6.83,5.17,6.83c1.59,0,2.81-.69,3.87-1.88l1.17,1.33c-1.32,1.53-2.96,2.41-5.12,2.41-4.16,0-7.28-3.22-7.28-8.64h0Z"/>
          <path class="st10" d="M178.52,172.8h2.13v7h7.77v-7h2.13v16.7h-2.13v-7.85h-7.77v7.85h-2.13v-16.7Z"/>
        </g>
      </g>
    </g>
    <g class="st4">
      <g class="st4">
        <g class="st4">
          <path class="st11" d="M41.69,62.43c4.88-4.86,7.64-7.79,7.64-10.43,0-1.85-1.01-3.17-3.08-3.17-1.36,0-2.53.86-3.45,1.95l-1.22-1.18c1.36-1.49,2.82-2.47,4.92-2.47,3,0,4.87,1.89,4.87,4.78,0,3.05-2.8,6.07-6.63,10.1.88-.07,1.89-.14,2.73-.14h4.69v1.8h-10.49v-1.24h.02Z"/>
          <path class="st11" d="M55.42,51.3h1.73l.18,1.78h.07c1.18-1.16,2.45-2.09,4.15-2.09,2.61,0,3.78,1.68,3.78,4.84v7.84h-2.09v-7.57c0-2.3-.7-3.29-2.33-3.29-1.26,0-2.14.65-3.38,1.9v8.96h-2.09v-12.37h-.02Z"/>
          <path class="st11" d="M68.46,57.5c0-4.01,2.53-6.51,5.35-6.51,1.44,0,2.38.54,3.47,1.43l-.09-2.12v-4.77h2.09v18.13h-1.73l-.18-1.46h-.07c-.96.96-2.28,1.77-3.75,1.77-3.09,0-5.1-2.35-5.1-6.48h0ZM77.19,60.53v-6.48c-1.06-.94-2.01-1.29-3.02-1.29-1.98,0-3.55,1.91-3.55,4.73,0,2.97,1.23,4.73,3.4,4.73,1.14,0,2.14-.56,3.17-1.69Z"/>
        </g>
      </g>
    </g>
    <g class="st4">
      <g class="st4">
        <g class="st4">
          <path class="st11" d="M44.23,79.73h9.63v1.8h-7.51v5.63h6.37v1.8h-6.37v7.47h-2.13v-16.7h0Z"/>
          <path class="st11" d="M61.89,79.73h5.23c3.4,0,5.85,1.22,5.85,4.7s-2.44,4.94-5.85,4.94h-3.11v7.06h-2.13v-16.7h.01ZM66.82,87.65c2.6,0,4.03-1.05,4.03-3.22s-1.43-2.98-4.03-2.98h-2.8v6.2s2.8,0,2.8,0ZM66.71,88.79l1.67-1.1,5.1,8.74h-2.41l-4.35-7.64h0Z"/>
          <path class="st11" d="M80.5,88.02c0-5.35,2.94-8.6,7.14-8.6s7.14,3.26,7.14,8.6-2.94,8.72-7.14,8.72-7.14-3.37-7.14-8.72ZM92.58,88.02c0-4.16-1.96-6.73-4.94-6.73s-4.94,2.57-4.94,6.73,1.96,6.85,4.94,6.85,4.94-2.69,4.94-6.85Z"/>
          <path class="st11" d="M103.45,79.73h2.2l6.05,10.5,1.8,3.46h.1c-.11-1.69-.27-3.57-.27-5.31v-8.65h2.02v16.7h-2.2l-6.05-10.51-1.8-3.45h-.1c.11,1.69.27,3.47.27,5.22v8.74h-2.02s0-16.7,0-16.7Z"/>
          <path class="st11" d="M128.49,81.52h-5.05v-1.8h12.23v1.8h-5.05v14.91h-2.13s0-14.91,0-14.91Z"/>
          <path class="st11" d="M143.74,79.73h2.13v16.7h-2.13v-16.7Z"/>
          <path class="st11" d="M155.52,79.73h9.63v1.8h-7.5v5.23h6.33v1.8h-6.33v6.07h7.76v1.8h-9.88v-16.7h0Z"/>
          <path class="st11" d="M174.03,79.73h5.23c3.4,0,5.85,1.22,5.85,4.7s-2.44,4.94-5.85,4.94h-3.11v7.06h-2.13v-16.7h.01ZM178.95,87.65c2.6,0,4.03-1.05,4.03-3.22s-1.43-2.98-4.03-2.98h-2.8v6.2s2.8,0,2.8,0ZM178.84,88.79l1.67-1.1,5.1,8.74h-2.41l-4.35-7.64h0Z"/>
          <path class="st11" d="M192.38,94.26l1.27-1.46c1.2,1.25,2.87,2.07,4.61,2.07,2.19,0,3.49-1.09,3.49-2.71,0-1.71-1.21-2.25-2.79-2.94l-2.4-1.06c-1.56-.66-3.38-1.84-3.38-4.3s2.22-4.43,5.26-4.43c1.98,0,3.75.86,4.92,2.07l-1.13,1.37c-1.02-.97-2.25-1.57-3.79-1.57-1.87,0-3.11.94-3.11,2.44,0,1.61,1.46,2.21,2.77,2.76l2.38,1.03c1.93.83,3.44,1.98,3.44,4.47,0,2.64-2.18,4.75-5.69,4.75-2.34,0-4.38-.96-5.84-2.48h-.01Z"/>
          <path class="st11" d="M221.49,88.02c0-5.35,2.94-8.6,7.14-8.6s7.14,3.26,7.14,8.6-2.94,8.72-7.14,8.72-7.14-3.37-7.14-8.72ZM233.57,88.02c0-4.16-1.96-6.73-4.94-6.73s-4.94,2.57-4.94,6.73,1.96,6.85,4.94,6.85,4.94-2.69,4.94-6.85Z"/>
          <path class="st11" d="M244.44,79.73h9.63v1.8h-7.51v5.63h6.37v1.8h-6.37v7.47h-2.13v-16.7h0Z"/>
        </g>
      </g>
      <g class="st4">
        <g class="st4">
          <path class="st11" d="M44.23,110.27h4.18c5.14,0,7.89,2.98,7.89,8.29s-2.75,8.41-7.8,8.41h-4.27s0-16.7,0-16.7ZM48.25,125.23c3.9,0,5.85-2.45,5.85-6.67s-1.95-6.55-5.85-6.55h-1.9v13.22h1.9Z"/>
          <path class="st11" d="M68.41,110.27h2.4l5.65,16.7h-2.25l-2.91-9.33c-.6-1.87-1.14-3.7-1.67-5.63h-.1c-.52,1.94-1.05,3.76-1.65,5.63l-2.94,9.33h-2.16l5.65-16.7h-.02ZM65.73,120.19h7.69v1.7h-7.69v-1.7Z"/>
          <path class="st11" d="M87.29,112.07h-5.05v-1.8h12.23v1.8h-5.05v14.91h-2.13s0-14.91,0-14.91Z"/>
          <path class="st11" d="M105.97,110.27h2.4l5.65,16.7h-2.25l-2.91-9.33c-.6-1.87-1.14-3.7-1.67-5.63h-.1c-.52,1.94-1.05,3.76-1.65,5.63l-2.94,9.33h-2.16l5.65-16.7h-.02ZM103.29,120.19h7.69v1.7h-7.69v-1.7Z"/>
          <path class="st11" d="M130.34,124.8l1.27-1.46c1.2,1.25,2.87,2.07,4.61,2.07,2.19,0,3.49-1.09,3.49-2.71,0-1.71-1.21-2.25-2.79-2.94l-2.4-1.06c-1.56-.66-3.38-1.84-3.38-4.3s2.22-4.43,5.26-4.43c1.98,0,3.75.86,4.92,2.07l-1.13,1.37c-1.02-.97-2.25-1.57-3.79-1.57-1.87,0-3.11.94-3.11,2.44,0,1.61,1.46,2.21,2.77,2.76l2.38,1.03c1.93.83,3.44,1.98,3.44,4.47,0,2.64-2.18,4.75-5.69,4.75-2.34,0-4.38-.96-5.84-2.48h0Z"/>
          <path class="st11" d="M149.26,118.63c0-5.39,3.17-8.67,7.41-8.67,2.03,0,3.62.99,4.59,2.06l-1.16,1.38c-.88-.94-1.98-1.58-3.39-1.58-3.16,0-5.25,2.58-5.25,6.75s2,6.83,5.17,6.83c1.59,0,2.81-.69,3.87-1.88l1.17,1.33c-1.32,1.53-2.96,2.41-5.12,2.41-4.16,0-7.28-3.22-7.28-8.64h0Z"/>
          <path class="st11" d="M169.85,110.27h2.13v16.7h-2.13v-16.7Z"/>
          <path class="st11" d="M181.64,110.27h9.63v1.8h-7.5v5.23h6.33v1.8h-6.33v6.07h7.76v1.8h-9.88v-16.7h0Z"/>
          <path class="st11" d="M200.14,110.27h2.2l6.05,10.5,1.8,3.46h.1c-.11-1.69-.27-3.57-.27-5.31v-8.65h2.02v16.7h-2.2l-6.05-10.51-1.8-3.45h-.1c.11,1.69.27,3.47.27,5.22v8.74h-2.02v-16.7Z"/>
          <path class="st11" d="M220.72,118.63c0-5.39,3.17-8.67,7.41-8.67,2.03,0,3.62.99,4.59,2.06l-1.16,1.38c-.88-.94-1.98-1.58-3.39-1.58-3.16,0-5.25,2.58-5.25,6.75s2,6.83,5.17,6.83c1.59,0,2.81-.69,3.87-1.88l1.17,1.33c-1.32,1.53-2.96,2.41-5.12,2.41-4.16,0-7.28-3.22-7.28-8.64h0Z"/>
          <path class="st11" d="M241.31,110.27h9.63v1.8h-7.5v5.23h6.33v1.8h-6.33v6.07h7.76v1.8h-9.88v-16.7h0Z"/>
          <path class="st11" d="M273.43,110.27h2.4l5.65,16.7h-2.25l-2.91-9.33c-.6-1.87-1.14-3.7-1.67-5.63h-.1c-.52,1.94-1.05,3.76-1.65,5.63l-2.95,9.33h-2.16l5.65-16.7h0ZM270.75,120.19h7.69v1.7h-7.69v-1.7Z"/>
          <path class="st11" d="M288.83,110.27h2.2l6.05,10.5,1.8,3.46h.1c-.11-1.69-.27-3.57-.27-5.31v-8.65h2.02v16.7h-2.2l-6.05-10.51-1.8-3.45h-.1c.11,1.69.27,3.47.27,5.22v8.74h-2.02v-16.7Z"/>
          <path class="st11" d="M310.39,110.27h4.18c5.14,0,7.89,2.98,7.89,8.29s-2.75,8.41-7.8,8.41h-4.27v-16.7h0ZM314.41,125.23c3.91,0,5.85-2.45,5.85-6.67s-1.95-6.55-5.85-6.55h-1.89v13.22h1.89Z"/>
        </g>
      </g>
      <g class="st4">
        <g class="st4">
          <path class="st11" d="M44.23,140.82h2.13v14.91h7.29v1.8h-9.42v-16.7h0Z"/>
          <path class="st11" d="M61.69,140.82h2.13v16.7h-2.13v-16.7Z"/>
          <path class="st11" d="M73.47,140.82h9.63v1.8h-7.51v5.63h6.37v1.8h-6.37v7.47h-2.13v-16.7h.01Z"/>
          <path class="st11" d="M91.14,140.82h9.63v1.8h-7.5v5.23h6.33v1.8h-6.33v6.07h7.76v1.8h-9.88v-16.7h0Z"/>
          <path class="st11" d="M118.61,155.35l1.27-1.46c1.2,1.25,2.87,2.07,4.61,2.07,2.19,0,3.49-1.09,3.49-2.71,0-1.71-1.21-2.25-2.79-2.94l-2.4-1.06c-1.56-.66-3.38-1.84-3.38-4.3s2.22-4.43,5.26-4.43c1.98,0,3.75.86,4.92,2.07l-1.13,1.37c-1.02-.97-2.25-1.57-3.79-1.57-1.87,0-3.11.94-3.11,2.44,0,1.61,1.46,2.21,2.77,2.76l2.38,1.03c1.93.83,3.44,1.98,3.44,4.47,0,2.64-2.18,4.75-5.69,4.75-2.34,0-4.38-.96-5.84-2.48h0Z"/>
          <path class="st11" d="M137.53,149.18c0-5.39,3.17-8.67,7.41-8.67,2.03,0,3.62.99,4.59,2.06l-1.16,1.38c-.88-.94-1.98-1.58-3.39-1.58-3.16,0-5.25,2.58-5.25,6.75s2,6.83,5.17,6.83c1.59,0,2.81-.69,3.87-1.88l1.17,1.33c-1.32,1.53-2.96,2.41-5.12,2.41-4.16,0-7.28-3.22-7.28-8.64h0Z"/>
          <path class="st11" d="M158.12,140.82h2.13v16.7h-2.13v-16.7Z"/>
          <path class="st11" d="M169.9,140.82h9.63v1.8h-7.5v5.23h6.33v1.8h-6.33v6.07h7.76v1.8h-9.88v-16.7h0Z"/>
          <path class="st11" d="M188.4,140.82h2.2l6.05,10.5,1.8,3.46h.1c-.11-1.69-.27-3.57-.27-5.31v-8.65h2.02v16.7h-2.2l-6.05-10.51-1.8-3.45h-.1c.11,1.69.27,3.47.27,5.22v8.74h-2.02v-16.7h0Z"/>
          <path class="st11" d="M208.99,149.18c0-5.39,3.17-8.67,7.41-8.67,2.03,0,3.62.99,4.59,2.06l-1.17,1.38c-.88-.94-1.98-1.58-3.39-1.58-3.16,0-5.25,2.58-5.25,6.75s2,6.83,5.17,6.83c1.59,0,2.81-.69,3.87-1.88l1.17,1.33c-1.32,1.53-2.95,2.41-5.12,2.41-4.16,0-7.28-3.22-7.28-8.64h0Z"/>
          <path class="st11" d="M229.58,140.82h9.63v1.8h-7.5v5.23h6.33v1.8h-6.33v6.07h7.76v1.8h-9.88v-16.7h0Z"/>
        </g>
      </g>
      <g class="st4">
        <g class="st4">
          <path class="st11" d="M44.23,171.36h5.23c3.4,0,5.85,1.22,5.85,4.7s-2.44,4.94-5.85,4.94h-3.11v7.06h-2.13v-16.7h.01ZM49.16,179.27c2.6,0,4.03-1.05,4.03-3.22s-1.43-2.98-4.03-2.98h-2.8v6.2h2.8ZM49.05,180.42l1.67-1.1,5.1,8.74h-2.41l-4.35-7.64h-.01Z"/>
          <path class="st11" d="M63.8,171.36h9.63v1.8h-7.5v5.23h6.33v1.8h-6.33v6.07h7.76v1.8h-9.88v-16.7h-.01Z"/>
          <path class="st11" d="M81.09,185.89l1.27-1.46c1.2,1.25,2.87,2.07,4.61,2.07,2.19,0,3.49-1.09,3.49-2.71,0-1.71-1.21-2.25-2.79-2.94l-2.4-1.06c-1.56-.66-3.38-1.84-3.38-4.3s2.22-4.43,5.26-4.43c1.98,0,3.75.86,4.92,2.07l-1.13,1.37c-1.02-.97-2.25-1.57-3.79-1.57-1.87,0-3.11.94-3.11,2.44,0,1.61,1.46,2.21,2.77,2.76l2.38,1.03c1.93.83,3.44,1.98,3.44,4.47,0,2.64-2.18,4.75-5.69,4.75-2.34,0-4.38-.96-5.84-2.48h0Z"/>
          <path class="st11" d="M100.99,171.36h9.63v1.8h-7.5v5.23h6.33v1.8h-6.33v6.07h7.76v1.8h-9.88v-16.7h-.01Z"/>
          <path class="st11" d="M122.92,171.36h2.4l5.65,16.7h-2.25l-2.91-9.33c-.6-1.87-1.14-3.7-1.67-5.63h-.1c-.52,1.94-1.05,3.76-1.65,5.63l-2.94,9.33h-2.16l5.65-16.7h-.02ZM120.24,181.27h7.69v1.7h-7.69v-1.7Z"/>
          <path class="st11" d="M138.32,171.36h5.23c3.4,0,5.85,1.22,5.85,4.7s-2.44,4.94-5.85,4.94h-3.11v7.06h-2.13v-16.7h0ZM143.25,179.27c2.6,0,4.03-1.05,4.03-3.22s-1.43-2.98-4.03-2.98h-2.8v6.2h2.8ZM143.13,180.42l1.67-1.1,5.1,8.74h-2.41l-4.35-7.64h0Z"/>
          <path class="st11" d="M156.92,179.72c0-5.39,3.17-8.67,7.41-8.67,2.03,0,3.62.99,4.59,2.06l-1.16,1.38c-.88-.94-1.98-1.58-3.39-1.58-3.16,0-5.25,2.58-5.25,6.75s2,6.83,5.17,6.83c1.59,0,2.81-.69,3.87-1.88l1.17,1.33c-1.32,1.53-2.96,2.41-5.12,2.41-4.16,0-7.28-3.22-7.28-8.64h0Z"/>
          <path class="st11" d="M177.51,171.36h2.13v7h7.77v-7h2.13v16.7h-2.13v-7.85h-7.77v7.85h-2.13v-16.7Z"/>
        </g>
      </g>
    </g>
    <g class="st4">
      <g class="st4">
        <g class="st4">
          <text class="st5" transform="translate(41.95 227.09)"><tspan x="0" y="0">第二回</tspan></text>
        </g>
      </g>
    </g>
    <g class="st4">
      <g class="st4">
        <g class="st4">
          <text class="st5" transform="translate(41.95 250.59)"><tspan x="0" y="0">データサイエンスと</tspan></text>
        </g>
      </g>
    </g>
    <g class="st4">
      <g class="st4">
        <g class="st4">
          <text class="st5" transform="translate(42.37 274.78)"><tspan x="0" y="0">生命医科学研究の</tspan></text>
        </g>
      </g>
    </g>
    <g class="st4">
      <g class="st4">
        <g class="st4">
          <text class="st5" transform="translate(42.37 301.25)"><tspan x="0" y="0">フロンティア</tspan></text>
        </g>
      </g>
    </g>
    <g class="st4">
      <g class="st4">
        <g class="st4">
          <text class="st8" transform="translate(41.27 226.41)"><tspan x="0" y="0">第二回</tspan></text>
        </g>
      </g>
    </g>
    <g class="st4">
      <g class="st4">
        <g class="st4">
          <text class="st8" transform="translate(41.27 249.92)"><tspan x="0" y="0">データサイエンスと</tspan></text>
        </g>
      </g>
    </g>
    <g class="st4">
      <g class="st4">
        <g class="st4">
          <text class="st8" transform="translate(41.78 274.1)"><tspan x="0" y="0">生命医科学研究の</tspan></text>
        </g>
      </g>
    </g>
    <g class="st4">
      <g class="st4">
        <g class="st4">
          <text class="st8" transform="translate(41.78 300.57)"><tspan x="0" y="0">フロンティア</tspan></text>
        </g>
      </g>
    </g>
    <g class="st4">
      <g class="st4">
        <g class="st4">
          <text class="st1" transform="translate(41.95 381.01)"><tspan x="0" y="0">東京大学</tspan></text>
        </g>
        <g class="st4">
          <text class="st1" transform="translate(92.77 381.01)"><tspan x="0" y="0">医学部</tspan></text>
        </g>
        <g class="st4">
          <text class="st1" transform="translate(131.7 381.01)"><tspan x="0" y="0">鉄門記念講堂</tspan></text>
        </g>
      </g>
    </g>
    <g class="st4">
      <g class="st4">
        <g class="st4">
          <text class="st3" transform="translate(42.12 354.53)"><tspan x="0" y="0">2026</tspan></text>
        </g>
      </g>
    </g>
    <g class="st4">
      <g class="st4">
        <g class="st4">
          <text class="st9" transform="translate(91.79 354.62)"><tspan x="0" y="0">3.16</tspan></text>
        </g>
      </g>
    </g>
    <g class="st4">
      <g class="st4">
        <g class="st4">
          <text class="st9" transform="translate(160.12 354.62)"><tspan x="0" y="0">-</tspan></text>
        </g>
      </g>
    </g>
    <g class="st4">
      <g class="st4">
        <g class="st4">
          <text class="st9" transform="translate(173.9 354.62)"><tspan x="0" y="0">17</tspan></text>
        </g>
      </g>
    </g>
    <g class="st4">
      <g class="st4">
        <g class="st4">
          <text class="st2" transform="translate(41.78 380.67)"><tspan x="0" y="0">東京大学</tspan></text>
        </g>
        <g class="st4">
          <text class="st2" transform="translate(92.6 380.67)"><tspan x="0" y="0">医学部</tspan></text>
        </g>
        <g class="st4">
          <text class="st2" transform="translate(131.53 380.67)"><tspan x="0" y="0">鉄門記念講堂</tspan></text>
        </g>
      </g>
    </g>
    <g class="st4">
      <g class="st4">
        <g class="st4">
          <text class="st6" transform="translate(41.7 354.19)"><tspan x="0" y="0">2026</tspan></text>
        </g>
      </g>
    </g>
    <g class="st4">
      <g class="st4">
        <g class="st4">
          <text class="st7" transform="translate(91.2 353.69)"><tspan x="0" y="0">3.16</tspan></text>
        </g>
      </g>
    </g>
    <g class="st4">
      <g class="st4">
        <g class="st4">
          <text class="st7" transform="translate(159.11 353.77)"><tspan x="0" y="0">-</tspan></text>
        </g>
      </g>
    </g>
    <g class="st4">
      <g class="st4">
        <g class="st4">
          <text class="st7" transform="translate(172.88 353.77)"><tspan x="0" y="0">17</tspan></text>
        </g>
      </g>
    </g>
  </g>
</svg>