<?xml version="1.0" encoding="UTF-8"?><svg id="b" xmlns="http://www.w3.org/2000/svg" viewBox="0 0 465.4 405.1"><defs><style>.d,.e,.f,.g,.h,.i,.j,.k,.l,.m{font-family:KozGoPr6N-Regular-83pv-RKSJ-H, 'Kozuka Gothic Pr6N';}.d,.e,.f,.g,.l{fill:#a2a2a2;}.d,.m{font-size:40px;}.e,.i{font-size:21px;}.f,.j{font-size:14px;}.g,.k{font-size:30px;}.g,.l{opacity:.7;}.h,.i,.j,.k,.m{fill:#fff;}.h,.l{font-size:18px;}</style></defs><g id="c"><text class="g" transform="translate(1.3 28.1)"><tspan x="0" y="0">2nd</tspan></text><text class="g" transform="translate(2.7 66.7)"><tspan x="0" y="0" xml:space="preserve">F R O N T I E R S   O F </tspan><tspan x="0" y="36" xml:space="preserve">D A T A   S C I E N C E   A N D </tspan><tspan x="0" y="72" xml:space="preserve">L I F E   S C I E N C E   R E S E A R C H</tspan></text><text class="k" transform="translate(0 26.4)"><tspan x="0" y="0">2nd</tspan></text><text class="k" transform="translate(1.5 65)"><tspan x="0" y="0" xml:space="preserve">F R O N T I E R S   O F </tspan><tspan x="0" y="36" xml:space="preserve">D A T A   S C I E N C E   A N D </tspan><tspan x="0" y="72" xml:space="preserve">L I F E   S C I E N C E   R E S E A R C H</tspan></text><text class="l" transform="translate(1.5 219)"><tspan x="0" y="0">第二回</tspan></text><text class="l" transform="translate(1.5 246.7)"><tspan x="0" y="0">データサイエンスと</tspan></text><text class="l" transform="translate(2 275.2)"><tspan x="0" y="0">生命医科学研究の</tspan></text><text class="l" transform="translate(2 306.4)"><tspan x="0" y="0">フロンティア</tspan></text><text class="h" transform="translate(.7 218.2)"><tspan x="0" y="0">第二回</tspan></text><text class="h" transform="translate(.7 245.9)"><tspan x="0" y="0">データサイエンスと</tspan></text><text class="h" transform="translate(1.3 274.4)"><tspan x="0" y="0">生命医科学研究の</tspan></text><text class="h" transform="translate(1.3 305.6)"><tspan x="0" y="0">フロンティア</tspan></text><text class="f" transform="translate(1.5 400.4)"><tspan x="0" y="0">東京大学 医学部 鉄門記念講堂</tspan></text><text class="e" transform="translate(1.7 369.2)"><tspan x="0" y="0">2026</tspan></text><text class="d" transform="translate(60.5 369.3)"><tspan x="0" y="0">3.16</tspan></text><text class="d" transform="translate(141.4 369.3)"><tspan x="0" y="0">-</tspan></text><text class="d" transform="translate(157.7 369.3)"><tspan x="0" y="0">17</tspan></text><text class="j" transform="translate(1 400)"><tspan x="0" y="0">東京大学 医学部 鉄門記念講堂</tspan></text><text class="i" transform="translate(1.2 368.8)"><tspan x="0" y="0">2026</tspan></text><text class="m" transform="translate(59.8 368.2)"><tspan x="0" y="0">3.16</tspan></text><text class="m" transform="translate(140.2 368.3)"><tspan x="0" y="0">-</tspan></text><text class="m" transform="translate(156.5 368.3)"><tspan x="0" y="0">17</tspan></text></g></svg>