<svg xmlns="http://www.w3.org/2000/svg" xmlns:xlink="http://www.w3.org/1999/xlink" width="500" zoomAndPan="magnify" viewBox="0 0 375 374.999991" height="500" preserveAspectRatio="xMidYMid meet" version="1.0"><defs><g/><linearGradient x1="0" gradientTransform="matrix(0.75, 0, 0, 0.75, 0.0000045, 0)" y1="250" x2="499.999979" gradientUnits="userSpaceOnUse" y2="250" id="e8842915c6"><stop stop-opacity="1" stop-color="rgb(54.899597%, 32.159424%, 100%)" offset="0"/><stop stop-opacity="1" stop-color="rgb(55.075073%, 32.255554%, 99.726868%)" offset="0.00390625"/><stop stop-opacity="1" stop-color="rgb(55.252075%, 32.351685%, 99.453735%)" offset="0.0078125"/><stop stop-opacity="1" stop-color="rgb(55.427551%, 32.447815%, 99.180603%)" offset="0.0117187"/><stop stop-opacity="1" stop-color="rgb(55.604553%, 32.545471%, 98.908997%)" offset="0.015625"/><stop stop-opacity="1" stop-color="rgb(55.780029%, 32.641602%, 98.635864%)" offset="0.0195312"/><stop stop-opacity="1" stop-color="rgb(55.955505%, 32.737732%, 98.362732%)" offset="0.0234375"/><stop stop-opacity="1" stop-color="rgb(56.130981%, 32.833862%, 98.0896%)" offset="0.0273438"/><stop stop-opacity="1" stop-color="rgb(56.307983%, 32.931519%, 97.817993%)" offset="0.03125"/><stop stop-opacity="1" stop-color="rgb(56.483459%, 33.027649%, 97.544861%)" offset="0.0351562"/><stop stop-opacity="1" stop-color="rgb(56.660461%, 33.123779%, 97.273254%)" offset="0.0390625"/><stop stop-opacity="1" stop-color="rgb(56.835938%, 33.21991%, 97.000122%)" offset="0.0429687"/><stop stop-opacity="1" stop-color="rgb(57.012939%, 33.317566%, 96.72699%)" offset="0.046875"/><stop stop-opacity="1" stop-color="rgb(57.188416%, 33.413696%, 96.453857%)" offset="0.0507812"/><stop stop-opacity="1" stop-color="rgb(57.365417%, 33.509827%, 96.182251%)" offset="0.0546875"/><stop stop-opacity="1" stop-color="rgb(57.540894%, 33.605957%, 95.909119%)" offset="0.0585938"/><stop stop-opacity="1" stop-color="rgb(57.717896%, 33.703613%, 95.635986%)" offset="0.0625"/><stop stop-opacity="1" stop-color="rgb(57.893372%, 33.799744%, 95.362854%)" offset="0.0664062"/><stop stop-opacity="1" stop-color="rgb(58.070374%, 33.895874%, 95.091248%)" offset="0.0703125"/><stop stop-opacity="1" stop-color="rgb(58.24585%, 33.992004%, 94.818115%)" offset="0.0742187"/><stop stop-opacity="1" stop-color="rgb(58.422852%, 34.089661%, 94.546509%)" offset="0.078125"/><stop stop-opacity="1" stop-color="rgb(58.598328%, 34.185791%, 94.273376%)" offset="0.0820312"/><stop stop-opacity="1" stop-color="rgb(58.77533%, 34.281921%, 94.000244%)" offset="0.0859375"/><stop stop-opacity="1" stop-color="rgb(58.950806%, 34.378052%, 93.727112%)" offset="0.0898437"/><stop stop-opacity="1" stop-color="rgb(59.127808%, 34.474182%, 93.455505%)" offset="0.09375"/><stop stop-opacity="1" stop-color="rgb(59.303284%, 34.570312%, 93.182373%)" offset="0.0976562"/><stop stop-opacity="1" stop-color="rgb(59.480286%, 34.667969%, 92.910767%)" offset="0.101562"/><stop stop-opacity="1" stop-color="rgb(59.655762%, 34.764099%, 92.637634%)" offset="0.105469"/><stop stop-opacity="1" stop-color="rgb(59.832764%, 34.860229%, 92.364502%)" offset="0.109375"/><stop stop-opacity="1" stop-color="rgb(60.00824%, 34.95636%, 92.09137%)" offset="0.113281"/><stop stop-opacity="1" stop-color="rgb(60.183716%, 35.054016%, 91.819763%)" offset="0.117188"/><stop stop-opacity="1" stop-color="rgb(60.359192%, 35.150146%, 91.546631%)" offset="0.121094"/><stop stop-opacity="1" stop-color="rgb(60.536194%, 35.246277%, 91.273499%)" offset="0.125"/><stop stop-opacity="1" stop-color="rgb(60.71167%, 35.342407%, 91.000366%)" offset="0.128906"/><stop stop-opacity="1" stop-color="rgb(60.888672%, 35.440063%, 90.72876%)" offset="0.132812"/><stop stop-opacity="1" stop-color="rgb(61.064148%, 35.536194%, 90.455627%)" offset="0.136719"/><stop stop-opacity="1" stop-color="rgb(61.24115%, 35.632324%, 90.184021%)" offset="0.140625"/><stop stop-opacity="1" stop-color="rgb(61.416626%, 35.728455%, 89.910889%)" offset="0.144531"/><stop stop-opacity="1" stop-color="rgb(61.593628%, 35.826111%, 89.637756%)" offset="0.148437"/><stop stop-opacity="1" stop-color="rgb(61.769104%, 35.922241%, 89.364624%)" offset="0.152344"/><stop stop-opacity="1" stop-color="rgb(61.946106%, 36.018372%, 89.093018%)" offset="0.15625"/><stop stop-opacity="1" stop-color="rgb(62.121582%, 36.114502%, 88.819885%)" offset="0.160156"/><stop stop-opacity="1" stop-color="rgb(62.298584%, 36.212158%, 88.548279%)" offset="0.164062"/><stop stop-opacity="1" stop-color="rgb(62.47406%, 36.308289%, 88.275146%)" offset="0.167969"/><stop stop-opacity="1" stop-color="rgb(62.651062%, 36.404419%, 88.002014%)" offset="0.171875"/><stop stop-opacity="1" stop-color="rgb(62.826538%, 36.500549%, 87.728882%)" offset="0.175781"/><stop stop-opacity="1" stop-color="rgb(63.00354%, 36.598206%, 87.457275%)" offset="0.179687"/><stop stop-opacity="1" stop-color="rgb(63.179016%, 36.694336%, 87.184143%)" offset="0.183594"/><stop stop-opacity="1" stop-color="rgb(63.356018%, 36.790466%, 86.911011%)" offset="0.1875"/><stop stop-opacity="1" stop-color="rgb(63.531494%, 36.886597%, 86.637878%)" offset="0.191406"/><stop stop-opacity="1" stop-color="rgb(63.708496%, 36.982727%, 86.366272%)" offset="0.195312"/><stop stop-opacity="1" stop-color="rgb(63.883972%, 37.078857%, 86.09314%)" offset="0.199219"/><stop stop-opacity="1" stop-color="rgb(64.059448%, 37.176514%, 85.821533%)" offset="0.203125"/><stop stop-opacity="1" stop-color="rgb(64.234924%, 37.272644%, 85.548401%)" offset="0.207031"/><stop stop-opacity="1" stop-color="rgb(64.411926%, 37.368774%, 85.275269%)" offset="0.210938"/><stop stop-opacity="1" stop-color="rgb(64.587402%, 37.464905%, 85.002136%)" offset="0.214844"/><stop stop-opacity="1" stop-color="rgb(64.764404%, 37.562561%, 84.73053%)" offset="0.21875"/><stop stop-opacity="1" stop-color="rgb(64.93988%, 37.658691%, 84.457397%)" offset="0.222656"/><stop stop-opacity="1" stop-color="rgb(65.116882%, 37.754822%, 84.185791%)" offset="0.226562"/><stop stop-opacity="1" stop-color="rgb(65.292358%, 37.850952%, 83.912659%)" offset="0.230469"/><stop stop-opacity="1" stop-color="rgb(65.46936%, 37.948608%, 83.639526%)" offset="0.234375"/><stop stop-opacity="1" stop-color="rgb(65.644836%, 38.044739%, 83.366394%)" offset="0.238281"/><stop stop-opacity="1" stop-color="rgb(65.821838%, 38.140869%, 83.094788%)" offset="0.242188"/><stop stop-opacity="1" stop-color="rgb(65.997314%, 38.237%, 82.821655%)" offset="0.246094"/><stop stop-opacity="1" stop-color="rgb(66.174316%, 38.334656%, 82.548523%)" offset="0.25"/><stop stop-opacity="1" stop-color="rgb(66.349792%, 38.430786%, 82.275391%)" offset="0.253906"/><stop stop-opacity="1" stop-color="rgb(66.526794%, 38.526917%, 82.003784%)" offset="0.257812"/><stop stop-opacity="1" stop-color="rgb(66.702271%, 38.623047%, 81.730652%)" offset="0.261719"/><stop stop-opacity="1" stop-color="rgb(66.879272%, 38.720703%, 81.459045%)" offset="0.265625"/><stop stop-opacity="1" stop-color="rgb(67.054749%, 38.816833%, 81.185913%)" offset="0.269531"/><stop stop-opacity="1" stop-color="rgb(67.23175%, 38.912964%, 80.912781%)" offset="0.273437"/><stop stop-opacity="1" stop-color="rgb(67.407227%, 39.009094%, 80.639648%)" offset="0.277344"/><stop stop-opacity="1" stop-color="rgb(67.584229%, 39.10675%, 80.368042%)" offset="0.28125"/><stop stop-opacity="1" stop-color="rgb(67.759705%, 39.202881%, 80.09491%)" offset="0.285156"/><stop stop-opacity="1" stop-color="rgb(67.936707%, 39.299011%, 79.823303%)" offset="0.289062"/><stop stop-opacity="1" stop-color="rgb(68.112183%, 39.395142%, 79.550171%)" offset="0.292969"/><stop stop-opacity="1" stop-color="rgb(68.287659%, 39.492798%, 79.277039%)" offset="0.296875"/><stop stop-opacity="1" stop-color="rgb(68.463135%, 39.588928%, 79.003906%)" offset="0.300781"/><stop stop-opacity="1" stop-color="rgb(68.640137%, 39.685059%, 78.7323%)" offset="0.304687"/><stop stop-opacity="1" stop-color="rgb(68.815613%, 39.781189%, 78.459167%)" offset="0.308594"/><stop stop-opacity="1" stop-color="rgb(68.992615%, 39.877319%, 78.186035%)" offset="0.3125"/><stop stop-opacity="1" stop-color="rgb(69.168091%, 39.97345%, 77.912903%)" offset="0.316406"/><stop stop-opacity="1" stop-color="rgb(69.345093%, 40.071106%, 77.641296%)" offset="0.320312"/><stop stop-opacity="1" stop-color="rgb(69.520569%, 40.167236%, 77.368164%)" offset="0.324219"/><stop stop-opacity="1" stop-color="rgb(69.697571%, 40.263367%, 77.096558%)" offset="0.328125"/><stop stop-opacity="1" stop-color="rgb(69.873047%, 40.359497%, 76.823425%)" offset="0.332031"/><stop stop-opacity="1" stop-color="rgb(70.050049%, 40.457153%, 76.550293%)" offset="0.335937"/><stop stop-opacity="1" stop-color="rgb(70.225525%, 40.553284%, 76.277161%)" offset="0.339844"/><stop stop-opacity="1" stop-color="rgb(70.402527%, 40.649414%, 76.005554%)" offset="0.34375"/><stop stop-opacity="1" stop-color="rgb(70.578003%, 40.745544%, 75.732422%)" offset="0.347656"/><stop stop-opacity="1" stop-color="rgb(70.755005%, 40.843201%, 75.460815%)" offset="0.351562"/><stop stop-opacity="1" stop-color="rgb(70.930481%, 40.939331%, 75.187683%)" offset="0.355469"/><stop stop-opacity="1" stop-color="rgb(71.107483%, 41.035461%, 74.914551%)" offset="0.359375"/><stop stop-opacity="1" stop-color="rgb(71.282959%, 41.131592%, 74.641418%)" offset="0.363281"/><stop stop-opacity="1" stop-color="rgb(71.459961%, 41.229248%, 74.369812%)" offset="0.367187"/><stop stop-opacity="1" stop-color="rgb(71.635437%, 41.325378%, 74.09668%)" offset="0.371094"/><stop stop-opacity="1" stop-color="rgb(71.812439%, 41.421509%, 73.823547%)" offset="0.375"/><stop stop-opacity="1" stop-color="rgb(71.987915%, 41.517639%, 73.550415%)" offset="0.378906"/><stop stop-opacity="1" stop-color="rgb(72.163391%, 41.615295%, 73.278809%)" offset="0.382812"/><stop stop-opacity="1" stop-color="rgb(72.338867%, 41.711426%, 73.005676%)" offset="0.386719"/><stop stop-opacity="1" stop-color="rgb(72.515869%, 41.807556%, 72.73407%)" offset="0.390625"/><stop stop-opacity="1" stop-color="rgb(72.691345%, 41.903687%, 72.460938%)" offset="0.394531"/><stop stop-opacity="1" stop-color="rgb(72.868347%, 42.001343%, 72.187805%)" offset="0.398438"/><stop stop-opacity="1" stop-color="rgb(73.043823%, 42.097473%, 71.914673%)" offset="0.402344"/><stop stop-opacity="1" stop-color="rgb(73.220825%, 42.193604%, 71.643066%)" offset="0.40625"/><stop stop-opacity="1" stop-color="rgb(73.396301%, 42.289734%, 71.369934%)" offset="0.410156"/><stop stop-opacity="1" stop-color="rgb(73.573303%, 42.385864%, 71.098328%)" offset="0.414062"/><stop stop-opacity="1" stop-color="rgb(73.748779%, 42.481995%, 70.825195%)" offset="0.417969"/><stop stop-opacity="1" stop-color="rgb(73.925781%, 42.579651%, 70.552063%)" offset="0.421875"/><stop stop-opacity="1" stop-color="rgb(74.101257%, 42.675781%, 70.278931%)" offset="0.425781"/><stop stop-opacity="1" stop-color="rgb(74.278259%, 42.771912%, 70.007324%)" offset="0.429688"/><stop stop-opacity="1" stop-color="rgb(74.453735%, 42.868042%, 69.734192%)" offset="0.433594"/><stop stop-opacity="1" stop-color="rgb(74.630737%, 42.965698%, 69.46106%)" offset="0.4375"/><stop stop-opacity="1" stop-color="rgb(74.806213%, 43.061829%, 69.187927%)" offset="0.441406"/><stop stop-opacity="1" stop-color="rgb(74.983215%, 43.157959%, 68.916321%)" offset="0.445312"/><stop stop-opacity="1" stop-color="rgb(75.158691%, 43.254089%, 68.643188%)" offset="0.449219"/><stop stop-opacity="1" stop-color="rgb(75.335693%, 43.351746%, 68.371582%)" offset="0.453125"/><stop stop-opacity="1" stop-color="rgb(75.511169%, 43.447876%, 68.09845%)" offset="0.457031"/><stop stop-opacity="1" stop-color="rgb(75.688171%, 43.544006%, 67.825317%)" offset="0.460938"/><stop stop-opacity="1" stop-color="rgb(75.863647%, 43.640137%, 67.552185%)" offset="0.464844"/><stop stop-opacity="1" stop-color="rgb(76.039124%, 43.737793%, 67.280579%)" offset="0.46875"/><stop stop-opacity="1" stop-color="rgb(76.2146%, 43.833923%, 67.007446%)" offset="0.472656"/><stop stop-opacity="1" stop-color="rgb(76.391602%, 43.930054%, 66.73584%)" offset="0.476562"/><stop stop-opacity="1" stop-color="rgb(76.567078%, 44.026184%, 66.462708%)" offset="0.480469"/><stop stop-opacity="1" stop-color="rgb(76.74408%, 44.12384%, 66.189575%)" offset="0.484375"/><stop stop-opacity="1" stop-color="rgb(76.919556%, 44.219971%, 65.916443%)" offset="0.488281"/><stop stop-opacity="1" stop-color="rgb(77.096558%, 44.316101%, 65.644836%)" offset="0.492188"/><stop stop-opacity="1" stop-color="rgb(77.272034%, 44.412231%, 65.371704%)" offset="0.496094"/><stop stop-opacity="1" stop-color="rgb(77.449036%, 44.509888%, 65.098572%)" offset="0.5"/><stop stop-opacity="1" stop-color="rgb(77.624512%, 44.606018%, 64.825439%)" offset="0.503906"/><stop stop-opacity="1" stop-color="rgb(77.801514%, 44.702148%, 64.553833%)" offset="0.507812"/><stop stop-opacity="1" stop-color="rgb(77.97699%, 44.798279%, 64.280701%)" offset="0.511719"/><stop stop-opacity="1" stop-color="rgb(78.153992%, 44.895935%, 64.009094%)" offset="0.515625"/><stop stop-opacity="1" stop-color="rgb(78.329468%, 44.992065%, 63.735962%)" offset="0.519531"/><stop stop-opacity="1" stop-color="rgb(78.50647%, 45.088196%, 63.46283%)" offset="0.523437"/><stop stop-opacity="1" stop-color="rgb(78.681946%, 45.184326%, 63.189697%)" offset="0.527344"/><stop stop-opacity="1" stop-color="rgb(78.858948%, 45.280457%, 62.918091%)" offset="0.53125"/><stop stop-opacity="1" stop-color="rgb(79.034424%, 45.376587%, 62.644958%)" offset="0.535156"/><stop stop-opacity="1" stop-color="rgb(79.211426%, 45.474243%, 62.373352%)" offset="0.539062"/><stop stop-opacity="1" stop-color="rgb(79.386902%, 45.570374%, 62.10022%)" offset="0.542969"/><stop stop-opacity="1" stop-color="rgb(79.563904%, 45.666504%, 61.827087%)" offset="0.546875"/><stop stop-opacity="1" stop-color="rgb(79.73938%, 45.762634%, 61.553955%)" offset="0.550781"/><stop stop-opacity="1" stop-color="rgb(79.916382%, 45.860291%, 61.282349%)" offset="0.554687"/><stop stop-opacity="1" stop-color="rgb(80.091858%, 45.956421%, 61.009216%)" offset="0.558594"/><stop stop-opacity="1" stop-color="rgb(80.267334%, 46.052551%, 60.736084%)" offset="0.5625"/><stop stop-opacity="1" stop-color="rgb(80.44281%, 46.148682%, 60.462952%)" offset="0.566406"/><stop stop-opacity="1" stop-color="rgb(80.619812%, 46.246338%, 60.191345%)" offset="0.570312"/><stop stop-opacity="1" stop-color="rgb(80.795288%, 46.342468%, 59.918213%)" offset="0.574219"/><stop stop-opacity="1" stop-color="rgb(80.97229%, 46.438599%, 59.646606%)" offset="0.578125"/><stop stop-opacity="1" stop-color="rgb(81.147766%, 46.534729%, 59.373474%)" offset="0.582031"/><stop stop-opacity="1" stop-color="rgb(81.324768%, 46.632385%, 59.100342%)" offset="0.585937"/><stop stop-opacity="1" stop-color="rgb(81.500244%, 46.728516%, 58.827209%)" offset="0.589844"/><stop stop-opacity="1" stop-color="rgb(81.677246%, 46.824646%, 58.555603%)" offset="0.59375"/><stop stop-opacity="1" stop-color="rgb(81.852722%, 46.920776%, 58.282471%)" offset="0.597656"/><stop stop-opacity="1" stop-color="rgb(82.029724%, 47.018433%, 58.010864%)" offset="0.601562"/><stop stop-opacity="1" stop-color="rgb(82.2052%, 47.114563%, 57.737732%)" offset="0.605469"/><stop stop-opacity="1" stop-color="rgb(82.382202%, 47.210693%, 57.4646%)" offset="0.609375"/><stop stop-opacity="1" stop-color="rgb(82.557678%, 47.306824%, 57.191467%)" offset="0.613281"/><stop stop-opacity="1" stop-color="rgb(82.73468%, 47.40448%, 56.919861%)" offset="0.617187"/><stop stop-opacity="1" stop-color="rgb(82.910156%, 47.50061%, 56.646729%)" offset="0.621094"/><stop stop-opacity="1" stop-color="rgb(83.087158%, 47.596741%, 56.373596%)" offset="0.625"/><stop stop-opacity="1" stop-color="rgb(83.262634%, 47.692871%, 56.100464%)" offset="0.628906"/><stop stop-opacity="1" stop-color="rgb(83.439636%, 47.789001%, 55.828857%)" offset="0.632812"/><stop stop-opacity="1" stop-color="rgb(83.615112%, 47.885132%, 55.555725%)" offset="0.636719"/><stop stop-opacity="1" stop-color="rgb(83.792114%, 47.982788%, 55.284119%)" offset="0.640625"/><stop stop-opacity="1" stop-color="rgb(83.96759%, 48.078918%, 55.010986%)" offset="0.644531"/><stop stop-opacity="1" stop-color="rgb(84.143066%, 48.175049%, 54.737854%)" offset="0.648437"/><stop stop-opacity="1" stop-color="rgb(84.318542%, 48.271179%, 54.464722%)" offset="0.652344"/><stop stop-opacity="1" stop-color="rgb(84.495544%, 48.368835%, 54.193115%)" offset="0.65625"/><stop stop-opacity="1" stop-color="rgb(84.671021%, 48.464966%, 53.919983%)" offset="0.660156"/><stop stop-opacity="1" stop-color="rgb(84.848022%, 48.561096%, 53.648376%)" offset="0.664062"/><stop stop-opacity="1" stop-color="rgb(85.023499%, 48.657227%, 53.375244%)" offset="0.667969"/><stop stop-opacity="1" stop-color="rgb(85.2005%, 48.754883%, 53.102112%)" offset="0.671875"/><stop stop-opacity="1" stop-color="rgb(85.375977%, 48.851013%, 52.828979%)" offset="0.675781"/><stop stop-opacity="1" stop-color="rgb(85.552979%, 48.947144%, 52.557373%)" offset="0.679687"/><stop stop-opacity="1" stop-color="rgb(85.728455%, 49.043274%, 52.284241%)" offset="0.683594"/><stop stop-opacity="1" stop-color="rgb(85.905457%, 49.14093%, 52.011108%)" offset="0.6875"/><stop stop-opacity="1" stop-color="rgb(86.080933%, 49.237061%, 51.737976%)" offset="0.691406"/><stop stop-opacity="1" stop-color="rgb(86.257935%, 49.333191%, 51.46637%)" offset="0.695312"/><stop stop-opacity="1" stop-color="rgb(86.433411%, 49.429321%, 51.193237%)" offset="0.699219"/><stop stop-opacity="1" stop-color="rgb(86.610413%, 49.526978%, 50.921631%)" offset="0.703125"/><stop stop-opacity="1" stop-color="rgb(86.785889%, 49.623108%, 50.648499%)" offset="0.707031"/><stop stop-opacity="1" stop-color="rgb(86.962891%, 49.719238%, 50.375366%)" offset="0.710937"/><stop stop-opacity="1" stop-color="rgb(87.138367%, 49.815369%, 50.102234%)" offset="0.714844"/><stop stop-opacity="1" stop-color="rgb(87.315369%, 49.913025%, 49.830627%)" offset="0.71875"/><stop stop-opacity="1" stop-color="rgb(87.490845%, 50.009155%, 49.557495%)" offset="0.722656"/><stop stop-opacity="1" stop-color="rgb(87.667847%, 50.105286%, 49.285889%)" offset="0.726562"/><stop stop-opacity="1" stop-color="rgb(87.843323%, 50.201416%, 49.012756%)" offset="0.730469"/><stop stop-opacity="1" stop-color="rgb(88.018799%, 50.297546%, 48.739624%)" offset="0.734375"/><stop stop-opacity="1" stop-color="rgb(88.194275%, 50.393677%, 48.466492%)" offset="0.738281"/><stop stop-opacity="1" stop-color="rgb(88.371277%, 50.491333%, 48.194885%)" offset="0.742187"/><stop stop-opacity="1" stop-color="rgb(88.546753%, 50.587463%, 47.921753%)" offset="0.746094"/><stop stop-opacity="1" stop-color="rgb(88.723755%, 50.683594%, 47.648621%)" offset="0.75"/><stop stop-opacity="1" stop-color="rgb(88.899231%, 50.779724%, 47.375488%)" offset="0.753906"/><stop stop-opacity="1" stop-color="rgb(89.076233%, 50.87738%, 47.103882%)" offset="0.757812"/><stop stop-opacity="1" stop-color="rgb(89.251709%, 50.973511%, 46.83075%)" offset="0.761719"/><stop stop-opacity="1" stop-color="rgb(89.428711%, 51.069641%, 46.559143%)" offset="0.765625"/><stop stop-opacity="1" stop-color="rgb(89.604187%, 51.165771%, 46.286011%)" offset="0.769531"/><stop stop-opacity="1" stop-color="rgb(89.781189%, 51.263428%, 46.012878%)" offset="0.773438"/><stop stop-opacity="1" stop-color="rgb(89.956665%, 51.359558%, 45.739746%)" offset="0.777344"/><stop stop-opacity="1" stop-color="rgb(90.133667%, 51.455688%, 45.46814%)" offset="0.78125"/><stop stop-opacity="1" stop-color="rgb(90.309143%, 51.551819%, 45.195007%)" offset="0.785156"/><stop stop-opacity="1" stop-color="rgb(90.486145%, 51.649475%, 44.923401%)" offset="0.789062"/><stop stop-opacity="1" stop-color="rgb(90.661621%, 51.745605%, 44.650269%)" offset="0.792969"/><stop stop-opacity="1" stop-color="rgb(90.838623%, 51.841736%, 44.377136%)" offset="0.796875"/><stop stop-opacity="1" stop-color="rgb(91.014099%, 51.937866%, 44.104004%)" offset="0.800781"/><stop stop-opacity="1" stop-color="rgb(91.191101%, 52.035522%, 43.832397%)" offset="0.804688"/><stop stop-opacity="1" stop-color="rgb(91.366577%, 52.131653%, 43.559265%)" offset="0.808594"/><stop stop-opacity="1" stop-color="rgb(91.543579%, 52.227783%, 43.286133%)" offset="0.8125"/><stop stop-opacity="1" stop-color="rgb(91.719055%, 52.323914%, 43.013%)" offset="0.816406"/><stop stop-opacity="1" stop-color="rgb(91.896057%, 52.42157%, 42.741394%)" offset="0.820312"/><stop stop-opacity="1" stop-color="rgb(92.071533%, 52.5177%, 42.468262%)" offset="0.824219"/><stop stop-opacity="1" stop-color="rgb(92.247009%, 52.613831%, 42.196655%)" offset="0.828125"/><stop stop-opacity="1" stop-color="rgb(92.422485%, 52.709961%, 41.923523%)" offset="0.832031"/><stop stop-opacity="1" stop-color="rgb(92.599487%, 52.807617%, 41.650391%)" offset="0.835938"/><stop stop-opacity="1" stop-color="rgb(92.774963%, 52.903748%, 41.377258%)" offset="0.839844"/><stop stop-opacity="1" stop-color="rgb(92.951965%, 52.999878%, 41.105652%)" offset="0.84375"/><stop stop-opacity="1" stop-color="rgb(93.127441%, 53.096008%, 40.83252%)" offset="0.847656"/><stop stop-opacity="1" stop-color="rgb(93.304443%, 53.192139%, 40.560913%)" offset="0.851562"/><stop stop-opacity="1" stop-color="rgb(93.479919%, 53.288269%, 40.287781%)" offset="0.855469"/><stop stop-opacity="1" stop-color="rgb(93.656921%, 53.385925%, 40.014648%)" offset="0.859375"/><stop stop-opacity="1" stop-color="rgb(93.832397%, 53.482056%, 39.741516%)" offset="0.863281"/><stop stop-opacity="1" stop-color="rgb(94.009399%, 53.578186%, 39.46991%)" offset="0.867188"/><stop stop-opacity="1" stop-color="rgb(94.184875%, 53.674316%, 39.196777%)" offset="0.871094"/><stop stop-opacity="1" stop-color="rgb(94.361877%, 53.771973%, 38.923645%)" offset="0.875"/><stop stop-opacity="1" stop-color="rgb(94.537354%, 53.868103%, 38.650513%)" offset="0.878906"/><stop stop-opacity="1" stop-color="rgb(94.714355%, 53.964233%, 38.378906%)" offset="0.882812"/><stop stop-opacity="1" stop-color="rgb(94.889832%, 54.060364%, 38.105774%)" offset="0.886719"/><stop stop-opacity="1" stop-color="rgb(95.066833%, 54.15802%, 37.834167%)" offset="0.890625"/><stop stop-opacity="1" stop-color="rgb(95.24231%, 54.25415%, 37.561035%)" offset="0.894531"/><stop stop-opacity="1" stop-color="rgb(95.419312%, 54.350281%, 37.287903%)" offset="0.898438"/><stop stop-opacity="1" stop-color="rgb(95.594788%, 54.446411%, 37.014771%)" offset="0.902344"/><stop stop-opacity="1" stop-color="rgb(95.77179%, 54.544067%, 36.743164%)" offset="0.90625"/><stop stop-opacity="1" stop-color="rgb(95.947266%, 54.640198%, 36.470032%)" offset="0.910156"/><stop stop-opacity="1" stop-color="rgb(96.122742%, 54.736328%, 36.198425%)" offset="0.914062"/><stop stop-opacity="1" stop-color="rgb(96.298218%, 54.832458%, 35.925293%)" offset="0.917969"/><stop stop-opacity="1" stop-color="rgb(96.47522%, 54.930115%, 35.652161%)" offset="0.921875"/><stop stop-opacity="1" stop-color="rgb(96.650696%, 55.026245%, 35.379028%)" offset="0.925781"/><stop stop-opacity="1" stop-color="rgb(96.827698%, 55.122375%, 35.107422%)" offset="0.929688"/><stop stop-opacity="1" stop-color="rgb(97.003174%, 55.218506%, 34.83429%)" offset="0.933594"/><stop stop-opacity="1" stop-color="rgb(97.180176%, 55.316162%, 34.561157%)" offset="0.9375"/><stop stop-opacity="1" stop-color="rgb(97.355652%, 55.412292%, 34.288025%)" offset="0.941406"/><stop stop-opacity="1" stop-color="rgb(97.532654%, 55.508423%, 34.016418%)" offset="0.945312"/><stop stop-opacity="1" stop-color="rgb(97.70813%, 55.604553%, 33.743286%)" offset="0.949219"/><stop stop-opacity="1" stop-color="rgb(97.885132%, 55.700684%, 33.47168%)" offset="0.953125"/><stop stop-opacity="1" stop-color="rgb(98.060608%, 55.796814%, 33.198547%)" offset="0.957031"/><stop stop-opacity="1" stop-color="rgb(98.23761%, 55.89447%, 32.925415%)" offset="0.960938"/><stop stop-opacity="1" stop-color="rgb(98.413086%, 55.990601%, 32.652283%)" offset="0.964844"/><stop stop-opacity="1" stop-color="rgb(98.590088%, 56.086731%, 32.380676%)" offset="0.96875"/><stop stop-opacity="1" stop-color="rgb(98.765564%, 56.182861%, 32.107544%)" offset="0.972656"/><stop stop-opacity="1" stop-color="rgb(98.942566%, 56.280518%, 31.835938%)" offset="0.976562"/><stop stop-opacity="1" stop-color="rgb(99.118042%, 56.376648%, 31.562805%)" offset="0.980469"/><stop stop-opacity="1" stop-color="rgb(99.295044%, 56.472778%, 31.289673%)" offset="0.984375"/><stop stop-opacity="1" stop-color="rgb(99.47052%, 56.568909%, 31.016541%)" offset="0.988281"/><stop stop-opacity="1" stop-color="rgb(99.647522%, 56.666565%, 30.744934%)" offset="0.992188"/><stop stop-opacity="1" stop-color="rgb(99.822998%, 56.762695%, 30.471802%)" offset="0.996094"/><stop stop-opacity="1" stop-color="rgb(99.998474%, 56.858826%, 30.198669%)" offset="1"/></linearGradient><clipPath id="c46cd14fe7"><path d="M 65.058594 56.058594 L 310 56.058594 L 310 241 L 65.058594 241 Z M 65.058594 56.058594 " clip-rule="nonzero"/></clipPath></defs><rect x="-37.5" width="450" fill="#ffffff" y="-37.499999" height="449.999989" fill-opacity="1"/><rect x="-37.5" fill="url(#e8842915c6)" width="450" y="-37.499999" height="449.999989"/><g fill="#ffffff" fill-opacity="1"><g transform="translate(99.304065, 267.18045)"><g><path d="M 9.78125 -12.59375 L 9.78125 -10.109375 L 3.828125 -10.109375 L 3.828125 -7.09375 L 8.953125 -7.09375 L 8.953125 -4.71875 L 3.828125 -4.71875 L 3.828125 0 L 1.265625 0 L 1.265625 -12.59375 Z M 9.78125 -12.59375 "/></g></g></g><g fill="#ffffff" fill-opacity="1"><g transform="translate(114.280031, 267.18045)"><g><path d="M 8.03125 0 L 5.515625 -4.53125 L 3.828125 -4.53125 L 3.828125 0 L 1.265625 0 L 1.265625 -12.59375 L 6.375 -12.59375 C 7.175781 -12.59375 7.898438 -12.421875 8.546875 -12.078125 C 9.191406 -11.734375 9.703125 -11.25 10.078125 -10.625 C 10.453125 -10.007812 10.640625 -9.3125 10.640625 -8.53125 C 10.640625 -7.726562 10.40625 -7.003906 9.9375 -6.359375 C 9.46875 -5.722656 8.832031 -5.25 8.03125 -4.9375 L 11 0 Z M 3.828125 -10.15625 L 3.828125 -6.875 L 6.296875 -6.875 C 6.804688 -6.875 7.226562 -7.023438 7.5625 -7.328125 C 7.894531 -7.640625 8.0625 -8.035156 8.0625 -8.515625 C 8.0625 -8.992188 7.894531 -9.382812 7.5625 -9.6875 C 7.226562 -10 6.804688 -10.15625 6.296875 -10.15625 Z M 3.828125 -10.15625 "/></g></g></g><g fill="#ffffff" fill-opacity="1"><g transform="translate(130.407994, 267.18045)"><g><path d="M 6.78125 0.234375 C 5.675781 0.234375 4.648438 -0.0546875 3.703125 -0.640625 C 2.753906 -1.222656 2 -2.015625 1.4375 -3.015625 C 0.875 -4.015625 0.59375 -5.109375 0.59375 -6.296875 C 0.59375 -7.484375 0.875 -8.578125 1.4375 -9.578125 C 2 -10.585938 2.753906 -11.378906 3.703125 -11.953125 C 4.648438 -12.535156 5.675781 -12.828125 6.78125 -12.828125 C 7.882812 -12.828125 8.910156 -12.535156 9.859375 -11.953125 C 10.804688 -11.378906 11.5625 -10.585938 12.125 -9.578125 C 12.695312 -8.578125 12.984375 -7.484375 12.984375 -6.296875 C 12.984375 -5.109375 12.695312 -4.015625 12.125 -3.015625 C 11.5625 -2.015625 10.804688 -1.222656 9.859375 -0.640625 C 8.910156 -0.0546875 7.882812 0.234375 6.78125 0.234375 Z M 6.78125 -2.25 C 7.4375 -2.25 8.035156 -2.425781 8.578125 -2.78125 C 9.128906 -3.132812 9.570312 -3.617188 9.90625 -4.234375 C 10.238281 -4.859375 10.40625 -5.546875 10.40625 -6.296875 C 10.40625 -7.054688 10.238281 -7.742188 9.90625 -8.359375 C 9.570312 -8.972656 9.128906 -9.457031 8.578125 -9.8125 C 8.035156 -10.164062 7.4375 -10.34375 6.78125 -10.34375 C 6.132812 -10.34375 5.535156 -10.164062 4.984375 -9.8125 C 4.429688 -9.457031 3.988281 -8.972656 3.65625 -8.359375 C 3.332031 -7.742188 3.171875 -7.054688 3.171875 -6.296875 C 3.171875 -5.546875 3.332031 -4.859375 3.65625 -4.234375 C 3.988281 -3.617188 4.429688 -3.132812 4.984375 -2.78125 C 5.535156 -2.425781 6.132812 -2.25 6.78125 -2.25 Z M 6.78125 -2.25 "/></g></g></g><g fill="#ffffff" fill-opacity="1"><g transform="translate(148.659947, 267.18045)"><g><path d="M 9.21875 -4.359375 L 9.21875 -12.59375 L 11.703125 -12.59375 L 11.703125 0 L 9.34375 0 L 3.75 -8.25 L 3.75 0 L 1.265625 0 L 1.265625 -12.59375 L 3.625 -12.59375 Z M 9.21875 -4.359375 "/></g></g></g><g fill="#ffffff" fill-opacity="1"><g transform="translate(166.299903, 267.18045)"><g><path d="M 6.484375 0 L 3.90625 0 L 3.90625 -10.109375 L 0.25 -10.109375 L 0.25 -12.59375 L 10.140625 -12.59375 L 10.140625 -10.109375 L 6.484375 -10.109375 Z M 6.484375 0 "/></g></g></g><g fill="#ffffff" fill-opacity="1"><g transform="translate(181.365866, 267.18045)"><g><path d="M 3.828125 0 L 1.265625 0 L 1.265625 -12.59375 L 3.828125 -12.59375 Z M 3.828125 0 "/></g></g></g><g fill="#ffffff" fill-opacity="1"><g transform="translate(191.139841, 267.18045)"><g><path d="M 3.828125 -5.234375 L 3.828125 -2.453125 L 10.0625 -2.453125 L 10.0625 0 L 1.265625 0 L 1.265625 -12.59375 L 9.875 -12.59375 L 9.875 -10.15625 L 3.828125 -10.15625 L 3.828125 -7.609375 L 9.203125 -7.609375 L 9.203125 -5.234375 Z M 3.828125 -5.234375 "/></g></g></g><g fill="#ffffff" fill-opacity="1"><g transform="translate(206.547798, 267.18045)"><g><path d="M 8.03125 0 L 5.515625 -4.53125 L 3.828125 -4.53125 L 3.828125 0 L 1.265625 0 L 1.265625 -12.59375 L 6.375 -12.59375 C 7.175781 -12.59375 7.898438 -12.421875 8.546875 -12.078125 C 9.191406 -11.734375 9.703125 -11.25 10.078125 -10.625 C 10.453125 -10.007812 10.640625 -9.3125 10.640625 -8.53125 C 10.640625 -7.726562 10.40625 -7.003906 9.9375 -6.359375 C 9.46875 -5.722656 8.832031 -5.25 8.03125 -4.9375 L 11 0 Z M 3.828125 -10.15625 L 3.828125 -6.875 L 6.296875 -6.875 C 6.804688 -6.875 7.226562 -7.023438 7.5625 -7.328125 C 7.894531 -7.640625 8.0625 -8.035156 8.0625 -8.515625 C 8.0625 -8.992188 7.894531 -9.382812 7.5625 -9.6875 C 7.226562 -10 6.804688 -10.15625 6.296875 -10.15625 Z M 3.828125 -10.15625 "/></g></g></g><g fill="#ffffff" fill-opacity="1"><g transform="translate(222.675761, 267.18045)"><g><path d="M 5.40625 0.234375 C 4.4375 0.234375 3.59375 0.0507812 2.875 -0.3125 C 2.164062 -0.675781 1.609375 -1.175781 1.203125 -1.8125 C 0.804688 -2.445312 0.59375 -3.171875 0.5625 -3.984375 L 3.125 -3.984375 C 3.195312 -3.410156 3.425781 -2.945312 3.8125 -2.59375 C 4.195312 -2.238281 4.726562 -2.0625 5.40625 -2.0625 C 6.039062 -2.0625 6.519531 -2.1875 6.84375 -2.4375 C 7.175781 -2.695312 7.34375 -3.015625 7.34375 -3.390625 C 7.34375 -3.703125 7.234375 -3.960938 7.015625 -4.171875 C 6.804688 -4.390625 6.535156 -4.566406 6.203125 -4.703125 C 5.878906 -4.835938 5.429688 -5.003906 4.859375 -5.203125 C 4.015625 -5.472656 3.328125 -5.742188 2.796875 -6.015625 C 2.265625 -6.285156 1.804688 -6.675781 1.421875 -7.1875 C 1.035156 -7.695312 0.84375 -8.363281 0.84375 -9.1875 C 0.84375 -9.875 1.015625 -10.492188 1.359375 -11.046875 C 1.710938 -11.597656 2.222656 -12.03125 2.890625 -12.34375 C 3.554688 -12.664062 4.335938 -12.828125 5.234375 -12.828125 C 6.097656 -12.828125 6.863281 -12.644531 7.53125 -12.28125 C 8.207031 -11.925781 8.738281 -11.4375 9.125 -10.8125 C 9.507812 -10.1875 9.71875 -9.492188 9.75 -8.734375 L 7.1875 -8.734375 C 7.144531 -9.253906 6.945312 -9.679688 6.59375 -10.015625 C 6.25 -10.359375 5.796875 -10.53125 5.234375 -10.53125 C 4.660156 -10.53125 4.210938 -10.398438 3.890625 -10.140625 C 3.578125 -9.878906 3.421875 -9.546875 3.421875 -9.140625 C 3.421875 -8.828125 3.523438 -8.5625 3.734375 -8.34375 C 3.953125 -8.132812 4.21875 -7.960938 4.53125 -7.828125 C 4.851562 -7.691406 5.3125 -7.53125 5.90625 -7.34375 C 6.726562 -7.082031 7.410156 -6.820312 7.953125 -6.5625 C 8.492188 -6.300781 8.957031 -5.921875 9.34375 -5.421875 C 9.726562 -4.929688 9.921875 -4.28125 9.921875 -3.46875 C 9.921875 -2.757812 9.742188 -2.125 9.390625 -1.5625 C 9.035156 -1.007812 8.515625 -0.570312 7.828125 -0.25 C 7.140625 0.0703125 6.332031 0.234375 5.40625 0.234375 Z M 5.40625 0.234375 "/></g></g></g><g fill="#ffffff" fill-opacity="1"><g transform="translate(237.921717, 267.18045)"><g/></g></g><g fill="#ffffff" fill-opacity="1"><g transform="translate(247.1377, 267.18045)"><g><path d="M 6.78125 0.234375 C 5.675781 0.234375 4.648438 -0.0546875 3.703125 -0.640625 C 2.753906 -1.222656 2 -2.015625 1.4375 -3.015625 C 0.875 -4.015625 0.59375 -5.109375 0.59375 -6.296875 C 0.59375 -7.484375 0.875 -8.578125 1.4375 -9.578125 C 2 -10.585938 2.753906 -11.378906 3.703125 -11.953125 C 4.648438 -12.535156 5.675781 -12.828125 6.78125 -12.828125 C 7.882812 -12.828125 8.910156 -12.535156 9.859375 -11.953125 C 10.804688 -11.378906 11.5625 -10.585938 12.125 -9.578125 C 12.695312 -8.578125 12.984375 -7.484375 12.984375 -6.296875 C 12.984375 -5.109375 12.695312 -4.015625 12.125 -3.015625 C 11.5625 -2.015625 10.804688 -1.222656 9.859375 -0.640625 C 8.910156 -0.0546875 7.882812 0.234375 6.78125 0.234375 Z M 6.78125 -2.25 C 7.4375 -2.25 8.035156 -2.425781 8.578125 -2.78125 C 9.128906 -3.132812 9.570312 -3.617188 9.90625 -4.234375 C 10.238281 -4.859375 10.40625 -5.546875 10.40625 -6.296875 C 10.40625 -7.054688 10.238281 -7.742188 9.90625 -8.359375 C 9.570312 -8.972656 9.128906 -9.457031 8.578125 -9.8125 C 8.035156 -10.164062 7.4375 -10.34375 6.78125 -10.34375 C 6.132812 -10.34375 5.535156 -10.164062 4.984375 -9.8125 C 4.429688 -9.457031 3.988281 -8.972656 3.65625 -8.359375 C 3.332031 -7.742188 3.171875 -7.054688 3.171875 -6.296875 C 3.171875 -5.546875 3.332031 -4.859375 3.65625 -4.234375 C 3.988281 -3.617188 4.429688 -3.132812 4.984375 -2.78125 C 5.535156 -2.425781 6.132812 -2.25 6.78125 -2.25 Z M 6.78125 -2.25 "/></g></g></g><g fill="#ffffff" fill-opacity="1"><g transform="translate(265.389653, 267.18045)"><g><path d="M 9.78125 -12.59375 L 9.78125 -10.109375 L 3.828125 -10.109375 L 3.828125 -7.09375 L 8.953125 -7.09375 L 8.953125 -4.71875 L 3.828125 -4.71875 L 3.828125 0 L 1.265625 0 L 1.265625 -12.59375 Z M 9.78125 -12.59375 "/></g></g></g><g fill="#ffffff" fill-opacity="1"><g transform="translate(68.272817, 285.180449)"><g><path d="M 1.265625 0 L 1.265625 -12.59375 L 5.4375 -12.59375 C 6.5625 -12.59375 7.597656 -12.3125 8.546875 -11.75 C 9.503906 -11.1875 10.257812 -10.421875 10.8125 -9.453125 C 11.375 -8.492188 11.65625 -7.441406 11.65625 -6.296875 C 11.65625 -5.148438 11.375 -4.09375 10.8125 -3.125 C 10.25 -2.164062 9.488281 -1.40625 8.53125 -0.84375 C 7.582031 -0.28125 6.550781 0 5.4375 0 Z M 5.4375 -2.484375 C 6.082031 -2.484375 6.679688 -2.648438 7.234375 -2.984375 C 7.796875 -3.316406 8.242188 -3.773438 8.578125 -4.359375 C 8.921875 -4.941406 9.09375 -5.585938 9.09375 -6.296875 C 9.09375 -7.003906 8.921875 -7.648438 8.578125 -8.234375 C 8.242188 -8.816406 7.796875 -9.273438 7.234375 -9.609375 C 6.679688 -9.941406 6.082031 -10.109375 5.4375 -10.109375 L 3.828125 -10.109375 L 3.828125 -2.484375 Z M 5.4375 -2.484375 "/></g></g></g><g fill="#ffffff" fill-opacity="1"><g transform="translate(85.21077, 285.180449)"><g><path d="M 11.796875 0 L 9.09375 0 L 8.171875 -2.59375 L 3.421875 -2.59375 L 2.5 0 L -0.109375 0 L 4.59375 -12.59375 L 7.109375 -12.59375 Z M 7.328125 -4.96875 L 5.796875 -9.390625 L 4.265625 -4.96875 Z M 7.328125 -4.96875 "/></g></g></g><g fill="#ffffff" fill-opacity="1"><g transform="translate(101.57273, 285.180449)"><g><path d="M 6.484375 0 L 3.90625 0 L 3.90625 -10.109375 L 0.25 -10.109375 L 0.25 -12.59375 L 10.140625 -12.59375 L 10.140625 -10.109375 L 6.484375 -10.109375 Z M 6.484375 0 "/></g></g></g><g fill="#ffffff" fill-opacity="1"><g transform="translate(116.638693, 285.180449)"><g><path d="M 11.796875 0 L 9.09375 0 L 8.171875 -2.59375 L 3.421875 -2.59375 L 2.5 0 L -0.109375 0 L 4.59375 -12.59375 L 7.109375 -12.59375 Z M 7.328125 -4.96875 L 5.796875 -9.390625 L 4.265625 -4.96875 Z M 7.328125 -4.96875 "/></g></g></g><g fill="#ffffff" fill-opacity="1"><g transform="translate(142.216636, 285.180449)"><g><path d="M 5.40625 0.234375 C 4.4375 0.234375 3.59375 0.0507812 2.875 -0.3125 C 2.164062 -0.675781 1.609375 -1.175781 1.203125 -1.8125 C 0.804688 -2.445312 0.59375 -3.171875 0.5625 -3.984375 L 3.125 -3.984375 C 3.195312 -3.410156 3.425781 -2.945312 3.8125 -2.59375 C 4.195312 -2.238281 4.726562 -2.0625 5.40625 -2.0625 C 6.039062 -2.0625 6.519531 -2.1875 6.84375 -2.4375 C 7.175781 -2.695312 7.34375 -3.015625 7.34375 -3.390625 C 7.34375 -3.703125 7.234375 -3.960938 7.015625 -4.171875 C 6.804688 -4.390625 6.535156 -4.566406 6.203125 -4.703125 C 5.878906 -4.835938 5.429688 -5.003906 4.859375 -5.203125 C 4.015625 -5.472656 3.328125 -5.742188 2.796875 -6.015625 C 2.265625 -6.285156 1.804688 -6.675781 1.421875 -7.1875 C 1.035156 -7.695312 0.84375 -8.363281 0.84375 -9.1875 C 0.84375 -9.875 1.015625 -10.492188 1.359375 -11.046875 C 1.710938 -11.597656 2.222656 -12.03125 2.890625 -12.34375 C 3.554688 -12.664062 4.335938 -12.828125 5.234375 -12.828125 C 6.097656 -12.828125 6.863281 -12.644531 7.53125 -12.28125 C 8.207031 -11.925781 8.738281 -11.4375 9.125 -10.8125 C 9.507812 -10.1875 9.71875 -9.492188 9.75 -8.734375 L 7.1875 -8.734375 C 7.144531 -9.253906 6.945312 -9.679688 6.59375 -10.015625 C 6.25 -10.359375 5.796875 -10.53125 5.234375 -10.53125 C 4.660156 -10.53125 4.210938 -10.398438 3.890625 -10.140625 C 3.578125 -9.878906 3.421875 -9.546875 3.421875 -9.140625 C 3.421875 -8.828125 3.523438 -8.5625 3.734375 -8.34375 C 3.953125 -8.132812 4.21875 -7.960938 4.53125 -7.828125 C 4.851562 -7.691406 5.3125 -7.53125 5.90625 -7.34375 C 6.726562 -7.082031 7.410156 -6.820312 7.953125 -6.5625 C 8.492188 -6.300781 8.957031 -5.921875 9.34375 -5.421875 C 9.726562 -4.929688 9.921875 -4.28125 9.921875 -3.46875 C 9.921875 -2.757812 9.742188 -2.125 9.390625 -1.5625 C 9.035156 -1.007812 8.515625 -0.570312 7.828125 -0.25 C 7.140625 0.0703125 6.332031 0.234375 5.40625 0.234375 Z M 5.40625 0.234375 "/></g></g></g><g fill="#ffffff" fill-opacity="1"><g transform="translate(157.462592, 285.180449)"><g><path d="M 6.78125 0.234375 C 5.675781 0.234375 4.648438 -0.0546875 3.703125 -0.640625 C 2.753906 -1.222656 2 -2.015625 1.4375 -3.015625 C 0.875 -4.015625 0.59375 -5.109375 0.59375 -6.296875 C 0.59375 -7.484375 0.875 -8.578125 1.4375 -9.578125 C 2 -10.585938 2.753906 -11.378906 3.703125 -11.953125 C 4.648438 -12.535156 5.675781 -12.828125 6.78125 -12.828125 C 7.789062 -12.828125 8.691406 -12.601562 9.484375 -12.15625 C 10.273438 -11.707031 10.925781 -11.125 11.4375 -10.40625 C 11.945312 -9.695312 12.296875 -8.9375 12.484375 -8.125 L 9.8125 -8.125 C 9.644531 -8.71875 9.296875 -9.234375 8.765625 -9.671875 C 8.234375 -10.117188 7.570312 -10.34375 6.78125 -10.34375 C 6.132812 -10.34375 5.535156 -10.164062 4.984375 -9.8125 C 4.429688 -9.457031 3.988281 -8.972656 3.65625 -8.359375 C 3.332031 -7.742188 3.171875 -7.054688 3.171875 -6.296875 C 3.171875 -5.546875 3.332031 -4.859375 3.65625 -4.234375 C 3.988281 -3.617188 4.429688 -3.132812 4.984375 -2.78125 C 5.535156 -2.425781 6.132812 -2.25 6.78125 -2.25 C 7.570312 -2.25 8.234375 -2.46875 8.765625 -2.90625 C 9.304688 -3.34375 9.6875 -3.863281 9.90625 -4.46875 L 12.578125 -4.46875 C 12.390625 -3.664062 12.039062 -2.90625 11.53125 -2.1875 C 11.019531 -1.46875 10.359375 -0.882812 9.546875 -0.4375 C 8.734375 0.0078125 7.8125 0.234375 6.78125 0.234375 Z M 6.78125 0.234375 "/></g></g></g><g fill="#ffffff" fill-opacity="1"><g transform="translate(175.228548, 285.180449)"><g><path d="M 3.828125 0 L 1.265625 0 L 1.265625 -12.59375 L 3.828125 -12.59375 Z M 3.828125 0 "/></g></g></g><g fill="#ffffff" fill-opacity="1"><g transform="translate(185.002523, 285.180449)"><g><path d="M 3.828125 -5.234375 L 3.828125 -2.453125 L 10.0625 -2.453125 L 10.0625 0 L 1.265625 0 L 1.265625 -12.59375 L 9.875 -12.59375 L 9.875 -10.15625 L 3.828125 -10.15625 L 3.828125 -7.609375 L 9.203125 -7.609375 L 9.203125 -5.234375 Z M 3.828125 -5.234375 "/></g></g></g><g fill="#ffffff" fill-opacity="1"><g transform="translate(200.41048, 285.180449)"><g><path d="M 9.21875 -4.359375 L 9.21875 -12.59375 L 11.703125 -12.59375 L 11.703125 0 L 9.34375 0 L 3.75 -8.25 L 3.75 0 L 1.265625 0 L 1.265625 -12.59375 L 3.625 -12.59375 Z M 9.21875 -4.359375 "/></g></g></g><g fill="#ffffff" fill-opacity="1"><g transform="translate(218.050437, 285.180449)"><g><path d="M 6.78125 0.234375 C 5.675781 0.234375 4.648438 -0.0546875 3.703125 -0.640625 C 2.753906 -1.222656 2 -2.015625 1.4375 -3.015625 C 0.875 -4.015625 0.59375 -5.109375 0.59375 -6.296875 C 0.59375 -7.484375 0.875 -8.578125 1.4375 -9.578125 C 2 -10.585938 2.753906 -11.378906 3.703125 -11.953125 C 4.648438 -12.535156 5.675781 -12.828125 6.78125 -12.828125 C 7.789062 -12.828125 8.691406 -12.601562 9.484375 -12.15625 C 10.273438 -11.707031 10.925781 -11.125 11.4375 -10.40625 C 11.945312 -9.695312 12.296875 -8.9375 12.484375 -8.125 L 9.8125 -8.125 C 9.644531 -8.71875 9.296875 -9.234375 8.765625 -9.671875 C 8.234375 -10.117188 7.570312 -10.34375 6.78125 -10.34375 C 6.132812 -10.34375 5.535156 -10.164062 4.984375 -9.8125 C 4.429688 -9.457031 3.988281 -8.972656 3.65625 -8.359375 C 3.332031 -7.742188 3.171875 -7.054688 3.171875 -6.296875 C 3.171875 -5.546875 3.332031 -4.859375 3.65625 -4.234375 C 3.988281 -3.617188 4.429688 -3.132812 4.984375 -2.78125 C 5.535156 -2.425781 6.132812 -2.25 6.78125 -2.25 C 7.570312 -2.25 8.234375 -2.46875 8.765625 -2.90625 C 9.304688 -3.34375 9.6875 -3.863281 9.90625 -4.46875 L 12.578125 -4.46875 C 12.390625 -3.664062 12.039062 -2.90625 11.53125 -2.1875 C 11.019531 -1.46875 10.359375 -0.882812 9.546875 -0.4375 C 8.734375 0.0078125 7.8125 0.234375 6.78125 0.234375 Z M 6.78125 0.234375 "/></g></g></g><g fill="#ffffff" fill-opacity="1"><g transform="translate(235.816393, 285.180449)"><g><path d="M 3.828125 -5.234375 L 3.828125 -2.453125 L 10.0625 -2.453125 L 10.0625 0 L 1.265625 0 L 1.265625 -12.59375 L 9.875 -12.59375 L 9.875 -10.15625 L 3.828125 -10.15625 L 3.828125 -7.609375 L 9.203125 -7.609375 L 9.203125 -5.234375 Z M 3.828125 -5.234375 "/></g></g></g><g fill="#ffffff" fill-opacity="1"><g transform="translate(251.22435, 285.180449)"><g/></g></g><g fill="#ffffff" fill-opacity="1"><g transform="translate(260.440346, 285.180449)"><g><path d="M 11.796875 0 L 9.09375 0 L 8.171875 -2.59375 L 3.421875 -2.59375 L 2.5 0 L -0.109375 0 L 4.59375 -12.59375 L 7.109375 -12.59375 Z M 7.328125 -4.96875 L 5.796875 -9.390625 L 4.265625 -4.96875 Z M 7.328125 -4.96875 "/></g></g></g><g fill="#ffffff" fill-opacity="1"><g transform="translate(276.802283, 285.180449)"><g><path d="M 9.21875 -4.359375 L 9.21875 -12.59375 L 11.703125 -12.59375 L 11.703125 0 L 9.34375 0 L 3.75 -8.25 L 3.75 0 L 1.265625 0 L 1.265625 -12.59375 L 3.625 -12.59375 Z M 9.21875 -4.359375 "/></g></g></g><g fill="#ffffff" fill-opacity="1"><g transform="translate(294.44225, 285.180449)"><g><path d="M 1.265625 0 L 1.265625 -12.59375 L 5.4375 -12.59375 C 6.5625 -12.59375 7.597656 -12.3125 8.546875 -11.75 C 9.503906 -11.1875 10.257812 -10.421875 10.8125 -9.453125 C 11.375 -8.492188 11.65625 -7.441406 11.65625 -6.296875 C 11.65625 -5.148438 11.375 -4.09375 10.8125 -3.125 C 10.25 -2.164062 9.488281 -1.40625 8.53125 -0.84375 C 7.582031 -0.28125 6.550781 0 5.4375 0 Z M 5.4375 -2.484375 C 6.082031 -2.484375 6.679688 -2.648438 7.234375 -2.984375 C 7.796875 -3.316406 8.242188 -3.773438 8.578125 -4.359375 C 8.921875 -4.941406 9.09375 -5.585938 9.09375 -6.296875 C 9.09375 -7.003906 8.921875 -7.648438 8.578125 -8.234375 C 8.242188 -8.816406 7.796875 -9.273438 7.234375 -9.609375 C 6.679688 -9.941406 6.082031 -10.109375 5.4375 -10.109375 L 3.828125 -10.109375 L 3.828125 -2.484375 Z M 5.4375 -2.484375 "/></g></g></g><g fill="#ffffff" fill-opacity="1"><g transform="translate(33.784538, 303.180448)"><g><path d="M 9.6875 0 L 1.265625 0 L 1.265625 -12.59375 L 3.828125 -12.59375 L 3.828125 -2.484375 L 9.6875 -2.484375 Z M 9.6875 0 "/></g></g></g><g fill="#ffffff" fill-opacity="1"><g transform="translate(48.328502, 303.180448)"><g><path d="M 3.828125 0 L 1.265625 0 L 1.265625 -12.59375 L 3.828125 -12.59375 Z M 3.828125 0 "/></g></g></g><g fill="#ffffff" fill-opacity="1"><g transform="translate(58.102476, 303.180448)"><g><path d="M 9.78125 -12.59375 L 9.78125 -10.109375 L 3.828125 -10.109375 L 3.828125 -7.09375 L 8.953125 -7.09375 L 8.953125 -4.71875 L 3.828125 -4.71875 L 3.828125 0 L 1.265625 0 L 1.265625 -12.59375 Z M 9.78125 -12.59375 "/></g></g></g><g fill="#ffffff" fill-opacity="1"><g transform="translate(73.078443, 303.180448)"><g><path d="M 3.828125 -5.234375 L 3.828125 -2.453125 L 10.0625 -2.453125 L 10.0625 0 L 1.265625 0 L 1.265625 -12.59375 L 9.875 -12.59375 L 9.875 -10.15625 L 3.828125 -10.15625 L 3.828125 -7.609375 L 9.203125 -7.609375 L 9.203125 -5.234375 Z M 3.828125 -5.234375 "/></g></g></g><g fill="#ffffff" fill-opacity="1"><g transform="translate(88.486401, 303.180448)"><g/></g></g><g fill="#ffffff" fill-opacity="1"><g transform="translate(97.702384, 303.180448)"><g><path d="M 5.40625 0.234375 C 4.4375 0.234375 3.59375 0.0507812 2.875 -0.3125 C 2.164062 -0.675781 1.609375 -1.175781 1.203125 -1.8125 C 0.804688 -2.445312 0.59375 -3.171875 0.5625 -3.984375 L 3.125 -3.984375 C 3.195312 -3.410156 3.425781 -2.945312 3.8125 -2.59375 C 4.195312 -2.238281 4.726562 -2.0625 5.40625 -2.0625 C 6.039062 -2.0625 6.519531 -2.1875 6.84375 -2.4375 C 7.175781 -2.695312 7.34375 -3.015625 7.34375 -3.390625 C 7.34375 -3.703125 7.234375 -3.960938 7.015625 -4.171875 C 6.804688 -4.390625 6.535156 -4.566406 6.203125 -4.703125 C 5.878906 -4.835938 5.429688 -5.003906 4.859375 -5.203125 C 4.015625 -5.472656 3.328125 -5.742188 2.796875 -6.015625 C 2.265625 -6.285156 1.804688 -6.675781 1.421875 -7.1875 C 1.035156 -7.695312 0.84375 -8.363281 0.84375 -9.1875 C 0.84375 -9.875 1.015625 -10.492188 1.359375 -11.046875 C 1.710938 -11.597656 2.222656 -12.03125 2.890625 -12.34375 C 3.554688 -12.664062 4.335938 -12.828125 5.234375 -12.828125 C 6.097656 -12.828125 6.863281 -12.644531 7.53125 -12.28125 C 8.207031 -11.925781 8.738281 -11.4375 9.125 -10.8125 C 9.507812 -10.1875 9.71875 -9.492188 9.75 -8.734375 L 7.1875 -8.734375 C 7.144531 -9.253906 6.945312 -9.679688 6.59375 -10.015625 C 6.25 -10.359375 5.796875 -10.53125 5.234375 -10.53125 C 4.660156 -10.53125 4.210938 -10.398438 3.890625 -10.140625 C 3.578125 -9.878906 3.421875 -9.546875 3.421875 -9.140625 C 3.421875 -8.828125 3.523438 -8.5625 3.734375 -8.34375 C 3.953125 -8.132812 4.21875 -7.960938 4.53125 -7.828125 C 4.851562 -7.691406 5.3125 -7.53125 5.90625 -7.34375 C 6.726562 -7.082031 7.410156 -6.820312 7.953125 -6.5625 C 8.492188 -6.300781 8.957031 -5.921875 9.34375 -5.421875 C 9.726562 -4.929688 9.921875 -4.28125 9.921875 -3.46875 C 9.921875 -2.757812 9.742188 -2.125 9.390625 -1.5625 C 9.035156 -1.007812 8.515625 -0.570312 7.828125 -0.25 C 7.140625 0.0703125 6.332031 0.234375 5.40625 0.234375 Z M 5.40625 0.234375 "/></g></g></g><g fill="#ffffff" fill-opacity="1"><g transform="translate(112.94834, 303.180448)"><g><path d="M 6.78125 0.234375 C 5.675781 0.234375 4.648438 -0.0546875 3.703125 -0.640625 C 2.753906 -1.222656 2 -2.015625 1.4375 -3.015625 C 0.875 -4.015625 0.59375 -5.109375 0.59375 -6.296875 C 0.59375 -7.484375 0.875 -8.578125 1.4375 -9.578125 C 2 -10.585938 2.753906 -11.378906 3.703125 -11.953125 C 4.648438 -12.535156 5.675781 -12.828125 6.78125 -12.828125 C 7.789062 -12.828125 8.691406 -12.601562 9.484375 -12.15625 C 10.273438 -11.707031 10.925781 -11.125 11.4375 -10.40625 C 11.945312 -9.695312 12.296875 -8.9375 12.484375 -8.125 L 9.8125 -8.125 C 9.644531 -8.71875 9.296875 -9.234375 8.765625 -9.671875 C 8.234375 -10.117188 7.570312 -10.34375 6.78125 -10.34375 C 6.132812 -10.34375 5.535156 -10.164062 4.984375 -9.8125 C 4.429688 -9.457031 3.988281 -8.972656 3.65625 -8.359375 C 3.332031 -7.742188 3.171875 -7.054688 3.171875 -6.296875 C 3.171875 -5.546875 3.332031 -4.859375 3.65625 -4.234375 C 3.988281 -3.617188 4.429688 -3.132812 4.984375 -2.78125 C 5.535156 -2.425781 6.132812 -2.25 6.78125 -2.25 C 7.570312 -2.25 8.234375 -2.46875 8.765625 -2.90625 C 9.304688 -3.34375 9.6875 -3.863281 9.90625 -4.46875 L 12.578125 -4.46875 C 12.390625 -3.664062 12.039062 -2.90625 11.53125 -2.1875 C 11.019531 -1.46875 10.359375 -0.882812 9.546875 -0.4375 C 8.734375 0.0078125 7.8125 0.234375 6.78125 0.234375 Z M 6.78125 0.234375 "/></g></g></g><g fill="#ffffff" fill-opacity="1"><g transform="translate(130.714296, 303.180448)"><g><path d="M 3.828125 0 L 1.265625 0 L 1.265625 -12.59375 L 3.828125 -12.59375 Z M 3.828125 0 "/></g></g></g><g fill="#ffffff" fill-opacity="1"><g transform="translate(140.488271, 303.180448)"><g><path d="M 3.828125 -5.234375 L 3.828125 -2.453125 L 10.0625 -2.453125 L 10.0625 0 L 1.265625 0 L 1.265625 -12.59375 L 9.875 -12.59375 L 9.875 -10.15625 L 3.828125 -10.15625 L 3.828125 -7.609375 L 9.203125 -7.609375 L 9.203125 -5.234375 Z M 3.828125 -5.234375 "/></g></g></g><g fill="#ffffff" fill-opacity="1"><g transform="translate(155.896229, 303.180448)"><g><path d="M 9.21875 -4.359375 L 9.21875 -12.59375 L 11.703125 -12.59375 L 11.703125 0 L 9.34375 0 L 3.75 -8.25 L 3.75 0 L 1.265625 0 L 1.265625 -12.59375 L 3.625 -12.59375 Z M 9.21875 -4.359375 "/></g></g></g><g fill="#ffffff" fill-opacity="1"><g transform="translate(173.536185, 303.180448)"><g><path d="M 6.78125 0.234375 C 5.675781 0.234375 4.648438 -0.0546875 3.703125 -0.640625 C 2.753906 -1.222656 2 -2.015625 1.4375 -3.015625 C 0.875 -4.015625 0.59375 -5.109375 0.59375 -6.296875 C 0.59375 -7.484375 0.875 -8.578125 1.4375 -9.578125 C 2 -10.585938 2.753906 -11.378906 3.703125 -11.953125 C 4.648438 -12.535156 5.675781 -12.828125 6.78125 -12.828125 C 7.789062 -12.828125 8.691406 -12.601562 9.484375 -12.15625 C 10.273438 -11.707031 10.925781 -11.125 11.4375 -10.40625 C 11.945312 -9.695312 12.296875 -8.9375 12.484375 -8.125 L 9.8125 -8.125 C 9.644531 -8.71875 9.296875 -9.234375 8.765625 -9.671875 C 8.234375 -10.117188 7.570312 -10.34375 6.78125 -10.34375 C 6.132812 -10.34375 5.535156 -10.164062 4.984375 -9.8125 C 4.429688 -9.457031 3.988281 -8.972656 3.65625 -8.359375 C 3.332031 -7.742188 3.171875 -7.054688 3.171875 -6.296875 C 3.171875 -5.546875 3.332031 -4.859375 3.65625 -4.234375 C 3.988281 -3.617188 4.429688 -3.132812 4.984375 -2.78125 C 5.535156 -2.425781 6.132812 -2.25 6.78125 -2.25 C 7.570312 -2.25 8.234375 -2.46875 8.765625 -2.90625 C 9.304688 -3.34375 9.6875 -3.863281 9.90625 -4.46875 L 12.578125 -4.46875 C 12.390625 -3.664062 12.039062 -2.90625 11.53125 -2.1875 C 11.019531 -1.46875 10.359375 -0.882812 9.546875 -0.4375 C 8.734375 0.0078125 7.8125 0.234375 6.78125 0.234375 Z M 6.78125 0.234375 "/></g></g></g><g fill="#ffffff" fill-opacity="1"><g transform="translate(191.302141, 303.180448)"><g><path d="M 3.828125 -5.234375 L 3.828125 -2.453125 L 10.0625 -2.453125 L 10.0625 0 L 1.265625 0 L 1.265625 -12.59375 L 9.875 -12.59375 L 9.875 -10.15625 L 3.828125 -10.15625 L 3.828125 -7.609375 L 9.203125 -7.609375 L 9.203125 -5.234375 Z M 3.828125 -5.234375 "/></g></g></g><g fill="#ffffff" fill-opacity="1"><g transform="translate(206.710098, 303.180448)"><g/></g></g><g fill="#ffffff" fill-opacity="1"><g transform="translate(215.926082, 303.180448)"><g><path d="M 8.03125 0 L 5.515625 -4.53125 L 3.828125 -4.53125 L 3.828125 0 L 1.265625 0 L 1.265625 -12.59375 L 6.375 -12.59375 C 7.175781 -12.59375 7.898438 -12.421875 8.546875 -12.078125 C 9.191406 -11.734375 9.703125 -11.25 10.078125 -10.625 C 10.453125 -10.007812 10.640625 -9.3125 10.640625 -8.53125 C 10.640625 -7.726562 10.40625 -7.003906 9.9375 -6.359375 C 9.46875 -5.722656 8.832031 -5.25 8.03125 -4.9375 L 11 0 Z M 3.828125 -10.15625 L 3.828125 -6.875 L 6.296875 -6.875 C 6.804688 -6.875 7.226562 -7.023438 7.5625 -7.328125 C 7.894531 -7.640625 8.0625 -8.035156 8.0625 -8.515625 C 8.0625 -8.992188 7.894531 -9.382812 7.5625 -9.6875 C 7.226562 -10 6.804688 -10.15625 6.296875 -10.15625 Z M 3.828125 -10.15625 "/></g></g></g><g fill="#ffffff" fill-opacity="1"><g transform="translate(232.054056, 303.180448)"><g><path d="M 3.828125 -5.234375 L 3.828125 -2.453125 L 10.0625 -2.453125 L 10.0625 0 L 1.265625 0 L 1.265625 -12.59375 L 9.875 -12.59375 L 9.875 -10.15625 L 3.828125 -10.15625 L 3.828125 -7.609375 L 9.203125 -7.609375 L 9.203125 -5.234375 Z M 3.828125 -5.234375 "/></g></g></g><g fill="#ffffff" fill-opacity="1"><g transform="translate(247.462014, 303.180448)"><g><path d="M 5.40625 0.234375 C 4.4375 0.234375 3.59375 0.0507812 2.875 -0.3125 C 2.164062 -0.675781 1.609375 -1.175781 1.203125 -1.8125 C 0.804688 -2.445312 0.59375 -3.171875 0.5625 -3.984375 L 3.125 -3.984375 C 3.195312 -3.410156 3.425781 -2.945312 3.8125 -2.59375 C 4.195312 -2.238281 4.726562 -2.0625 5.40625 -2.0625 C 6.039062 -2.0625 6.519531 -2.1875 6.84375 -2.4375 C 7.175781 -2.695312 7.34375 -3.015625 7.34375 -3.390625 C 7.34375 -3.703125 7.234375 -3.960938 7.015625 -4.171875 C 6.804688 -4.390625 6.535156 -4.566406 6.203125 -4.703125 C 5.878906 -4.835938 5.429688 -5.003906 4.859375 -5.203125 C 4.015625 -5.472656 3.328125 -5.742188 2.796875 -6.015625 C 2.265625 -6.285156 1.804688 -6.675781 1.421875 -7.1875 C 1.035156 -7.695312 0.84375 -8.363281 0.84375 -9.1875 C 0.84375 -9.875 1.015625 -10.492188 1.359375 -11.046875 C 1.710938 -11.597656 2.222656 -12.03125 2.890625 -12.34375 C 3.554688 -12.664062 4.335938 -12.828125 5.234375 -12.828125 C 6.097656 -12.828125 6.863281 -12.644531 7.53125 -12.28125 C 8.207031 -11.925781 8.738281 -11.4375 9.125 -10.8125 C 9.507812 -10.1875 9.71875 -9.492188 9.75 -8.734375 L 7.1875 -8.734375 C 7.144531 -9.253906 6.945312 -9.679688 6.59375 -10.015625 C 6.25 -10.359375 5.796875 -10.53125 5.234375 -10.53125 C 4.660156 -10.53125 4.210938 -10.398438 3.890625 -10.140625 C 3.578125 -9.878906 3.421875 -9.546875 3.421875 -9.140625 C 3.421875 -8.828125 3.523438 -8.5625 3.734375 -8.34375 C 3.953125 -8.132812 4.21875 -7.960938 4.53125 -7.828125 C 4.851562 -7.691406 5.3125 -7.53125 5.90625 -7.34375 C 6.726562 -7.082031 7.410156 -6.820312 7.953125 -6.5625 C 8.492188 -6.300781 8.957031 -5.921875 9.34375 -5.421875 C 9.726562 -4.929688 9.921875 -4.28125 9.921875 -3.46875 C 9.921875 -2.757812 9.742188 -2.125 9.390625 -1.5625 C 9.035156 -1.007812 8.515625 -0.570312 7.828125 -0.25 C 7.140625 0.0703125 6.332031 0.234375 5.40625 0.234375 Z M 5.40625 0.234375 "/></g></g></g><g fill="#ffffff" fill-opacity="1"><g transform="translate(262.70797, 303.180448)"><g><path d="M 3.828125 -5.234375 L 3.828125 -2.453125 L 10.0625 -2.453125 L 10.0625 0 L 1.265625 0 L 1.265625 -12.59375 L 9.875 -12.59375 L 9.875 -10.15625 L 3.828125 -10.15625 L 3.828125 -7.609375 L 9.203125 -7.609375 L 9.203125 -5.234375 Z M 3.828125 -5.234375 "/></g></g></g><g fill="#ffffff" fill-opacity="1"><g transform="translate(278.115927, 303.180448)"><g><path d="M 11.796875 0 L 9.09375 0 L 8.171875 -2.59375 L 3.421875 -2.59375 L 2.5 0 L -0.109375 0 L 4.59375 -12.59375 L 7.109375 -12.59375 Z M 7.328125 -4.96875 L 5.796875 -9.390625 L 4.265625 -4.96875 Z M 7.328125 -4.96875 "/></g></g></g><g fill="#ffffff" fill-opacity="1"><g transform="translate(294.477865, 303.180448)"><g><path d="M 8.03125 0 L 5.515625 -4.53125 L 3.828125 -4.53125 L 3.828125 0 L 1.265625 0 L 1.265625 -12.59375 L 6.375 -12.59375 C 7.175781 -12.59375 7.898438 -12.421875 8.546875 -12.078125 C 9.191406 -11.734375 9.703125 -11.25 10.078125 -10.625 C 10.453125 -10.007812 10.640625 -9.3125 10.640625 -8.53125 C 10.640625 -7.726562 10.40625 -7.003906 9.9375 -6.359375 C 9.46875 -5.722656 8.832031 -5.25 8.03125 -4.9375 L 11 0 Z M 3.828125 -10.15625 L 3.828125 -6.875 L 6.296875 -6.875 C 6.804688 -6.875 7.226562 -7.023438 7.5625 -7.328125 C 7.894531 -7.640625 8.0625 -8.035156 8.0625 -8.515625 C 8.0625 -8.992188 7.894531 -9.382812 7.5625 -9.6875 C 7.226562 -10 6.804688 -10.15625 6.296875 -10.15625 Z M 3.828125 -10.15625 "/></g></g></g><g fill="#ffffff" fill-opacity="1"><g transform="translate(310.605839, 303.180448)"><g><path d="M 6.78125 0.234375 C 5.675781 0.234375 4.648438 -0.0546875 3.703125 -0.640625 C 2.753906 -1.222656 2 -2.015625 1.4375 -3.015625 C 0.875 -4.015625 0.59375 -5.109375 0.59375 -6.296875 C 0.59375 -7.484375 0.875 -8.578125 1.4375 -9.578125 C 2 -10.585938 2.753906 -11.378906 3.703125 -11.953125 C 4.648438 -12.535156 5.675781 -12.828125 6.78125 -12.828125 C 7.789062 -12.828125 8.691406 -12.601562 9.484375 -12.15625 C 10.273438 -11.707031 10.925781 -11.125 11.4375 -10.40625 C 11.945312 -9.695312 12.296875 -8.9375 12.484375 -8.125 L 9.8125 -8.125 C 9.644531 -8.71875 9.296875 -9.234375 8.765625 -9.671875 C 8.234375 -10.117188 7.570312 -10.34375 6.78125 -10.34375 C 6.132812 -10.34375 5.535156 -10.164062 4.984375 -9.8125 C 4.429688 -9.457031 3.988281 -8.972656 3.65625 -8.359375 C 3.332031 -7.742188 3.171875 -7.054688 3.171875 -6.296875 C 3.171875 -5.546875 3.332031 -4.859375 3.65625 -4.234375 C 3.988281 -3.617188 4.429688 -3.132812 4.984375 -2.78125 C 5.535156 -2.425781 6.132812 -2.25 6.78125 -2.25 C 7.570312 -2.25 8.234375 -2.46875 8.765625 -2.90625 C 9.304688 -3.34375 9.6875 -3.863281 9.90625 -4.46875 L 12.578125 -4.46875 C 12.390625 -3.664062 12.039062 -2.90625 11.53125 -2.1875 C 11.019531 -1.46875 10.359375 -0.882812 9.546875 -0.4375 C 8.734375 0.0078125 7.8125 0.234375 6.78125 0.234375 Z M 6.78125 0.234375 "/></g></g></g><g fill="#ffffff" fill-opacity="1"><g transform="translate(328.371783, 303.180448)"><g><path d="M 8.984375 -7.6875 L 8.984375 -12.59375 L 11.5625 -12.59375 L 11.5625 0 L 8.984375 0 L 8.984375 -5.203125 L 3.828125 -5.203125 L 3.828125 0 L 1.265625 0 L 1.265625 -12.59375 L 3.828125 -12.59375 L 3.828125 -7.6875 Z M 8.984375 -7.6875 "/></g></g></g><path fill="#ffffff" d="M 189.4375 125.023438 C 189.066406 128.34375 188.835938 130.765625 188.742188 132.304688 L 189.992188 132.304688 C 189.8125 130.339844 189.625 127.910156 189.4375 125.023438 Z M 189.4375 125.023438 " fill-opacity="1" fill-rule="nonzero"/><path fill="#ffffff" d="M 107.8125 135.929688 C 108.058594 135.929688 108.21875 135.792969 108.289062 135.523438 C 108.363281 135.257812 108.390625 134.605469 108.390625 133.582031 L 108.390625 125.613281 C 108.390625 124.804688 108.355469 124.292969 108.28125 124.070312 C 108.210938 123.84375 108.066406 123.730469 107.835938 123.730469 C 107.648438 123.730469 107.503906 123.824219 107.402344 124.003906 C 107.300781 124.183594 107.25 124.726562 107.25 125.613281 L 107.25 133.710938 C 107.25 134.714844 107.285156 135.34375 107.351562 135.574219 C 107.417969 135.8125 107.566406 135.929688 107.8125 135.929688 Z M 107.8125 135.929688 " fill-opacity="1" fill-rule="nonzero"/><path fill="#ffffff" d="M 124.480469 161.464844 C 124.34375 161.363281 124.082031 161.316406 123.691406 161.316406 L 123.691406 172.726562 C 124.199219 172.726562 124.507812 172.597656 124.625 172.335938 C 124.738281 172.078125 124.796875 171.371094 124.796875 170.207031 L 124.796875 163.472656 C 124.796875 162.6875 124.777344 162.179688 124.738281 161.964844 C 124.703125 161.746094 124.609375 161.582031 124.472656 161.472656 Z M 124.480469 161.464844 " fill-opacity="1" fill-rule="nonzero"/><path fill="#ffffff" d="M 105.25 169.492188 L 106.457031 169.492188 C 106.277344 167.53125 106.101562 165.097656 105.921875 162.210938 C 105.5625 165.53125 105.335938 167.957031 105.25 169.492188 Z M 105.25 169.492188 " fill-opacity="1" fill-rule="nonzero"/><path fill="#ffffff" d="M 204.855469 125.023438 C 204.484375 128.34375 204.253906 130.765625 204.160156 132.304688 L 205.410156 132.304688 C 205.230469 130.339844 205.042969 127.910156 204.855469 125.023438 Z M 204.855469 125.023438 " fill-opacity="1" fill-rule="nonzero"/><path fill="#ffffff" d="M 98.957031 126.414062 L 98.957031 125.460938 C 98.957031 124.914062 98.878906 124.550781 98.71875 124.378906 C 98.558594 124.207031 98.269531 124.121094 97.851562 124.121094 L 97.851562 127.972656 C 98.257812 127.972656 98.546875 127.902344 98.710938 127.765625 C 98.878906 127.628906 98.957031 127.171875 98.957031 126.40625 Z M 98.957031 126.414062 " fill-opacity="1" fill-rule="nonzero"/><path fill="#ffffff" d="M 223.636719 161.308594 L 223.636719 165.160156 C 224.03125 165.160156 224.308594 165.089844 224.464844 164.953125 C 224.625 164.816406 224.703125 164.359375 224.703125 163.59375 L 224.703125 162.644531 C 224.703125 162.09375 224.625 161.734375 224.472656 161.558594 C 224.320312 161.386719 224.039062 161.300781 223.636719 161.300781 Z M 223.636719 161.308594 " fill-opacity="1" fill-rule="nonzero"/><path fill="#ffffff" d="M 148.21875 126.414062 L 148.21875 125.460938 C 148.21875 124.914062 148.140625 124.550781 147.980469 124.378906 C 147.824219 124.207031 147.535156 124.121094 147.117188 124.121094 L 147.117188 127.972656 C 147.519531 127.972656 147.808594 127.902344 147.976562 127.765625 C 148.140625 127.628906 148.21875 127.171875 148.21875 126.40625 Z M 148.21875 126.414062 " fill-opacity="1" fill-rule="nonzero"/><path fill="#ffffff" d="M 180.660156 133.011719 L 180.660156 126.277344 C 180.660156 125.492188 180.636719 124.984375 180.601562 124.769531 C 180.566406 124.550781 180.472656 124.386719 180.328125 124.277344 C 180.183594 124.175781 179.914062 124.125 179.519531 124.125 L 179.519531 135.539062 C 180.039062 135.539062 180.363281 135.410156 180.484375 135.148438 C 180.609375 134.890625 180.667969 134.179688 180.667969 133.019531 Z M 180.660156 133.011719 " fill-opacity="1" fill-rule="nonzero"/><g clip-path="url(#c46cd14fe7)"><path fill="#ffffff" d="M 308.730469 172.378906 C 296.800781 155.34375 288.007812 133.378906 276.089844 116.714844 C 273.390625 112.9375 273.035156 112.738281 268.417969 112.316406 L 86.945312 112.410156 L 109.921875 72.335938 L 165.320312 72.128906 L 166.714844 73.144531 L 180.414062 96.769531 C 186.058594 96.980469 191.710938 96.8125 197.363281 96.914062 C 198.054688 96.929688 199.253906 97.261719 198.8125 96.523438 C 193.859375 88.171875 177.144531 59.257812 177.144531 59.257812 C 175.160156 56.117188 172.472656 56.109375 169.246094 56.101562 C 150.523438 56.058594 125.316406 56.058594 104.710938 56.058594 C 103.09375 56.074219 101.699219 56.910156 100.445312 57.855469 L 65.933594 117.515625 C 64.402344 119.851562 65.71875 122.546875 66.511719 124.878906 L 99.128906 180.550781 C 101.070312 182.890625 103.359375 184.203125 106.363281 184.695312 L 287.828125 184.585938 L 264.851562 224.660156 L 209.453125 224.890625 L 208.519531 224.140625 L 194.8125 200.523438 C 194.179688 199.988281 180.167969 199.996094 178.226562 200.105469 C 177.605469 200.140625 176.667969 199.925781 176.429688 200.746094 L 198.125 237.609375 C 199.859375 239.394531 201.46875 240.28125 203.910156 240.785156 C 224.695312 240.324219 246.035156 241.089844 266.894531 240.96875 C 271.398438 240.9375 273.59375 241.132812 276.496094 236.96875 C 287.226562 218.332031 301.109375 194.675781 308.757812 180.679688 C 310.085938 178.253906 310.085938 175.40625 308.722656 172.378906 Z M 263.78125 121.152344 L 269.832031 121.152344 L 269.832031 124.625 L 267.40625 124.625 L 267.40625 127.917969 L 269.671875 127.917969 L 269.671875 131.214844 L 267.40625 131.214844 L 267.40625 135.027344 L 270.070312 135.027344 L 270.070312 138.496094 L 263.777344 138.496094 L 263.777344 121.152344 Z M 253.910156 127.273438 C 253.910156 126.023438 253.945312 125.085938 254.007812 124.457031 C 254.082031 123.832031 254.285156 123.230469 254.625 122.652344 C 254.960938 122.078125 255.4375 121.621094 256.046875 121.289062 C 256.652344 120.957031 257.34375 120.792969 258.136719 120.792969 C 259.207031 120.792969 260.085938 121.050781 260.789062 121.5625 C 261.480469 122.078125 261.941406 122.71875 262.160156 123.484375 C 262.375 124.25 262.484375 125.441406 262.484375 127.0625 L 262.484375 128.710938 L 258.851562 128.710938 L 258.851562 125.691406 C 258.851562 124.820312 258.816406 124.269531 258.738281 124.054688 C 258.660156 123.835938 258.492188 123.730469 258.226562 123.730469 C 257.929688 123.730469 257.734375 123.859375 257.65625 124.125 C 257.574219 124.394531 257.53125 124.964844 257.53125 125.84375 L 257.53125 133.898438 C 257.53125 134.746094 257.574219 135.292969 257.65625 135.554688 C 257.734375 135.8125 257.914062 135.941406 258.195312 135.941406 C 258.476562 135.941406 258.644531 135.8125 258.722656 135.554688 C 258.808594 135.292969 258.847656 134.6875 258.847656 133.742188 L 258.847656 131.5625 L 262.476562 131.5625 L 262.476562 132.238281 C 262.476562 134.039062 262.375 135.308594 262.171875 136.058594 C 261.972656 136.808594 261.515625 137.464844 260.816406 138.027344 C 260.117188 138.59375 259.257812 138.875 258.230469 138.875 C 257.207031 138.875 256.289062 138.636719 255.605469 138.152344 C 254.910156 137.675781 254.457031 137.011719 254.234375 136.167969 C 254.007812 135.320312 253.894531 134.042969 253.894531 132.347656 L 253.894531 127.28125 Z M 244.453125 121.152344 L 247.484375 121.152344 L 249.519531 128.960938 L 249.519531 121.152344 L 252.550781 121.152344 L 252.550781 138.496094 L 249.367188 138.496094 L 247.484375 130.617188 L 247.484375 138.496094 L 244.453125 138.496094 Z M 237.121094 121.152344 L 243.167969 121.152344 L 243.167969 124.625 L 240.742188 124.625 L 240.742188 127.917969 L 243.007812 127.917969 L 243.007812 131.214844 L 240.742188 131.214844 L 240.742188 135.027344 L 243.40625 135.027344 L 243.40625 138.496094 L 237.113281 138.496094 L 237.113281 121.152344 Z M 232.03125 121.152344 L 235.660156 121.152344 L 235.660156 138.496094 L 232.03125 138.496094 Z M 222.15625 127.273438 C 222.15625 126.023438 222.191406 125.085938 222.257812 124.457031 C 222.328125 123.832031 222.53125 123.230469 222.871094 122.652344 C 223.210938 122.078125 223.6875 121.621094 224.292969 121.289062 C 224.898438 120.957031 225.59375 120.792969 226.386719 120.792969 C 227.453125 120.792969 228.335938 121.050781 229.035156 121.5625 C 229.726562 122.078125 230.191406 122.71875 230.40625 123.484375 C 230.621094 124.25 230.730469 125.441406 230.730469 127.0625 L 230.730469 128.710938 L 227.101562 128.710938 L 227.101562 125.691406 C 227.101562 124.820312 227.0625 124.269531 226.984375 124.054688 C 226.90625 123.835938 226.738281 123.730469 226.472656 123.730469 C 226.175781 123.730469 225.980469 123.859375 225.902344 124.125 C 225.824219 124.394531 225.78125 124.964844 225.78125 125.84375 L 225.78125 133.898438 C 225.78125 134.746094 225.824219 135.292969 225.902344 135.554688 C 225.980469 135.8125 226.160156 135.941406 226.445312 135.941406 C 226.726562 135.941406 226.890625 135.8125 226.96875 135.554688 C 227.058594 135.292969 227.09375 134.6875 227.09375 133.742188 L 227.09375 131.5625 L 230.722656 131.5625 L 230.722656 132.238281 C 230.722656 134.039062 230.621094 135.308594 230.421875 136.058594 C 230.21875 136.808594 229.765625 137.464844 229.0625 138.027344 C 228.363281 138.59375 227.503906 138.875 226.480469 138.875 C 225.453125 138.875 224.539062 138.636719 223.851562 138.152344 C 223.160156 137.675781 222.703125 137.011719 222.480469 136.167969 C 222.257812 135.320312 222.140625 134.042969 222.140625 132.347656 L 222.140625 127.28125 Z M 213.242188 122.753906 C 213.515625 122.140625 213.957031 121.65625 214.5625 121.3125 C 215.167969 120.964844 215.90625 120.792969 216.769531 120.792969 C 217.710938 120.792969 218.519531 120.980469 219.183594 121.363281 C 219.847656 121.738281 220.285156 122.214844 220.503906 122.792969 C 220.71875 123.367188 220.828125 124.34375 220.828125 125.722656 L 220.828125 126.40625 L 217.457031 126.40625 L 217.457031 125.121094 C 217.457031 124.523438 217.414062 124.140625 217.328125 123.976562 C 217.242188 123.808594 217.097656 123.730469 216.894531 123.730469 C 216.675781 123.730469 216.511719 123.835938 216.394531 124.0625 C 216.28125 124.285156 216.230469 124.617188 216.230469 125.070312 C 216.230469 125.648438 216.292969 126.089844 216.417969 126.378906 C 216.539062 126.675781 216.878906 127.027344 217.441406 127.441406 C 219.058594 128.628906 220.078125 129.613281 220.496094 130.371094 C 220.914062 131.128906 221.125 132.371094 221.125 134.066406 C 221.125 135.300781 221.007812 136.210938 220.777344 136.800781 C 220.546875 137.386719 220.089844 137.878906 219.425781 138.273438 C 218.761719 138.671875 217.984375 138.867188 217.101562 138.867188 C 216.136719 138.867188 215.304688 138.636719 214.621094 138.179688 C 213.933594 137.726562 213.488281 137.140625 213.269531 136.433594 C 213.0625 135.726562 212.953125 134.722656 212.953125 133.421875 L 212.953125 132.289062 L 216.324219 132.289062 L 216.324219 134.398438 C 216.324219 135.046875 216.375 135.464844 216.46875 135.652344 C 216.5625 135.839844 216.726562 135.933594 216.972656 135.933594 C 217.21875 135.933594 217.390625 135.820312 217.515625 135.582031 C 217.636719 135.34375 217.6875 134.996094 217.6875 134.535156 C 217.6875 133.511719 217.574219 132.847656 217.355469 132.527344 C 217.125 132.210938 216.5625 131.691406 215.660156 130.953125 C 214.757812 130.210938 214.160156 129.671875 213.871094 129.339844 C 213.582031 129.007812 213.335938 128.535156 213.140625 127.945312 C 212.945312 127.351562 212.851562 126.59375 212.851562 125.671875 C 212.851562 124.34375 212.988281 123.367188 213.261719 122.753906 Z M 207.328125 121.152344 L 209.402344 138.496094 L 205.691406 138.496094 L 205.496094 135.378906 L 204.195312 135.378906 L 203.980469 138.496094 L 200.226562 138.496094 L 202.074219 121.152344 Z M 193.007812 121.152344 L 200.941406 121.152344 L 200.941406 124.625 L 198.785156 124.625 L 198.785156 138.496094 L 195.152344 138.496094 L 195.152344 124.625 L 193.007812 124.625 Z M 186.664062 121.152344 L 191.910156 121.152344 L 193.984375 138.496094 L 190.273438 138.496094 L 190.078125 135.378906 L 188.777344 135.378906 L 188.5625 138.496094 L 184.808594 138.496094 L 186.65625 121.152344 Z M 175.878906 121.152344 L 178.59375 121.152344 C 180.347656 121.152344 181.53125 121.253906 182.144531 121.457031 C 182.757812 121.65625 183.234375 121.984375 183.554688 122.445312 C 183.878906 122.898438 184.074219 123.410156 184.160156 123.976562 C 184.238281 124.539062 184.28125 125.636719 184.28125 127.28125 L 184.28125 133.359375 C 184.28125 134.917969 184.222656 135.957031 184.109375 136.484375 C 183.992188 137.011719 183.785156 137.421875 183.496094 137.71875 C 183.199219 138.015625 182.839844 138.222656 182.414062 138.339844 C 181.980469 138.453125 181.332031 138.519531 180.464844 138.519531 L 175.886719 138.519531 L 175.886719 121.175781 Z M 165.746094 121.152344 L 171.890625 121.152344 L 171.890625 124.625 L 169.371094 124.625 L 169.371094 127.917969 L 171.605469 127.917969 L 171.605469 131.214844 L 169.371094 131.214844 L 169.371094 138.496094 L 165.738281 138.496094 L 165.738281 121.152344 Z M 156 128.34375 C 156 126.601562 156.03125 125.367188 156.101562 124.640625 C 156.167969 123.917969 156.378906 123.253906 156.722656 122.652344 C 157.070312 122.054688 157.539062 121.59375 158.132812 121.269531 C 158.722656 120.949219 159.410156 120.785156 160.203125 120.785156 C 160.945312 120.785156 161.617188 120.9375 162.214844 121.238281 C 162.808594 121.542969 163.292969 121.996094 163.652344 122.605469 C 164.015625 123.210938 164.230469 123.875 164.300781 124.589844 C 164.375 125.304688 164.402344 126.550781 164.402344 128.335938 L 164.402344 131.300781 C 164.402344 133.046875 164.367188 134.273438 164.300781 135.003906 C 164.238281 135.726562 164.027344 136.390625 163.683594 136.988281 C 163.335938 137.589844 162.867188 138.050781 162.273438 138.375 C 161.683594 138.699219 160.996094 138.859375 160.203125 138.859375 C 159.410156 138.859375 158.789062 138.707031 158.1875 138.402344 C 157.597656 138.101562 157.113281 137.644531 156.753906 137.039062 C 156.390625 136.433594 156.175781 135.769531 156.101562 135.054688 C 156.03125 134.339844 156 133.089844 156 131.300781 L 156 128.335938 Z M 143.484375 121.152344 L 146.054688 121.152344 C 147.765625 121.152344 148.929688 121.230469 149.535156 121.398438 C 150.140625 121.5625 150.632812 121.984375 151.015625 122.652344 C 151.394531 123.324219 151.585938 124.40625 151.585938 125.878906 C 151.585938 127.230469 151.445312 128.140625 151.179688 128.601562 C 150.90625 129.0625 150.378906 129.34375 149.585938 129.4375 C 150.300781 129.664062 150.78125 129.957031 151.035156 130.328125 C 151.28125 130.695312 151.433594 131.042969 151.496094 131.351562 C 151.554688 131.664062 151.585938 132.519531 151.585938 133.914062 L 151.585938 138.492188 L 148.214844 138.492188 L 148.214844 132.730469 C 148.214844 131.800781 148.15625 131.230469 148.03125 131.003906 C 147.910156 130.78125 147.605469 130.671875 147.109375 130.671875 L 147.109375 138.492188 L 143.476562 138.492188 L 143.476562 121.144531 Z M 136.152344 121.152344 L 142.199219 121.152344 L 142.199219 124.625 L 139.78125 124.625 L 139.78125 127.917969 L 142.050781 127.917969 L 142.050781 131.214844 L 139.78125 131.214844 L 139.78125 135.027344 L 142.445312 135.027344 L 142.445312 138.496094 L 136.152344 138.496094 Z M 131.070312 121.152344 L 134.699219 121.152344 L 134.699219 138.496094 L 131.070312 138.496094 Z M 122.308594 121.152344 L 130.238281 121.152344 L 130.238281 124.625 L 128.082031 124.625 L 128.082031 138.496094 L 124.449219 138.496094 L 124.449219 124.625 L 122.308594 124.625 Z M 113.371094 121.152344 L 116.402344 121.152344 L 118.4375 128.960938 L 118.4375 121.152344 L 121.46875 121.152344 L 121.46875 138.496094 L 118.285156 138.496094 L 116.402344 130.617188 L 116.402344 138.496094 L 113.371094 138.496094 Z M 103.625 128.34375 C 103.625 126.601562 103.65625 125.367188 103.726562 124.640625 C 103.792969 123.917969 104.003906 123.253906 104.347656 122.652344 C 104.695312 122.054688 105.164062 121.59375 105.757812 121.269531 C 106.347656 120.949219 107.035156 120.785156 107.828125 120.785156 C 108.570312 120.785156 109.242188 120.9375 109.839844 121.238281 C 110.433594 121.542969 110.917969 121.996094 111.277344 122.605469 C 111.640625 123.210938 111.855469 123.875 111.925781 124.589844 C 112 125.304688 112.027344 126.550781 112.027344 128.335938 L 112.027344 131.300781 C 112.027344 133.046875 111.992188 134.273438 111.925781 135.003906 C 111.863281 135.726562 111.652344 136.390625 111.308594 136.988281 C 110.960938 137.589844 110.492188 138.050781 109.898438 138.375 C 109.308594 138.699219 108.621094 138.859375 107.828125 138.859375 C 107.035156 138.859375 106.414062 138.707031 105.8125 138.402344 C 105.222656 138.101562 104.738281 137.644531 104.378906 137.039062 C 104.015625 136.433594 103.800781 135.769531 103.726562 135.054688 C 103.65625 134.339844 103.625 133.089844 103.625 131.300781 L 103.625 128.335938 Z M 94.222656 121.152344 L 96.792969 121.152344 C 98.5 121.152344 99.664062 121.230469 100.269531 121.398438 C 100.875 121.5625 101.367188 121.984375 101.75 122.652344 C 102.132812 123.324219 102.320312 124.40625 102.320312 125.878906 C 102.320312 127.230469 102.183594 128.140625 101.914062 128.601562 C 101.640625 129.0625 101.113281 129.34375 100.320312 129.4375 C 101.035156 129.664062 101.519531 129.957031 101.773438 130.328125 C 102.015625 130.695312 102.167969 131.042969 102.234375 131.351562 C 102.292969 131.664062 102.320312 132.519531 102.320312 133.914062 L 102.320312 138.492188 L 98.949219 138.492188 L 98.949219 132.730469 C 98.949219 131.800781 98.890625 131.230469 98.769531 131.003906 C 98.644531 130.78125 98.34375 130.671875 97.84375 130.671875 L 97.84375 138.492188 L 94.214844 138.492188 L 94.214844 121.144531 Z M 90.828125 138.496094 L 87.199219 138.496094 L 87.199219 121.152344 L 93.339844 121.152344 L 93.339844 124.625 L 90.820312 124.625 L 90.820312 127.917969 L 93.058594 127.917969 L 93.058594 131.214844 L 90.820312 131.214844 L 90.820312 138.496094 Z M 94.632812 150.113281 L 92.054688 146.742188 L 280.355469 146.742188 L 282.933594 150.113281 Z M 106.746094 175.6875 L 106.558594 172.566406 L 105.300781 172.566406 L 105.09375 175.6875 L 101.460938 175.6875 L 103.25 158.339844 L 108.324219 158.339844 L 110.332031 175.6875 Z M 118.769531 175.6875 L 115.6875 175.6875 L 113.863281 167.804688 L 113.863281 175.6875 L 110.925781 175.6875 L 110.925781 158.339844 L 113.863281 158.339844 L 115.832031 166.152344 L 115.832031 158.339844 L 118.769531 158.339844 Z M 128.320312 170.53125 C 128.320312 172.089844 128.261719 173.128906 128.148438 173.65625 C 128.03125 174.183594 127.835938 174.597656 127.546875 174.890625 C 127.265625 175.1875 126.914062 175.398438 126.492188 175.511719 C 126.074219 175.628906 125.445312 175.691406 124.609375 175.691406 L 120.179688 175.691406 L 120.179688 158.347656 L 122.804688 158.347656 C 124.5 158.347656 125.648438 158.449219 126.25 158.652344 C 126.847656 158.851562 127.300781 159.179688 127.613281 159.640625 C 127.921875 160.101562 128.117188 160.605469 128.199219 161.171875 C 128.277344 161.734375 128.3125 162.832031 128.3125 164.476562 L 128.3125 170.554688 Z M 138.289062 175.6875 L 132.636719 175.6875 L 132.636719 158.339844 L 136.152344 158.339844 L 136.152344 172.214844 L 138.289062 172.214844 Z M 142.65625 175.6875 L 139.140625 175.6875 L 139.140625 158.339844 L 142.65625 158.339844 Z M 150.011719 161.8125 L 147.570312 161.8125 L 147.570312 165.105469 L 149.742188 165.105469 L 149.742188 168.402344 L 147.570312 168.402344 L 147.570312 175.6875 L 144.054688 175.6875 L 144.054688 158.339844 L 150.003906 158.339844 L 150.003906 161.8125 Z M 156.953125 175.6875 L 150.863281 175.6875 L 150.863281 158.339844 L 156.722656 158.339844 L 156.722656 161.8125 L 154.378906 161.8125 L 154.378906 165.105469 L 156.570312 165.105469 L 156.570312 168.402344 L 154.378906 168.402344 L 154.378906 172.214844 L 156.953125 172.214844 Z M 168.375 173.980469 C 168.148438 174.566406 167.710938 175.058594 167.066406 175.453125 C 166.425781 175.851562 165.675781 176.046875 164.816406 176.046875 C 163.875 176.046875 163.074219 175.816406 162.410156 175.359375 C 161.746094 174.90625 161.3125 174.320312 161.105469 173.613281 C 160.894531 172.90625 160.792969 171.902344 160.792969 170.605469 L 160.792969 169.472656 L 164.058594 169.472656 L 164.058594 171.578125 C 164.058594 172.226562 164.101562 172.648438 164.195312 172.835938 C 164.289062 173.023438 164.445312 173.117188 164.683594 173.117188 C 164.921875 173.117188 165.089844 173 165.203125 172.761719 C 165.320312 172.523438 165.378906 172.179688 165.378906 171.714844 C 165.378906 170.691406 165.269531 170.027344 165.054688 169.710938 C 164.828125 169.390625 164.28125 168.871094 163.40625 168.136719 C 162.535156 167.390625 161.957031 166.851562 161.675781 166.519531 C 161.394531 166.1875 161.15625 165.71875 160.96875 165.125 C 160.78125 164.535156 160.6875 163.777344 160.6875 162.851562 C 160.6875 161.523438 160.816406 160.550781 161.082031 159.9375 C 161.351562 159.324219 161.777344 158.839844 162.359375 158.492188 C 162.953125 158.144531 163.660156 157.972656 164.496094 157.972656 C 165.40625 157.972656 166.1875 158.160156 166.828125 158.542969 C 167.472656 158.917969 167.898438 159.394531 168.105469 159.972656 C 168.316406 160.550781 168.417969 161.523438 168.417969 162.902344 L 168.417969 163.589844 L 165.152344 163.589844 L 165.152344 162.304688 C 165.152344 161.703125 165.109375 161.320312 165.03125 161.15625 C 164.945312 160.988281 164.808594 160.910156 164.613281 160.910156 C 164.402344 160.910156 164.246094 161.019531 164.128906 161.242188 C 164.019531 161.464844 163.964844 161.796875 163.964844 162.253906 C 163.964844 162.832031 164.019531 163.269531 164.144531 163.558594 C 164.257812 163.855469 164.589844 164.210938 165.140625 164.621094 C 166.707031 165.8125 167.6875 166.792969 168.09375 167.550781 C 168.496094 168.316406 168.699219 169.550781 168.699219 171.246094 C 168.699219 172.480469 168.582031 173.390625 168.359375 173.980469 Z M 178.015625 165.890625 L 174.5 165.890625 L 174.5 162.875 C 174.5 162 174.464844 161.453125 174.386719 161.234375 C 174.3125 161.019531 174.148438 160.910156 173.886719 160.910156 C 173.597656 160.910156 173.417969 161.039062 173.339844 161.308594 C 173.261719 161.574219 173.222656 162.144531 173.222656 163.023438 L 173.222656 171.082031 C 173.222656 171.925781 173.261719 172.472656 173.339844 172.734375 C 173.417969 172.992188 173.59375 173.125 173.867188 173.125 C 174.140625 173.125 174.300781 172.992188 174.378906 172.734375 C 174.457031 172.472656 174.5 171.867188 174.5 170.921875 L 174.5 168.742188 L 178.015625 168.742188 L 178.015625 169.421875 C 178.015625 171.21875 177.914062 172.488281 177.722656 173.238281 C 177.527344 173.988281 177.085938 174.644531 176.40625 175.210938 C 175.730469 175.773438 174.898438 176.054688 173.910156 176.054688 C 172.921875 176.054688 172.03125 175.816406 171.363281 175.332031 C 170.699219 174.855469 170.25 174.191406 170.035156 173.347656 C 169.816406 172.503906 169.707031 171.226562 169.707031 169.527344 L 169.707031 164.460938 C 169.707031 163.214844 169.746094 162.273438 169.808594 161.648438 C 169.875 161.019531 170.078125 160.417969 170.410156 159.84375 C 170.742188 159.265625 171.195312 158.808594 171.789062 158.476562 C 172.371094 158.144531 173.050781 157.980469 173.808594 157.980469 C 174.839844 157.980469 175.699219 158.238281 176.371094 158.753906 C 177.042969 159.265625 177.484375 159.90625 177.699219 160.671875 C 177.910156 161.4375 178.015625 162.628906 178.015625 164.253906 L 178.015625 165.898438 Z M 182.789062 175.6875 L 179.273438 175.6875 L 179.273438 158.339844 L 182.789062 158.339844 Z M 190.289062 175.6875 L 184.195312 175.6875 L 184.195312 158.339844 L 190.050781 158.339844 L 190.050781 161.8125 L 187.703125 161.8125 L 187.703125 165.105469 L 189.898438 165.105469 L 189.898438 168.402344 L 187.703125 168.402344 L 187.703125 172.214844 L 190.28125 172.214844 L 190.28125 175.6875 Z M 199.144531 175.6875 L 196.0625 175.6875 L 194.234375 167.804688 L 194.234375 175.6875 L 191.296875 175.6875 L 191.296875 158.339844 L 194.234375 158.339844 L 196.207031 166.152344 L 196.207031 158.339844 L 199.144531 158.339844 Z M 208.75 165.890625 L 205.238281 165.890625 L 205.238281 162.875 C 205.238281 162 205.199219 161.453125 205.121094 161.234375 C 205.050781 161.019531 204.882812 160.910156 204.625 160.910156 C 204.335938 160.910156 204.148438 161.039062 204.074219 161.308594 C 203.996094 161.574219 203.960938 162.144531 203.960938 163.023438 L 203.960938 171.082031 C 203.960938 171.925781 203.996094 172.472656 204.074219 172.734375 C 204.152344 172.992188 204.328125 173.125 204.601562 173.125 C 204.875 173.125 205.035156 172.992188 205.113281 172.734375 C 205.191406 172.472656 205.238281 171.867188 205.238281 170.921875 L 205.238281 168.742188 L 208.75 168.742188 L 208.75 169.421875 C 208.75 171.21875 208.652344 172.488281 208.457031 173.238281 C 208.261719 173.988281 207.820312 174.644531 207.148438 175.210938 C 206.472656 175.773438 205.640625 176.054688 204.652344 176.054688 C 203.664062 176.054688 202.773438 175.816406 202.105469 175.332031 C 201.441406 174.855469 200.992188 174.191406 200.777344 173.347656 C 200.558594 172.503906 200.449219 171.226562 200.449219 169.527344 L 200.449219 164.460938 C 200.449219 163.214844 200.488281 162.273438 200.550781 161.648438 C 200.617188 161.019531 200.820312 160.417969 201.152344 159.84375 C 201.484375 159.265625 201.9375 158.808594 202.53125 158.476562 C 203.113281 158.144531 203.792969 157.980469 204.550781 157.980469 C 205.582031 157.980469 206.441406 158.238281 207.113281 158.753906 C 207.785156 159.265625 208.226562 159.90625 208.441406 160.671875 C 208.652344 161.4375 208.757812 162.628906 208.757812 164.253906 L 208.757812 165.898438 Z M 216.105469 175.6875 L 210.015625 175.6875 L 210.015625 158.339844 L 215.875 158.339844 L 215.875 161.8125 L 213.53125 161.8125 L 213.53125 165.105469 L 215.722656 165.105469 L 215.722656 168.402344 L 213.53125 168.402344 L 213.53125 172.214844 L 216.105469 172.214844 Z M 227.433594 167.523438 C 227.671875 167.890625 227.820312 168.238281 227.878906 168.546875 C 227.9375 168.859375 227.964844 169.714844 227.964844 171.109375 L 227.964844 175.6875 L 224.703125 175.6875 L 224.703125 169.925781 C 224.703125 168.996094 224.644531 168.425781 224.53125 168.199219 C 224.414062 167.976562 224.121094 167.867188 223.636719 167.867188 L 223.636719 175.6875 L 220.121094 175.6875 L 220.121094 158.339844 L 222.609375 158.339844 C 224.269531 158.339844 225.390625 158.421875 225.972656 158.585938 C 226.558594 158.753906 227.042969 159.171875 227.410156 159.84375 C 227.777344 160.511719 227.964844 161.597656 227.964844 163.070312 C 227.964844 164.417969 227.835938 165.328125 227.578125 165.789062 C 227.316406 166.25 226.796875 166.535156 226.03125 166.628906 C 226.726562 166.851562 227.195312 167.148438 227.433594 167.515625 Z M 235.421875 175.6875 L 229.332031 175.6875 L 229.332031 158.339844 L 235.191406 158.339844 L 235.191406 161.8125 L 232.847656 161.8125 L 232.847656 165.105469 L 235.039062 165.105469 L 235.039062 168.402344 L 232.847656 168.402344 L 232.847656 172.214844 L 235.421875 172.214844 Z M 243.824219 173.980469 C 243.601562 174.566406 243.160156 175.058594 242.519531 175.453125 C 241.875 175.851562 241.125 176.046875 240.265625 176.046875 C 239.328125 176.046875 238.527344 175.816406 237.863281 175.359375 C 237.199219 174.90625 236.765625 174.320312 236.554688 173.613281 C 236.347656 172.90625 236.246094 171.902344 236.246094 170.605469 L 236.246094 169.472656 L 239.507812 169.472656 L 239.507812 171.578125 C 239.507812 172.226562 239.550781 172.648438 239.644531 172.835938 C 239.738281 173.023438 239.898438 173.117188 240.136719 173.117188 C 240.375 173.117188 240.539062 173 240.65625 172.761719 C 240.773438 172.523438 240.828125 172.179688 240.828125 171.714844 C 240.828125 170.691406 240.722656 170.027344 240.503906 169.710938 C 240.28125 169.390625 239.730469 168.871094 238.859375 168.136719 C 237.984375 167.390625 237.40625 166.851562 237.125 166.519531 C 236.84375 166.1875 236.605469 165.71875 236.417969 165.125 C 236.230469 164.535156 236.136719 163.777344 236.136719 162.851562 C 236.136719 161.523438 236.265625 160.550781 236.535156 159.9375 C 236.800781 159.324219 237.226562 158.839844 237.8125 158.492188 C 238.402344 158.144531 239.113281 157.972656 239.949219 157.972656 C 240.859375 157.972656 241.636719 158.160156 242.28125 158.542969 C 242.921875 158.917969 243.347656 159.394531 243.558594 159.972656 C 243.765625 160.550781 243.867188 161.523438 243.867188 162.902344 L 243.867188 163.589844 L 240.605469 163.589844 L 240.605469 162.304688 C 240.605469 161.703125 240.5625 161.320312 240.484375 161.15625 C 240.394531 160.988281 240.257812 160.910156 240.0625 160.910156 C 239.855469 160.910156 239.695312 161.019531 239.585938 161.242188 C 239.480469 161.464844 239.421875 161.796875 239.421875 162.253906 C 239.421875 162.832031 239.480469 163.269531 239.601562 163.558594 C 239.71875 163.855469 240.050781 164.210938 240.597656 164.621094 C 242.164062 165.8125 243.144531 166.792969 243.550781 167.550781 C 243.953125 168.308594 244.15625 169.550781 244.15625 171.246094 C 244.15625 172.480469 244.042969 173.390625 243.816406 173.980469 Z M 251.359375 175.6875 L 245.269531 175.6875 L 245.269531 158.339844 L 251.128906 158.339844 L 251.128906 161.8125 L 248.785156 161.8125 L 248.785156 165.105469 L 250.976562 165.105469 L 250.976562 168.402344 L 248.785156 168.402344 L 248.785156 172.214844 L 251.359375 172.214844 Z M 256.859375 175.6875 L 256.671875 172.566406 L 255.417969 172.566406 L 255.207031 175.6875 L 251.578125 175.6875 L 253.367188 158.339844 L 258.441406 158.339844 L 260.449219 175.6875 Z M 268.351562 167.523438 C 268.589844 167.890625 268.742188 168.238281 268.800781 168.546875 C 268.859375 168.859375 268.886719 169.714844 268.886719 171.109375 L 268.886719 175.6875 L 265.625 175.6875 L 265.625 169.925781 C 265.625 168.996094 265.566406 168.425781 265.449219 168.199219 C 265.335938 167.976562 265.039062 167.867188 264.554688 167.867188 L 264.554688 175.6875 L 261.039062 175.6875 L 261.039062 158.339844 L 263.53125 158.339844 C 265.191406 158.339844 266.308594 158.421875 266.894531 158.585938 C 267.480469 158.753906 267.960938 159.171875 268.332031 159.84375 C 268.699219 160.511719 268.886719 161.597656 268.886719 163.070312 C 268.886719 164.417969 268.757812 165.328125 268.496094 165.789062 C 268.238281 166.25 267.71875 166.535156 266.953125 166.628906 C 267.644531 166.851562 268.113281 167.148438 268.351562 167.515625 Z M 278.449219 165.890625 L 274.933594 165.890625 L 274.933594 162.875 C 274.933594 162 274.898438 161.453125 274.820312 161.234375 C 274.746094 161.019531 274.582031 160.910156 274.320312 160.910156 C 274.03125 160.910156 273.84375 161.039062 273.773438 161.308594 C 273.695312 161.574219 273.65625 162.144531 273.65625 163.023438 L 273.65625 171.082031 C 273.65625 171.925781 273.695312 172.472656 273.773438 172.734375 C 273.851562 172.992188 274.027344 173.125 274.300781 173.125 C 274.574219 173.125 274.734375 172.992188 274.8125 172.734375 C 274.890625 172.472656 274.933594 171.867188 274.933594 170.921875 L 274.933594 168.742188 L 278.449219 168.742188 L 278.449219 169.421875 C 278.449219 171.21875 278.347656 172.488281 278.15625 173.238281 C 277.960938 173.988281 277.519531 174.644531 276.847656 175.210938 C 276.167969 175.773438 275.339844 176.054688 274.351562 176.054688 C 273.363281 176.054688 272.472656 175.816406 271.800781 175.332031 C 271.136719 174.855469 270.691406 174.191406 270.472656 173.347656 C 270.257812 172.503906 270.148438 171.226562 270.148438 169.527344 L 270.148438 164.460938 C 270.148438 163.214844 270.1875 162.273438 270.25 161.648438 C 270.316406 161.019531 270.519531 160.417969 270.851562 159.84375 C 271.183594 159.265625 271.636719 158.808594 272.226562 158.476562 C 272.8125 158.144531 273.492188 157.980469 274.25 157.980469 C 275.28125 157.980469 276.140625 158.238281 276.8125 158.753906 C 277.484375 159.265625 277.921875 159.90625 278.140625 160.671875 C 278.347656 161.4375 278.457031 162.628906 278.457031 164.253906 L 278.457031 165.898438 Z M 287.789062 175.6875 L 284.277344 175.6875 L 284.277344 168.402344 L 283.222656 168.402344 L 283.222656 175.6875 L 279.707031 175.6875 L 279.707031 158.339844 L 283.222656 158.339844 L 283.222656 164.542969 L 284.277344 164.542969 L 284.277344 158.339844 L 287.789062 158.339844 Z M 287.789062 175.6875 " fill-opacity="1" fill-rule="nonzero"/></g><path fill="#ffffff" d="M 264.554688 161.308594 L 264.554688 165.160156 C 264.953125 165.160156 265.226562 165.089844 265.386719 164.953125 C 265.542969 164.816406 265.625 164.359375 265.625 163.59375 L 265.625 162.644531 C 265.625 162.09375 265.542969 161.734375 265.394531 161.558594 C 265.242188 161.386719 264.960938 161.300781 264.554688 161.300781 Z M 264.554688 161.308594 " fill-opacity="1" fill-rule="nonzero"/><path fill="#ffffff" d="M 160.1875 135.929688 C 160.433594 135.929688 160.59375 135.792969 160.664062 135.523438 C 160.738281 135.257812 160.765625 134.605469 160.765625 133.582031 L 160.765625 125.613281 C 160.765625 124.804688 160.730469 124.292969 160.65625 124.070312 C 160.585938 123.84375 160.441406 123.730469 160.210938 123.730469 C 160.023438 123.730469 159.878906 123.824219 159.777344 124.003906 C 159.675781 124.183594 159.625 124.726562 159.625 125.613281 L 159.625 133.710938 C 159.625 134.714844 159.660156 135.34375 159.726562 135.574219 C 159.792969 135.8125 159.941406 135.929688 160.1875 135.929688 Z M 160.1875 135.929688 " fill-opacity="1" fill-rule="nonzero"/><path fill="#ffffff" d="M 255.367188 169.492188 L 256.578125 169.492188 C 256.398438 167.53125 256.226562 165.097656 256.046875 162.210938 C 255.683594 165.53125 255.460938 167.957031 255.375 169.492188 Z M 255.367188 169.492188 " fill-opacity="1" fill-rule="nonzero"/></svg>