<?xml version="1.0" encoding="UTF-8"?>
<svg id="_レイヤー_2" data-name="レイヤー 2" xmlns="http://www.w3.org/2000/svg" viewBox="0 0 338.78 256.19">
  <defs>
    <style>
      .cls-1 {
        fill: #fff;
      }
    </style>
  </defs>
  <g id="_レイヤー_1-2" data-name="レイヤー 1">
    <g>
      <path class="cls-1" d="M172.08,95.54c-.51,4.6-.83,7.96-.96,10.09h1.73c-.25-2.72-.51-6.09-.77-10.09Z"/>
      <path class="cls-1" d="M59,110.65c.34,0,.56-.19.66-.56s.14-1.27.14-2.69v-11.04c0-1.12-.05-1.83-.15-2.14-.1-.31-.3-.47-.62-.47-.26,0-.46.13-.6.38-.14.25-.21,1-.21,2.23v11.22c0,1.39.05,2.26.14,2.58.09.33.3.49.64.49Z"/>
      <path class="cls-1" d="M82.09,146.03c-.19-.14-.55-.21-1.09-.21v15.81c.7,0,1.13-.18,1.29-.54.16-.36.24-1.34.24-2.95v-9.33c0-1.09-.03-1.79-.08-2.09s-.18-.53-.37-.68Z"/>
      <path class="cls-1" d="M55.45,157.15h1.67c-.25-2.72-.49-6.09-.74-10.09-.5,4.6-.81,7.96-.93,10.09Z"/>
      <path class="cls-1" d="M193.44,95.54c-.51,4.6-.83,7.96-.96,10.09h1.73c-.25-2.72-.51-6.09-.77-10.09Z"/>
      <path class="cls-1" d="M46.73,97.47v-1.32c0-.76-.11-1.26-.33-1.5-.22-.24-.62-.36-1.2-.36v5.34c.56,0,.96-.1,1.19-.29.23-.19.34-.82.34-1.88Z"/>
      <path class="cls-1" d="M219.46,145.81v5.34c.55,0,.93-.1,1.15-.29.22-.19.33-.82.33-1.88v-1.32c0-.76-.11-1.26-.32-1.5s-.6-.36-1.16-.36Z"/>
      <path class="cls-1" d="M114.98,97.47v-1.32c0-.76-.11-1.26-.33-1.5-.22-.24-.62-.36-1.2-.36v5.34c.56,0,.96-.1,1.19-.29.23-.19.34-.82.34-1.88Z"/>
      <path class="cls-1" d="M159.92,106.61v-9.33c0-1.09-.03-1.79-.08-2.09s-.18-.53-.38-.68c-.2-.14-.57-.21-1.12-.21v15.81c.72,0,1.17-.18,1.34-.54s.25-1.34.25-2.95Z"/>
      <path class="cls-1" d="M337.35,161.15c-16.53-23.6-28.71-54.03-45.22-77.12-3.74-5.23-4.23-5.51-10.63-6.09l-251.41.13,31.83-55.52,76.75-.29,1.93,1.41,18.98,32.73c7.82.29,15.65.06,23.48.2.96.02,2.62.48,2.01-.54-6.86-11.57-30.02-51.63-30.02-51.63C152.3.08,148.58.07,144.11.06c-25.94-.06-60.86-.06-89.41-.06-2.24.02-4.17,1.18-5.91,2.49L.98,85.14c-2.12,3.24-.3,6.97.8,10.2l45.19,77.13c2.69,3.24,5.86,5.06,10.02,5.74l251.4-.15-31.83,55.52-76.75.32-1.29-1.04-18.99-32.72c-.88-.74-20.29-.73-22.98-.58-.86.05-2.16-.25-2.49.89l30.06,51.07c2.4,2.47,4.63,3.7,8.01,4.4,28.8-.64,58.36.42,87.26.25,6.24-.04,9.28.23,13.3-5.54,14.87-25.82,34.1-58.59,44.7-77.98,1.84-3.36,1.84-7.31-.05-11.5ZM275.08,90.18h8.38v4.81h-3.36v4.56h3.14v4.57h-3.14v5.28h3.69v4.81h-8.72v-24.03ZM261.4,98.66c0-1.73.05-3.03.14-3.9.1-.87.38-1.7.85-2.5s1.13-1.43,1.97-1.89c.84-.46,1.8-.69,2.9-.69,1.48,0,2.7.36,3.67,1.07.96.71,1.6,1.6,1.9,2.66.3,1.06.45,2.71.45,4.96v2.28h-5.03v-4.18c0-1.21-.05-1.97-.16-2.27-.11-.3-.34-.45-.71-.45-.41,0-.68.18-.79.55s-.17,1.16-.17,2.38v11.16c0,1.17.06,1.93.17,2.29.11.36.36.54.75.54s.62-.18.73-.54c.12-.36.17-1.2.17-2.51v-3.02h5.03v.94c0,2.49-.14,4.25-.42,5.29-.28,1.04-.91,1.95-1.88,2.73-.97.78-2.16,1.17-3.58,1.17s-2.69-.33-3.64-1c-.96-.66-1.59-1.58-1.9-2.75-.31-1.17-.47-2.94-.47-5.29v-7.02ZM248.3,90.18h4.2l2.82,10.82v-10.82h4.2v24.03h-4.41l-2.61-10.92v10.92h-4.2v-24.03ZM238.14,90.18h8.38v4.81h-3.36v4.56h3.14v4.57h-3.14v5.28h3.69v4.81h-8.72v-24.03ZM231.09,90.18h5.03v24.03h-5.03v-24.03ZM217.41,98.66c0-1.73.05-3.03.14-3.9.1-.87.38-1.7.85-2.5s1.13-1.43,1.97-1.89c.84-.46,1.8-.69,2.9-.69,1.48,0,2.7.36,3.67,1.07.96.71,1.6,1.6,1.9,2.66.3,1.06.45,2.71.45,4.96v2.28h-5.03v-4.18c0-1.21-.05-1.97-.16-2.27-.11-.3-.34-.45-.71-.45-.41,0-.68.18-.79.55s-.17,1.16-.17,2.38v11.16c0,1.17.06,1.93.17,2.29.11.36.36.54.75.54s.62-.18.73-.54c.12-.36.17-1.2.17-2.51v-3.02h5.03v.94c0,2.49-.14,4.25-.42,5.29-.28,1.04-.91,1.95-1.88,2.73-.97.78-2.16,1.17-3.58,1.17s-2.69-.33-3.64-1c-.96-.66-1.59-1.58-1.9-2.75-.31-1.17-.47-2.94-.47-5.29v-7.02ZM205.06,92.4c.38-.85.99-1.52,1.83-2,.84-.48,1.86-.72,3.06-.72,1.3,0,2.42.26,3.34.79.92.52,1.53,1.18,1.83,1.98.3.8.45,2.15.45,4.06v.95h-4.67v-1.78c0-.83-.06-1.36-.18-1.59s-.32-.34-.6-.34c-.3,0-.53.15-.69.46-.16.31-.23.77-.23,1.4,0,.8.09,1.41.26,1.81.17.41.64.9,1.42,1.47,2.24,1.65,3.65,3.01,4.23,4.06s.87,2.77.87,5.12c0,1.71-.16,2.97-.48,3.79-.32.81-.95,1.49-1.87,2.04-.92.55-2,.82-3.22.82-1.34,0-2.49-.32-3.44-.95s-1.57-1.44-1.87-2.42c-.29-.98-.44-2.37-.44-4.17v-1.57h4.67v2.92c0,.9.07,1.48.2,1.74.13.26.36.39.7.39s.58-.16.75-.49.24-.81.24-1.45c0-1.42-.16-2.34-.46-2.78-.32-.44-1.1-1.16-2.35-2.18-1.25-1.03-2.08-1.78-2.48-2.24s-.74-1.11-1.01-1.93-.4-1.87-.4-3.15c0-1.84.19-3.19.57-4.04ZM196.87,90.18l2.87,24.03h-5.14l-.27-4.32h-1.8l-.3,4.32h-5.2l2.56-24.03h7.27ZM177.03,90.18h10.99v4.81h-2.99v19.22h-5.03v-19.22h-2.97v-4.81ZM168.24,90.18h7.27l2.87,24.03h-5.14l-.27-4.32h-1.8l-.3,4.32h-5.2l2.56-24.03ZM153.3,90.18h3.76c2.43,0,4.07.14,4.92.42s1.51.73,1.95,1.37c.45.63.72,1.34.84,2.12.11.78.17,2.3.17,4.58v8.42c0,2.16-.08,3.6-.24,4.33-.16.73-.45,1.3-.85,1.71-.41.41-.91.7-1.5.86-.6.16-1.5.25-2.7.25h-6.34v-24.03ZM139.26,90.18h8.51v4.81h-3.49v4.56h3.1v4.57h-3.1v10.09h-5.03v-24.03ZM125.76,100.14c0-2.41.04-4.12.14-5.13.09-1,.38-1.92.86-2.75.48-.83,1.13-1.47,1.95-1.92.82-.44,1.77-.67,2.87-.67,1.03,0,1.96.21,2.79.63.82.42,1.49,1.05,1.99,1.89.5.84.8,1.76.9,2.75.1.99.14,2.72.14,5.19v4.11c0,2.42-.05,4.12-.14,5.13-.09,1-.38,1.92-.86,2.75s-1.13,1.47-1.95,1.92c-.82.45-1.77.67-2.87.67s-1.96-.21-2.79-.63c-.82-.42-1.49-1.05-1.99-1.89-.5-.84-.8-1.76-.9-2.75s-.14-2.72-.14-5.2v-4.11ZM108.42,90.18h3.56c2.37,0,3.98.11,4.82.34s1.52.81,2.05,1.74c.53.93.79,2.43.79,4.47,0,1.87-.19,3.13-.56,3.77-.38.64-1.11,1.03-2.21,1.16.99.31,1.66.72,2.01,1.23.34.51.55.99.64,1.42.08.43.12,1.62.12,3.55v6.34h-4.67v-7.98c0-1.29-.08-2.08-.25-2.39s-.59-.46-1.28-.46v10.83h-5.03v-24.03ZM98.26,90.18h8.38v4.81h-3.35v4.56h3.14v4.57h-3.14v5.28h3.69v4.81h-8.72v-24.03ZM91.22,90.18h5.03v24.03h-5.03v-24.03ZM79.08,90.18h10.99v4.81h-2.99v19.22h-5.03v-19.22h-2.97v-4.81ZM66.7,90.18h4.2l2.82,10.82v-10.82h4.2v24.03h-4.41l-2.61-10.92v10.92h-4.2v-24.03ZM53.2,100.14c0-2.41.04-4.12.14-5.13.09-1,.38-1.92.86-2.75.48-.83,1.13-1.47,1.95-1.92.82-.44,1.77-.67,2.87-.67,1.03,0,1.96.21,2.79.63.82.42,1.49,1.05,1.99,1.89.5.84.8,1.76.9,2.75.1.99.14,2.72.14,5.19v4.11c0,2.42-.05,4.12-.14,5.13-.09,1-.38,1.92-.86,2.75s-1.13,1.47-1.95,1.92c-.82.45-1.77.67-2.87.67s-1.96-.21-2.79-.63c-.82-.42-1.49-1.05-1.99-1.89-.5-.84-.8-1.76-.9-2.75s-.14-2.72-.14-5.2v-4.11ZM40.17,90.18h3.56c2.37,0,3.98.11,4.82.34s1.52.81,2.05,1.74c.53.93.79,2.43.79,4.47,0,1.87-.19,3.13-.56,3.77-.38.64-1.11,1.03-2.21,1.16.99.31,1.66.72,2.01,1.23.34.51.55.99.64,1.42.08.43.12,1.62.12,3.55v6.34h-4.67v-7.98c0-1.29-.08-2.08-.25-2.39s-.59-.46-1.28-.46v10.83h-5.03v-24.03ZM35.47,114.21h-5.03v-24.03h8.51v4.81h-3.49v4.56h3.1v4.57h-3.1v10.09ZM40.74,130.3l-3.57-4.67h260.87l3.57,4.67H40.74ZM57.52,165.73l-.26-4.32h-1.74l-.29,4.32h-5.03l2.48-24.03h7.03l2.78,24.03h-4.97ZM74.18,165.73h-4.27l-2.53-10.92v10.92h-4.07v-24.03h4.07l2.73,10.82v-10.82h4.07v24.03ZM87.41,158.59c0,2.16-.08,3.6-.24,4.33-.16.73-.43,1.3-.83,1.71-.39.41-.88.7-1.46.86s-1.45.25-2.61.25h-6.14v-24.03h3.64c2.35,0,3.94.14,4.77.42.83.28,1.46.73,1.89,1.37s.7,1.34.81,2.12c.11.78.16,2.3.16,4.58v8.42ZM101.22,165.73h-7.83v-24.03h4.87v19.22h2.96v4.81ZM107.27,165.73h-4.87v-24.03h4.87v24.03ZM117.46,146.51h-3.38v4.56h3.01v4.57h-3.01v10.09h-4.87v-24.03h8.24v4.81ZM127.08,165.73h-8.44v-24.03h8.12v4.81h-3.25v4.56h3.04v4.57h-3.04v5.28h3.57v4.81ZM142.9,163.37c-.31.81-.92,1.49-1.81,2.04-.89.55-1.93.82-3.12.82-1.3,0-2.41-.32-3.33-.95s-1.52-1.44-1.81-2.42-.43-2.37-.43-4.17v-1.57h4.52v2.92c0,.9.06,1.48.19,1.74.13.26.35.39.68.39s.56-.16.72-.49.24-.81.24-1.45c0-1.42-.15-2.34-.45-2.78-.31-.44-1.07-1.16-2.28-2.18-1.21-1.03-2.01-1.78-2.4-2.24-.39-.46-.72-1.11-.98-1.93-.26-.82-.39-1.87-.39-3.15,0-1.84.18-3.19.55-4.04.37-.85.96-1.52,1.77-2,.82-.48,1.8-.72,2.96-.72,1.26,0,2.34.26,3.23.79.89.52,1.48,1.18,1.77,1.98.29.8.43,2.15.43,4.06v.95h-4.52v-1.78c0-.83-.06-1.36-.17-1.59-.12-.23-.31-.34-.58-.34-.29,0-.51.15-.67.46-.15.31-.23.77-.23,1.4,0,.8.08,1.41.25,1.81.16.41.62.9,1.38,1.47,2.17,1.65,3.53,3.01,4.09,4.06.56,1.06.84,2.77.84,5.12,0,1.71-.16,2.97-.47,3.79ZM156.26,152.16h-4.87v-4.18c0-1.21-.05-1.97-.16-2.27-.1-.3-.33-.45-.69-.45-.4,0-.65.18-.76.55-.11.37-.16,1.16-.16,2.38v11.16c0,1.17.05,1.93.16,2.29.11.36.35.54.73.54s.6-.18.71-.54c.11-.36.17-1.2.17-2.51v-3.02h4.87v.94c0,2.49-.14,4.25-.41,5.29s-.88,1.95-1.82,2.73c-.94.78-2.09,1.17-3.46,1.17s-2.6-.33-3.53-1c-.92-.66-1.54-1.58-1.84-2.75-.3-1.17-.45-2.94-.45-5.29v-7.02c0-1.73.05-3.03.14-3.9.09-.87.37-1.7.83-2.5.46-.8,1.09-1.43,1.91-1.89.81-.46,1.75-.69,2.8-.69,1.43,0,2.62.36,3.55,1.07.93.71,1.54,1.6,1.84,2.66.29,1.06.44,2.71.44,4.96v2.28ZM162.87,165.73h-4.87v-24.03h4.87v24.03ZM173.26,165.73h-8.44v-24.03h8.11v4.81h-3.25v4.56h3.04v4.57h-3.04v5.28h3.57v4.81ZM185.53,165.73h-4.27l-2.53-10.92v10.92h-4.07v-24.03h4.07l2.73,10.82v-10.82h4.07v24.03ZM198.84,152.16h-4.87v-4.18c0-1.21-.05-1.97-.16-2.27-.1-.3-.33-.45-.69-.45-.4,0-.66.18-.76.55-.11.37-.16,1.16-.16,2.38v11.16c0,1.17.05,1.93.16,2.29.11.36.35.54.73.54s.6-.18.71-.54c.11-.36.17-1.2.17-2.51v-3.02h4.87v.94c0,2.49-.14,4.25-.41,5.29s-.88,1.95-1.81,2.73c-.94.78-2.09,1.17-3.46,1.17s-2.6-.33-3.53-1c-.92-.66-1.54-1.58-1.84-2.75-.3-1.17-.45-2.94-.45-5.29v-7.02c0-1.73.05-3.03.14-3.9.09-.87.37-1.7.83-2.5.46-.8,1.09-1.43,1.91-1.89.81-.46,1.75-.69,2.8-.69,1.43,0,2.62.36,3.55,1.07.93.71,1.54,1.6,1.84,2.66.29,1.06.44,2.71.44,4.96v2.28ZM209.03,165.73h-8.44v-24.03h8.12v4.81h-3.25v4.56h3.04v4.57h-3.04v5.28h3.57v4.81ZM224.72,154.42c.33.51.54.99.62,1.42s.12,1.62.12,3.55v6.34h-4.52v-7.98c0-1.29-.08-2.08-.24-2.39s-.57-.46-1.24-.46v10.83h-4.87v-24.03h3.45c2.3,0,3.85.11,4.66.34s1.48.81,1.99,1.74c.51.93.77,2.43.77,4.47,0,1.87-.18,3.13-.54,3.77-.36.64-1.08,1.03-2.14,1.16.96.31,1.61.72,1.94,1.23ZM235.79,165.73h-8.44v-24.03h8.12v4.81h-3.25v4.56h3.04v4.57h-3.04v5.28h3.57v4.81ZM247.43,163.37c-.31.81-.92,1.49-1.81,2.04-.89.55-1.93.82-3.12.82-1.3,0-2.41-.32-3.33-.95s-1.52-1.44-1.81-2.42-.43-2.37-.43-4.17v-1.57h4.52v2.92c0,.9.06,1.48.19,1.74.13.26.35.39.68.39s.56-.16.72-.49.24-.81.24-1.45c0-1.42-.15-2.34-.45-2.78-.31-.44-1.07-1.16-2.28-2.18-1.21-1.03-2.01-1.78-2.4-2.24-.39-.46-.72-1.11-.98-1.93-.26-.82-.39-1.87-.39-3.15,0-1.84.18-3.19.55-4.04.37-.85.96-1.52,1.77-2,.82-.48,1.8-.72,2.96-.72,1.26,0,2.34.26,3.23.79.89.52,1.48,1.18,1.77,1.98s.43,2.15.43,4.06v.95h-4.52v-1.78c0-.83-.06-1.36-.17-1.59-.12-.23-.31-.34-.58-.34-.29,0-.51.15-.66.46-.15.31-.23.77-.23,1.4,0,.8.08,1.41.25,1.81.16.41.62.9,1.38,1.47,2.17,1.65,3.53,3.01,4.09,4.06s.84,2.77.84,5.12c0,1.71-.16,2.97-.47,3.79ZM257.87,165.73h-8.44v-24.03h8.12v4.81h-3.25v4.56h3.04v4.57h-3.04v5.28h3.57v4.81ZM265.49,165.73l-.26-4.32h-1.74l-.29,4.32h-5.03l2.48-24.03h7.03l2.78,24.03h-4.97ZM281.41,154.42c.33.51.54.99.62,1.42s.12,1.62.12,3.55v6.34h-4.52v-7.98c0-1.29-.08-2.08-.24-2.39s-.57-.46-1.24-.46v10.83h-4.87v-24.03h3.45c2.3,0,3.85.11,4.66.34s1.48.81,1.99,1.74c.51.93.77,2.43.77,4.47,0,1.87-.18,3.13-.54,3.77-.36.64-1.08,1.03-2.14,1.16.96.31,1.61.72,1.94,1.23ZM295.4,152.16h-4.87v-4.18c0-1.21-.05-1.97-.16-2.27-.1-.3-.33-.45-.69-.45-.4,0-.66.18-.76.55-.11.37-.16,1.16-.16,2.38v11.16c0,1.17.05,1.93.16,2.29.11.36.35.54.73.54s.6-.18.71-.54c.11-.36.17-1.2.17-2.51v-3.02h4.87v.94c0,2.49-.14,4.25-.41,5.29s-.88,1.95-1.81,2.73c-.94.78-2.09,1.17-3.46,1.17s-2.6-.33-3.53-1c-.92-.66-1.54-1.58-1.84-2.75-.3-1.17-.45-2.94-.45-5.29v-7.02c0-1.73.05-3.03.14-3.9.09-.87.37-1.7.83-2.5.46-.8,1.09-1.43,1.91-1.89.81-.46,1.75-.69,2.8-.69,1.43,0,2.62.36,3.55,1.07.93.71,1.54,1.6,1.84,2.66.29,1.06.44,2.71.44,4.96v2.28ZM308.34,165.73h-4.87v-10.09h-1.46v10.09h-4.87v-24.03h4.87v8.59h1.46v-8.59h4.87v24.03Z"/>
      <path class="cls-1" d="M276.15,145.81v5.34c.55,0,.93-.1,1.15-.29.22-.19.33-.82.33-1.88v-1.32c0-.76-.11-1.26-.32-1.5s-.6-.36-1.16-.36Z"/>
      <path class="cls-1" d="M131.56,110.65c.34,0,.56-.19.66-.56s.14-1.27.14-2.69v-11.04c0-1.12-.05-1.83-.15-2.14-.1-.31-.3-.47-.62-.47-.26,0-.46.13-.6.38-.14.25-.21,1-.21,2.23v11.22c0,1.39.05,2.26.14,2.58.09.33.3.49.64.49Z"/>
      <path class="cls-1" d="M263.42,157.15h1.68c-.25-2.72-.49-6.09-.74-10.09-.5,4.6-.81,7.96-.93,10.09Z"/>
    </g>
  </g>
</svg>