<?xml version="1.0" encoding="UTF-8"?><svg id="a" xmlns="http://www.w3.org/2000/svg" viewBox="0 0 497.7 376.1"><defs><style>.d{fill:#a2a2a2;}.e{fill:#fff;}.f{opacity:.6;}</style></defs><path class="e" d="M50.9,306.4c-.2,4-2.6,8.6-8.1,9.9l-.4-.7c4-1.8,5.3-5.2,5.5-9.2h-7.6v-1h16.9v1h-6.2ZM42.8,300.2h10.9v1h-10.9v-1ZM54.5,302c-.5-1.4-1-2.6-1.5-3.4l.4-.4c1,.7,1.9,1.3,2.6,2.2l-1.5,1.5ZM56.6,300.9c-.5-1.3-1.1-2.2-1.8-3l.4-.4c.9.5,1.8,1,2.7,1.8l-1.3,1.6Z"/><path class="e" d="M62.9,308.4l-.3-2.4c2.6.2,6.8.2,10.6.2h5.4v2.2h-15.7Z"/><path class="e" d="M99.4,303.6c-1.7,6.9-6.9,11.4-14.8,12.6l-.4-.8c3.4-.8,6.1-2.4,8.2-4.5-1.1-1.5-2.4-2.7-3.5-3.6l.4-.7c1.6.5,3.1,1.5,4.6,2.5,1.2-1.7,2.1-3.7,2.5-5.9h-5.4c-1.5,2-3.6,3.8-6.1,5l-.6-.6c2.9-2,4.9-5.7,5.8-9.1l3,.9c-.4,1.1-.9,1.9-1.5,2.8h7.8v1.3Z"/><path class="e" d="M117.5,305.3v.7c0,4.2-1,8.9-8,10.5l-.4-.7c4.5-1.9,5.7-4.9,5.7-9.8v-.7h-4.4v5.5h-2.8v-5.5h-3.9v-.9h3.9v-5h2.8v5h4.4v-5h2.8v5h3.8v.9h-3.8Z"/><path class="e" d="M132.1,316.2v-9.9c-2.1,1.1-4.4,2-6.6,2.6l-.3-.7c4.9-1.8,9.8-6,11.9-9.6l2.8,1.9c-1.9,2.1-4.2,3.9-6.8,5.3h1.9v10.4h-2.9Z"/><polygon class="e" points="144.8 313.8 144.8 312.8 152.2 312.8 152.2 303.3 147.3 303.3 147.3 302.2 160.4 302.2 160.4 303.3 155.3 303.3 155.3 312.8 162.8 312.8 162.8 313.8 144.8 313.8"/><path class="e" d="M172.1,306.6c-1.2-2.2-2.7-4.1-4.2-5.3l.5-.7c1.9.7,4,1.7,6,2.9l-2.3,3ZM183.2,304.7c-1.8,5.5-6.4,10.4-14.4,11.3l-.7-3.1c7.8-.4,12.1-3.7,14.3-8.6l.9.5Z"/><path class="e" d="M201.9,316c-1.4-2.1-3.1-4.4-5.3-6.1-2.4,2.7-5,4.6-9,6.1l-.4-.8c5.7-2.9,8.9-7.5,10.3-13.4h-7.3v-.9h10.6v.9c-.8,2.9-1.9,5.2-3.5,7.4,2.5,1.1,4.6,2.3,6.8,3.9l-2.1,2.9Z"/><path class="e" d="M221.9,315.7c-1.1.2-2.8.3-4.4.3s-2.5,0-3.6-.1c-3.5-.3-5.2-2-5.2-3.9s.7-2.4,1.9-3.5c.7-.6,1.7-1.2,2.8-1.7-.4-2-.8-5-1.1-7.7l3-.4c.1,2.4.4,5.1.8,6.9,1.7-.7,3.5-1.3,5.3-1.7l.3,1.1c-4.3,1-8.6,2.7-10,3.9-.8.7-1.3,1.4-1.3,2.1,0,1.1,1.1,2,3.5,2.2.7,0,1.5,0,2.4,0,2,0,4.2-.2,5.6-.5v2.9Z"/><path class="e" d="M39.7,342v-1.1h8.1v-5.8h-4.7v-1h4.7v-4.7h-3.7c-1,1.8-2.2,3.5-3.8,5.1l-.5-.6c1.6-3,2.5-6.1,2.9-9.7l3.2.8c-.4,1.2-.8,2.4-1.3,3.4h3.2v-5.1h2.7v5.1h6.1v1h-6.1v4.7h5v1h-5v5.8h7.2v1.1h-18Z"/><path class="e" d="M79.1,331.3c-2.7-1.1-5.2-2.8-7.5-5.4-2.5,2.7-5.6,4.4-9.3,5.4l-.3-.6c3.7-2,6.1-4.4,7.7-7.5l3.3.9c-.3.4-.6.8-.9,1.2,2.6,1.6,5.4,2.5,8.3,2.8l-1.3,3.2ZM66.1,340v1.1h-2.3v-8.8h6.4v7.6h-4.1ZM67.9,333.1h-1.9v6.1h1.9v-6.1ZM66.5,329.8h9v.8h-9v-.8ZM71.6,343v-10.7h7.1v5.6c0,1.8-.4,2.7-1.7,2.7s-1.5-.2-2.6-.6v-.8c.6.2,1,.3,1.3.3.6,0,.7-.4.7-1.6v-4.7h-2.3v9.8h-2.4Z"/><path class="e" d="M88.2,341.7v1.3h-2.5v-18.5h16.1v.8h-13.6v15.6h14.5v.8h-14.5ZM99.6,340.3c-1.1-2.2-2.2-3.8-3.4-5-.8,2-3.1,3.8-6.6,5.1l-.3-.7c2.8-1.6,4.4-3.7,4.7-6.2h-4.9v-.8h4.9c0-.3,0-.6,0-.9v-2.7h-1.3c-.8,1.2-1.8,2.2-3,3.2l-.5-.5c1.1-1.8,1.9-4.2,2-6.3l2.9.8c-.2.6-.6,1.5-1,2h6.8v.8h-3.4v2.7c0,.3,0,.6,0,.9h5v.8h-5c0,.4-.1.7-.2,1.1,1.9.7,3.4,1.6,5.1,2.8l-1.9,2.8Z"/><path class="e" d="M110.2,343v-8.3c-.9,1.8-1.5,2.6-2.7,3.9l-.5-.5c1.4-2.4,2-4.7,2.5-7.6h-2.2v-.8h2.9v-3.2c-1,.2-1.6.2-2.5.3v-.5c2.1-.9,4-1.9,5.5-3.1l2.1,2.2c-.8.2-1.8.5-2.8.7v3.6h3.1v.8h-3.1v.9c1.1.9,2.6,1.9,3.5,3l-1.9,1.9c-.3-1.6-1.1-2.8-1.6-3.9v10.6h-2.4ZM120.7,343v-6.4c-1.5.4-3.8.9-6.1,1.4v-.9c2.1-.5,4.5-1,6.1-1.4v-11.6h2.5v10.9c1.3-.4,2.3-.7,2.3-.7v.9s-1.3.4-2.3.7v7.1h-2.5ZM117.9,329.8c-.6-2-2.1-3.8-2.1-3.8l.5-.4s2,.7,3.7,2.4l-2.1,1.9ZM118,334.7c-.8-2.6-2-4.3-2-4.3l.4-.5s2,1.1,3.6,2.8l-2.1,1.9Z"/><path class="e" d="M140.7,337.3v2.7c0,1.7-.4,3.1-2.4,3.1s-2.1-.3-3.8-.9v-.8c1.1.3,1.9.5,2.4.5,1.1,0,1.2-.7,1.2-1.8v-2.7h-8.5v-.8h8.5v-1.8c.8-.7,1.4-1.6,1.8-2.4h-6.3v-.8h9.9v.8c-.8.8-1.8,1.5-2.6,1.9v2.3h7.2v.8h-7.2ZM144,332.6c.4-.9.7-2.1.7-3.4h-12.1v3.5h-2.5v-4.2h17.5v1.3c-.6,1.3-1.8,2.5-3,3.4l-.6-.4ZM133.8,328.4s-.7-2.1-2.1-4.2l.4-.4c2.2.9,4,2.7,4,2.7l-2.3,1.9ZM137.7,328.2s-.1-2.3-.8-4.6l.5-.4c1.9,1.7,3.1,3.4,3.1,3.4l-2.8,1.6ZM141.7,328s.9-1.5,1.4-4.4l3.1,1.3c-2.3,2.7-4,3.5-4,3.5l-.5-.4Z"/><path class="e" d="M155.7,340.4v1.7h-2.1v-7.8c-.3.6-.7,1.1-1.1,1.7l-.4-.4c1.4-3.1,1.9-6.2,2.2-10h-1.8v-.8h7.4v.8h-3c-.2,1.8-.6,3.4-1.2,4.8h3.7v10h-3.5ZM157.1,331.3h-1.4v8.4h1.4v-8.4ZM166,343v-10.5h-1.8c-.1,3.9-.9,7.4-4.5,10.4l-.4-.6c2-3.1,2.3-6.7,2.4-9.9h-2.1v-.8h2.1v-6.6h-1.6v-.8h9.7v.8h-1.5v6.6h1.9v.8h-1.9v10.5h-2.4ZM166,325.2h-1.7v6.6h1.7v-6.6Z"/><path class="e" d="M188.5,342.5c-1.4,0-2.2-.9-2.2-2.5v-5h-2.8c-.8,5.1-3.7,6.9-8.6,8l-.2-.7c3.6-1.5,5.6-3.4,6.2-7.2h-4.4v-.8h4.5c.1-.7.1-1.6.1-2.5h2.6c0,.9,0,1.7-.1,2.5h5.3v5.4c0,.5.2.7.7.7h.9c1,0,1.4-.6,1.8-3.3l.7.3c-.3,4.4-.7,5.2-2.4,5.2h-2.2ZM188.9,329c.4-.8.7-1.8.8-2.7h-12.1v2.9h-2.5v-3.8h7.2v-2.2h2.7v2.2h7.5v1.3c-.7,1-2.1,2.1-3.1,2.7l-.5-.4ZM175.2,332.2c2.8-.8,4.6-2.5,5.1-5.5l2.6.8c-1.1,3.5-3.6,5-7.5,5.5l-.2-.7ZM186.3,332.7c-1.5,0-2-.6-2-2v-3.9h2.4v3.3c0,.4,0,.5.5.5h2.5c.7,0,1-.2,1.3-1.8l.7.3c-.3,3-.8,3.5-2,3.5h-3.4Z"/><path class="e" d="M205.1,340.7c4.2-.8,6-3,6.2-6.5,0-.2,0-.4,0-.5,0-3.8-2.1-6-4.7-6-.4,6-2,10.1-5.1,12-.6.4-1.1.5-1.6.5-1.3,0-2.3-1.3-2.3-3.9s0-.8,0-1.3c.4-4.1,4.1-8.1,8.9-8.1s7.7,2.6,7.7,6.9,0,.3,0,.5c-.2,4.3-3.5,6.8-9,7l-.2-.6ZM200.3,334.6c0,.4,0,.8,0,1.2,0,1.2.3,1.8.8,1.8s.5-.2.9-.4c1.8-1.3,3.2-4.6,3.8-9.4-3.2.5-5.1,3.8-5.4,6.9"/><path class="e" d="M40.3,367c6.1-2,9.6-6.4,10.4-12.8h-11.2v-1.1h14.4v1.3c-1,7.4-5.4,11.8-13.2,13.3l-.3-.7Z"/><path class="e" d="M70.4,366.7v-1.5h-8.1v1.5h-2.7v-13.1h13.5v13.1h-2.7ZM70.4,354.5h-8.1v9.8h8.1v-9.8Z"/><path class="e" d="M83.5,358.4c-1.2-2.2-2.7-4.1-4.2-5.3l.5-.7c1.9.7,4,1.7,6,2.9l-2.3,3ZM94.7,356.4c-1.8,5.5-6.4,10.4-14.4,11.3l-.7-3.1c7.8-.4,12.1-3.7,14.3-8.6l.9.5Z"/><path class="e" d="M110,358.2c-.2,4-2.6,8.6-8.1,9.9l-.5-.7c4-1.8,5.3-5.2,5.5-9.2h-7.6v-1h16.9v1h-6.2ZM101.9,352h11.7v1h-11.7v-1Z"/><path class="e" d="M125.3,367.8v-7.4c-1.6.8-3.3,1.5-5,2l-.2-.6c3.6-1.3,7.3-4.5,8.9-7.2l2.1,1.4c-1.4,1.5-3.1,2.9-5,3.9h1.4v7.8h-2.2Z"/><path class="e" d="M145.1,359.6c1.9-1.4,3.3-3.6,3.7-6.2h-12.2v-.9h15.7v1.2c-1.2,3.2-3.5,5.3-6.7,6.6l-.5-.7ZM136.9,367.3c4-2.6,5.5-6.1,5.5-11.5h3.2c0,5.9-2.9,10.3-8.2,12.2l-.4-.6Z"/><g id="b" class="f"><path class="d" d="M254.1,141.3c-.7,6.7-1.2,11.6-1.4,14.8h2.5c-.4-4-.7-8.9-1.1-14.8h0Z"/><path class="d" d="M88.7,163.4c.5,0,.8-.3,1-.8s.2-1.9.2-3.9v-16.1c0-1.6,0-2.7-.2-3.1-.1-.5-.4-.7-.9-.7s-.7.2-.9.6-.3,1.5-.3,3.3v16.4c0,2,0,3.3.2,3.8.1.5.4.7.9.7Z"/><path class="d" d="M122.5,215.1c-.3-.2-.8-.3-1.6-.3v23.1c1,0,1.7-.3,1.9-.8s.4-2,.4-4.3v-13.6c0-1.6,0-2.6-.1-3.1s-.3-.8-.5-1h0Z"/><path class="d" d="M83.6,231.3h2.4c-.4-4-.7-8.9-1.1-14.8-.7,6.7-1.2,11.6-1.4,14.8Z"/><path class="d" d="M285.3,141.3c-.7,6.7-1.2,11.6-1.4,14.8h2.5c-.4-4-.7-8.9-1.1-14.8h0Z"/><path class="d" d="M70.8,144.1v-1.9c0-1.1-.2-1.8-.5-2.2s-.9-.5-1.8-.5v7.8c.8,0,1.4-.1,1.7-.4s.5-1.2.5-2.7h0Z"/><path class="d" d="M323.3,214.8v7.8c.8,0,1.4-.1,1.7-.4.3-.3.5-1.2.5-2.7v-1.9c0-1.1-.2-1.8-.5-2.2s-.9-.5-1.7-.5h0Z"/><path class="d" d="M170.6,144.1v-1.9c0-1.1-.2-1.8-.5-2.2s-.9-.5-1.8-.5v7.8c.8,0,1.4-.1,1.7-.4s.5-1.2.5-2.7h0Z"/><path class="d" d="M236.3,157.5v-13.6c0-1.6,0-2.6-.1-3.1s-.3-.8-.6-1c-.3-.2-.8-.3-1.6-.3v23.1c1.1,0,1.7-.3,2-.8s.4-2,.4-4.3h0Z"/><path class="d" d="M495.7,237.2c-24.2-34.5-42-79-66.1-112.7-5.5-7.6-6.2-8.1-15.5-8.9l-367.5.2,46.5-81.2,112.2-.4,2.8,2.1,27.7,47.8c11.4.4,22.9,0,34.3.3,1.4,0,3.8.7,2.9-.8-10-16.9-43.9-75.5-43.9-75.5-4-6.4-9.5-6.4-16-6.4-37.9,0-89,0-130.7,0-3.3,0-6.1,1.7-8.6,3.6L3.9,126.1c-3.1,4.7-.4,10.2,1.2,14.9l66.1,112.8c3.9,4.7,8.6,7.4,14.6,8.4l367.5-.2-46.5,81.2-112.2.5-1.9-1.5-27.8-47.8c-1.3-1.1-29.7-1.1-33.6-.8-1.3,0-3.2-.4-3.6,1.3l43.9,74.7c3.5,3.6,6.8,5.4,11.7,6.4,42.1-.9,85.3.6,127.6.4,9.1,0,13.6.3,19.4-8.1,21.7-37.7,49.9-85.7,65.3-114,2.7-4.9,2.7-10.7,0-16.8h0ZM404.6,133.4h12.3v7h-4.9v6.7h4.6v6.7h-4.6v7.7h5.4v7h-12.7v-35.1h0ZM384.6,145.8c0-2.5,0-4.4.2-5.7.1-1.3.6-2.5,1.2-3.7s1.7-2.1,2.9-2.8,2.6-1,4.2-1,3.9.5,5.4,1.6c1.4,1,2.3,2.3,2.8,3.9.4,1.5.7,4,.7,7.3v3.3h-7.4v-6.1c0-1.8,0-2.9-.2-3.3-.2-.4-.5-.7-1-.7s-1,.3-1.2.8-.2,1.7-.2,3.5v16.3c0,1.7,0,2.8.2,3.3.2.5.5.8,1.1.8s.9-.3,1.1-.8c.2-.5.2-1.8.2-3.7v-4.4h7.4v1.4c0,3.6-.2,6.2-.6,7.7s-1.3,2.9-2.7,4c-1.4,1.1-3.2,1.7-5.2,1.7s-3.9-.5-5.3-1.5c-1.4-1-2.3-2.3-2.8-4s-.7-4.3-.7-7.7v-10.3h0ZM365.5,133.4h6.1l4.1,15.8v-15.8h6.1v35.1h-6.4l-3.8-16v16h-6.1v-35.1h0ZM350.6,133.4h12.3v7h-4.9v6.7h4.6v6.7h-4.6v7.7h5.4v7h-12.7v-35.1h0ZM340.3,133.4h7.4v35.1h-7.4v-35.1ZM320.3,145.8c0-2.5,0-4.4.2-5.7.1-1.3.6-2.5,1.2-3.7s1.7-2.1,2.9-2.8,2.6-1,4.2-1,3.9.5,5.4,1.6c1.4,1,2.3,2.3,2.8,3.9.4,1.5.7,4,.7,7.3v3.3h-7.4v-6.1c0-1.8,0-2.9-.2-3.3-.2-.4-.5-.7-1-.7s-1,.3-1.2.8-.2,1.7-.2,3.5v16.3c0,1.7,0,2.8.2,3.3s.5.8,1.1.8.9-.3,1.1-.8c.2-.5.2-1.8.2-3.7v-4.4h7.4v1.4c0,3.6-.2,6.2-.6,7.7s-1.3,2.9-2.7,4c-1.4,1.1-3.2,1.7-5.2,1.7s-3.9-.5-5.3-1.5c-1.4-1-2.3-2.3-2.8-4s-.7-4.3-.7-7.7v-10.3h0ZM302.3,136.7c.6-1.2,1.4-2.2,2.7-2.9s2.7-1.1,4.5-1.1,3.5.4,4.9,1.2c1.3.8,2.2,1.7,2.7,2.9s.7,3.1.7,5.9v1.4h-6.8v-2.6c0-1.2,0-2-.3-2.3s-.5-.5-.9-.5-.8.2-1,.7-.3,1.1-.3,2,.1,2.1.4,2.6c.2.6.9,1.3,2.1,2.1,3.3,2.4,5.3,4.4,6.2,5.9s1.3,4,1.3,7.5-.2,4.3-.7,5.5c-.5,1.2-1.4,2.2-2.7,3s-2.9,1.2-4.7,1.2-3.6-.5-5-1.4-2.3-2.1-2.7-3.5c-.4-1.4-.6-3.5-.6-6.1v-2.3h6.8v4.3c0,1.3.1,2.2.3,2.5.2.4.5.6,1,.6s.8-.2,1.1-.7.4-1.2.4-2.1c0-2.1-.2-3.4-.7-4.1-.5-.6-1.6-1.7-3.4-3.2-1.8-1.5-3-2.6-3.6-3.3s-1.1-1.6-1.5-2.8-.6-2.7-.6-4.6c0-2.7.3-4.7.8-5.9h0ZM290.3,133.4l4.2,35.1h-7.5l-.4-6.3h-2.6l-.4,6.3h-7.6l3.7-35.1h10.6ZM261.3,133.4h16.1v7h-4.4v28.1h-7.4v-28.1h-4.3v-7ZM248.4,133.4h10.6l4.2,35.1h-7.5l-.4-6.3h-2.6l-.4,6.3h-7.6l3.7-35.1h0ZM226.6,133.4h5.5c3.6,0,5.9.2,7.2.6s2.2,1.1,2.9,2c.7.9,1.1,2,1.2,3.1.2,1.1.2,3.4.2,6.7v12.3c0,3.2-.1,5.3-.4,6.3s-.7,1.9-1.2,2.5c-.6.6-1.3,1-2.2,1.3-.9.2-2.2.4-3.9.4h-9.3v-35.1h0ZM206.1,133.4h12.4v7h-5.1v6.7h4.5v6.7h-4.5v14.8h-7.4v-35.1h0ZM186.3,148c0-3.5,0-6,.2-7.5.1-1.5.6-2.8,1.3-4s1.7-2.1,2.9-2.8c1.2-.6,2.6-1,4.2-1s2.9.3,4.1.9c1.2.6,2.2,1.5,2.9,2.8s1.2,2.6,1.3,4c.1,1.4.2,4,.2,7.6v6c0,3.5,0,6-.2,7.5-.1,1.5-.6,2.8-1.3,4s-1.7,2.1-2.9,2.8c-1.2.7-2.6,1-4.2,1s-2.9-.3-4.1-.9c-1.2-.6-2.2-1.5-2.9-2.8s-1.2-2.6-1.3-4-.2-4-.2-7.6v-6h0ZM161,133.4h5.2c3.5,0,5.8.2,7,.5s2.2,1.2,3,2.5c.8,1.4,1.2,3.6,1.2,6.5s-.3,4.6-.8,5.5c-.6.9-1.6,1.5-3.2,1.7,1.4.5,2.4,1.1,2.9,1.8.5.7.8,1.4.9,2.1.1.6.2,2.4.2,5.2v9.3h-6.8v-11.7c0-1.9-.1-3-.4-3.5s-.9-.7-1.9-.7v15.8h-7.4v-35.1h0ZM146.1,133.4h12.3v7h-4.9v6.7h4.6v6.7h-4.6v7.7h5.4v7h-12.7s0-35.1,0-35.1ZM135.8,133.4h7.4v35.1h-7.4v-35.1ZM118.1,133.4h16.1v7h-4.4v28.1h-7.4v-28.1h-4.3v-7ZM100,133.4h6.1l4.1,15.8v-15.8h6.1v35.1h-6.4l-3.8-16v16h-6.1v-35.1ZM80.3,148c0-3.5,0-6,.2-7.5.1-1.5.6-2.8,1.3-4s1.7-2.1,2.9-2.8c1.2-.6,2.6-1,4.2-1s2.9.3,4.1.9c1.2.6,2.2,1.5,2.9,2.8s1.2,2.6,1.3,4,.2,4,.2,7.6v6c0,3.5,0,6-.2,7.5-.1,1.5-.6,2.8-1.3,4s-1.7,2.1-2.9,2.8-2.6,1-4.2,1-2.9-.3-4.1-.9c-1.2-.6-2.2-1.5-2.9-2.8s-1.2-2.6-1.3-4-.2-4-.2-7.6v-6h0ZM61.2,133.4h5.2c3.5,0,5.8.2,7,.5s2.2,1.2,3,2.5,1.2,3.6,1.2,6.5-.3,4.6-.8,5.5c-.6.9-1.6,1.5-3.2,1.7,1.4.5,2.4,1.1,2.9,1.8.5.7.8,1.4.9,2.1.1.6.2,2.4.2,5.2v9.3h-6.8v-11.7c0-1.9-.1-3-.4-3.5s-.9-.7-1.9-.7v15.8h-7.4v-35.1h0ZM54.3,168.6h-7.4v-35.1h12.4v7h-5.1v6.7h4.5v6.7h-4.5v14.8h0ZM62.1,192.1l-5.2-6.8h381.4l5.2,6.8H62.1ZM86.6,243.9l-.4-6.3h-2.5l-.4,6.3h-7.4l3.6-35.1h10.3l4.1,35.1h-7.3ZM110.9,243.9h-6.2l-3.7-16v16h-5.9v-35.1h5.9l4,15.8v-15.8h5.9v35.1h0ZM130.3,233.4c0,3.2-.1,5.3-.4,6.3-.2,1.1-.6,1.9-1.2,2.5-.6.6-1.3,1-2.1,1.3s-2.1.4-3.8.4h-9v-35.1h5.3c3.4,0,5.8.2,7,.6,1.2.4,2.1,1.1,2.8,2s1,2,1.2,3.1.2,3.4.2,6.7v12.3h0ZM150.5,243.9h-11.4v-35.1h7.1v28.1h4.3v7ZM159.3,243.9h-7.1v-35.1h7.1v35.1ZM174.2,215.8h-4.9v6.7h4.4v6.7h-4.4v14.8h-7.1v-35.1h12v7h0ZM188.3,243.9h-12.3v-35.1h11.9v7h-4.8v6.7h4.4v6.7h-4.4v7.7h5.2v7ZM211.4,240.4c-.5,1.2-1.3,2.2-2.6,3-1.3.8-2.8,1.2-4.6,1.2s-3.5-.5-4.9-1.4-2.2-2.1-2.6-3.5-.6-3.5-.6-6.1v-2.3h6.6v4.3c0,1.3,0,2.2.3,2.5.2.4.5.6,1,.6s.8-.2,1.1-.7.4-1.2.4-2.1c0-2.1-.2-3.4-.7-4.1-.5-.6-1.6-1.7-3.3-3.2-1.8-1.5-2.9-2.6-3.5-3.3s-1.1-1.6-1.4-2.8c-.4-1.2-.6-2.7-.6-4.6,0-2.7.3-4.7.8-5.9.5-1.2,1.4-2.2,2.6-2.9,1.2-.7,2.6-1.1,4.3-1.1s3.4.4,4.7,1.2c1.3.8,2.2,1.7,2.6,2.9.4,1.2.6,3.1.6,5.9v1.4h-6.6v-2.6c0-1.2,0-2-.2-2.3-.2-.3-.5-.5-.8-.5s-.7.2-1,.7c-.2.5-.3,1.1-.3,2s.1,2.1.4,2.6c.2.6.9,1.3,2,2.1,3.2,2.4,5.2,4.4,6,5.9.8,1.5,1.2,4,1.2,7.5s-.2,4.3-.7,5.5h0ZM230.9,224h-7.1v-6.1c0-1.8,0-2.9-.2-3.3-.1-.4-.5-.7-1-.7s-1,.3-1.1.8c-.2.5-.2,1.7-.2,3.5v16.3c0,1.7,0,2.8.2,3.3s.5.8,1.1.8.9-.3,1-.8.2-1.8.2-3.7v-4.4h7.1v1.4c0,3.6-.2,6.2-.6,7.7s-1.3,2.9-2.7,4-3.1,1.7-5.1,1.7-3.8-.5-5.2-1.5c-1.3-1-2.3-2.3-2.7-4s-.7-4.3-.7-7.7v-10.3c0-2.5,0-4.4.2-5.7s.5-2.5,1.2-3.7,1.6-2.1,2.8-2.8c1.2-.7,2.6-1,4.1-1s3.8.5,5.2,1.6c1.4,1,2.3,2.3,2.7,3.9.4,1.5.6,4,.6,7.3v3.3h0ZM240.6,243.9h-7.1v-35.1h7.1v35.1ZM255.8,243.9h-12.3v-35.1h11.9v7h-4.8v6.7h4.4v6.7h-4.4v7.7h5.2v7h0ZM273.7,243.9h-6.2l-3.7-16v16h-5.9v-35.1h5.9l4,15.8v-15.8h5.9v35.1h0ZM293.2,224h-7.1v-6.1c0-1.8,0-2.9-.2-3.3-.1-.4-.5-.7-1-.7s-1,.3-1.1.8c-.2.5-.2,1.7-.2,3.5v16.3c0,1.7,0,2.8.2,3.3s.5.8,1.1.8.9-.3,1-.8.2-1.8.2-3.7v-4.4h7.1v1.4c0,3.6-.2,6.2-.6,7.7s-1.3,2.9-2.6,4c-1.4,1.1-3.1,1.7-5.1,1.7s-3.8-.5-5.2-1.5c-1.3-1-2.3-2.3-2.7-4s-.7-4.3-.7-7.7v-10.3c0-2.5,0-4.4.2-5.7s.5-2.5,1.2-3.7,1.6-2.1,2.8-2.8c1.2-.7,2.6-1,4.1-1s3.8.5,5.2,1.6c1.4,1,2.3,2.3,2.7,3.9.4,1.5.6,4,.6,7.3v3.3h0ZM308.1,243.9h-12.3v-35.1h11.9v7h-4.8v6.7h4.4v6.7h-4.4v7.7h5.2v7ZM331,227.3c.5.7.8,1.4.9,2.1s.2,2.4.2,5.2v9.3h-6.6v-11.7c0-1.9-.1-3-.4-3.5s-.8-.7-1.8-.7v15.8h-7.1v-35.1h5c3.4,0,5.6.2,6.8.5s2.2,1.2,2.9,2.5c.7,1.4,1.1,3.6,1.1,6.5s-.3,4.6-.8,5.5-1.6,1.5-3.1,1.7c1.4.5,2.4,1.1,2.8,1.8h0ZM347.2,243.9h-12.3v-35.1h11.9v7h-4.8v6.7h4.4v6.7h-4.4v7.7h5.2v7ZM364.2,240.4c-.5,1.2-1.3,2.2-2.6,3-1.3.8-2.8,1.2-4.6,1.2s-3.5-.5-4.9-1.4-2.2-2.1-2.6-3.5-.6-3.5-.6-6.1v-2.3h6.6v4.3c0,1.3,0,2.2.3,2.5.2.4.5.6,1,.6s.8-.2,1.1-.7.4-1.2.4-2.1c0-2.1-.2-3.4-.7-4.1-.5-.6-1.6-1.7-3.3-3.2-1.8-1.5-2.9-2.6-3.5-3.3s-1.1-1.6-1.4-2.8c-.4-1.2-.6-2.7-.6-4.6,0-2.7.3-4.7.8-5.9.5-1.2,1.4-2.2,2.6-2.9,1.2-.7,2.6-1.1,4.3-1.1s3.4.4,4.7,1.2c1.3.8,2.2,1.7,2.6,2.9s.6,3.1.6,5.9v1.4h-6.6v-2.6c0-1.2,0-2-.2-2.3-.2-.3-.5-.5-.8-.5s-.7.2-1,.7c-.2.5-.3,1.1-.3,2s.1,2.1.4,2.6c.2.6.9,1.3,2,2.1,3.2,2.4,5.2,4.4,6,5.9s1.2,4,1.2,7.5-.2,4.3-.7,5.5h0ZM379.5,243.9h-12.3v-35.1h11.9v7h-4.8v6.7h4.4v6.7h-4.4v7.7h5.2v7ZM390.6,243.9l-.4-6.3h-2.5l-.4,6.3h-7.4l3.6-35.1h10.3l4.1,35.1h-7.3ZM413.9,227.3c.5.7.8,1.4.9,2.1s.2,2.4.2,5.2v9.3h-6.6v-11.7c0-1.9-.1-3-.4-3.5s-.8-.7-1.8-.7v15.8h-7.1v-35.1h5c3.4,0,5.6.2,6.8.5s2.2,1.2,2.9,2.5c.7,1.4,1.1,3.6,1.1,6.5s-.3,4.6-.8,5.5c-.5.9-1.6,1.5-3.1,1.7,1.4.5,2.4,1.1,2.8,1.8h0ZM434.3,224h-7.1v-6.1c0-1.8,0-2.9-.2-3.3-.1-.4-.5-.7-1-.7s-1,.3-1.1.8c-.2.5-.2,1.7-.2,3.5v16.3c0,1.7,0,2.8.2,3.3.2.5.5.8,1.1.8s.9-.3,1-.8.2-1.8.2-3.7v-4.4h7.1v1.4c0,3.6-.2,6.2-.6,7.7s-1.3,2.9-2.6,4c-1.4,1.1-3.1,1.7-5.1,1.7s-3.8-.5-5.2-1.5c-1.3-1-2.3-2.3-2.7-4s-.7-4.3-.7-7.7v-10.3c0-2.5,0-4.4.2-5.7.1-1.3.5-2.5,1.2-3.7s1.6-2.1,2.8-2.8c1.2-.7,2.6-1,4.1-1s3.8.5,5.2,1.6,2.3,2.3,2.7,3.9c.4,1.5.6,4,.6,7.3v3.3h0ZM453.3,243.9h-7.1v-14.8h-2.1v14.8h-7.1v-35.1h7.1v12.6h2.1v-12.6h7.1v35.1Z"/><path class="d" d="M406.2,214.8v7.8c.8,0,1.4-.1,1.7-.4.3-.3.5-1.2.5-2.7v-1.9c0-1.1-.2-1.8-.5-2.2s-.9-.5-1.7-.5h0Z"/><path class="d" d="M194.8,163.4c.5,0,.8-.3,1-.8s.2-1.9.2-3.9v-16.1c0-1.6,0-2.7-.2-3.1-.1-.5-.4-.7-.9-.7s-.7.2-.9.6-.3,1.5-.3,3.3v16.4c0,2,0,3.3.2,3.8.1.5.4.7.9.7Z"/><path class="d" d="M387.6,231.3h2.5c-.4-4-.7-8.9-1.1-14.8-.7,6.7-1.2,11.6-1.4,14.8h0Z"/></g><g id="c"><path class="e" d="M251.6,139.7c-.7,6.7-1.2,11.6-1.4,14.8h2.5c-.4-4-.7-8.9-1.1-14.8h0Z"/><path class="e" d="M86.3,161.8c.5,0,.8-.3,1-.8s.2-1.9.2-3.9v-16.1c0-1.6,0-2.7-.2-3.1-.1-.5-.4-.7-.9-.7s-.7.2-.9.6-.3,1.5-.3,3.3v16.4c0,2,0,3.3.2,3.8.1.5.4.7.9.7Z"/><path class="e" d="M120,213.5c-.3-.2-.8-.3-1.6-.3v23.1c1,0,1.7-.3,1.9-.8s.4-2,.4-4.3v-13.6c0-1.6,0-2.6-.1-3.1s-.3-.8-.5-1h0Z"/><path class="e" d="M81.1,229.7h2.4c-.4-4-.7-8.9-1.1-14.8-.7,6.7-1.2,11.6-1.4,14.8Z"/><path class="e" d="M282.8,139.7c-.7,6.7-1.2,11.6-1.4,14.8h2.5c-.4-4-.7-8.9-1.1-14.8h0Z"/><path class="e" d="M68.3,142.5v-1.9c0-1.1-.2-1.8-.5-2.2s-.9-.5-1.8-.5v7.8c.8,0,1.4-.1,1.7-.4s.5-1.2.5-2.7h0Z"/><path class="e" d="M320.8,213.2v7.8c.8,0,1.4-.1,1.7-.4.3-.3.5-1.2.5-2.7v-1.9c0-1.1-.2-1.8-.5-2.2s-.9-.5-1.7-.5h0Z"/><path class="e" d="M168.1,142.5v-1.9c0-1.1-.2-1.8-.5-2.2s-.9-.5-1.8-.5v7.8c.8,0,1.4-.1,1.7-.4s.5-1.2.5-2.7h0Z"/><path class="e" d="M233.8,155.9v-13.6c0-1.6,0-2.6-.1-3.1s-.3-.8-.6-1c-.3-.2-.8-.3-1.6-.3v23.1c1.1,0,1.7-.3,2-.8s.4-2,.4-4.3h0Z"/><path class="e" d="M493.2,235.6c-24.2-34.5-42-79-66.1-112.7-5.5-7.6-6.2-8.1-15.5-8.9l-367.5.2,46.5-81.2,112.2-.4,2.8,2.1,27.7,47.8c11.4.4,22.9,0,34.3.3,1.4,0,3.8.7,2.9-.8-10-16.9-43.9-75.5-43.9-75.5C222.6.1,217.2.1,210.7,0c-37.9,0-89,0-130.7,0-3.3,0-6.1,1.7-8.6,3.6L1.4,124.5c-3.1,4.7-.4,10.2,1.2,14.9l66.1,112.8c3.9,4.7,8.6,7.4,14.6,8.4l367.5-.2-46.5,81.2-112.2.5-1.9-1.5-27.8-47.8c-1.3-1.1-29.7-1.1-33.6-.8-1.3,0-3.2-.4-3.6,1.3l43.9,74.7c3.5,3.6,6.8,5.4,11.7,6.4,42.1-.9,85.3.6,127.6.4,9.1,0,13.6.3,19.4-8.1,21.7-37.7,49.9-85.7,65.3-114,2.7-4.9,2.7-10.7,0-16.8h0ZM402.1,131.8h12.3v7h-4.9v6.7h4.6v6.7h-4.6v7.7h5.4v7h-12.7v-35.1h0ZM382.1,144.2c0-2.5,0-4.4.2-5.7.1-1.3.6-2.5,1.2-3.7s1.7-2.1,2.9-2.8,2.6-1,4.2-1,3.9.5,5.4,1.6c1.4,1,2.3,2.3,2.8,3.9.4,1.5.7,4,.7,7.3v3.3h-7.4v-6.1c0-1.8,0-2.9-.2-3.3-.2-.4-.5-.7-1-.7s-1,.3-1.2.8-.2,1.7-.2,3.5v16.3c0,1.7,0,2.8.2,3.3.2.5.5.8,1.1.8s.9-.3,1.1-.8c.2-.5.2-1.8.2-3.7v-4.4h7.4v1.4c0,3.6-.2,6.2-.6,7.7s-1.3,2.9-2.7,4c-1.4,1.1-3.2,1.7-5.2,1.7s-3.9-.5-5.3-1.5c-1.4-1-2.3-2.3-2.8-4s-.7-4.3-.7-7.7v-10.3h0ZM363,131.8h6.1l4.1,15.8v-15.8h6.1v35.1h-6.4l-3.8-16v16h-6.1v-35.1h0ZM348.1,131.8h12.3v7h-4.9v6.7h4.6v6.7h-4.6v7.7h5.4v7h-12.7v-35.1h0ZM337.8,131.8h7.4v35.1h-7.4v-35.1ZM317.8,144.2c0-2.5,0-4.4.2-5.7.1-1.3.6-2.5,1.2-3.7s1.7-2.1,2.9-2.8,2.6-1,4.2-1,3.9.5,5.4,1.6c1.4,1,2.3,2.3,2.8,3.9.4,1.5.7,4,.7,7.3v3.3h-7.4v-6.1c0-1.8,0-2.9-.2-3.3-.2-.4-.5-.7-1-.7s-1,.3-1.2.8-.2,1.7-.2,3.5v16.3c0,1.7,0,2.8.2,3.3s.5.8,1.1.8.9-.3,1.1-.8c.2-.5.2-1.8.2-3.7v-4.4h7.4v1.4c0,3.6-.2,6.2-.6,7.7s-1.3,2.9-2.7,4c-1.4,1.1-3.2,1.7-5.2,1.7s-3.9-.5-5.3-1.5c-1.4-1-2.3-2.3-2.8-4s-.7-4.3-.7-7.7v-10.3h0ZM299.8,135.1c.6-1.2,1.4-2.2,2.7-2.9s2.7-1.1,4.5-1.1,3.5.4,4.9,1.2c1.3.8,2.2,1.7,2.7,2.9s.7,3.1.7,5.9v1.4h-6.8v-2.6c0-1.2,0-2-.3-2.3s-.5-.5-.9-.5-.8.2-1,.7-.3,1.1-.3,2,.1,2.1.4,2.6c.2.6.9,1.3,2.1,2.1,3.3,2.4,5.3,4.4,6.2,5.9s1.3,4,1.3,7.5-.2,4.3-.7,5.5c-.5,1.2-1.4,2.2-2.7,3s-2.9,1.2-4.7,1.2-3.6-.5-5-1.4-2.3-2.1-2.7-3.5c-.4-1.4-.6-3.5-.6-6.1v-2.3h6.8v4.3c0,1.3.1,2.2.3,2.5.2.4.5.6,1,.6s.8-.2,1.1-.7.4-1.2.4-2.1c0-2.1-.2-3.4-.7-4.1-.5-.6-1.6-1.7-3.4-3.2-1.8-1.5-3-2.6-3.6-3.3s-1.1-1.6-1.5-2.8-.6-2.7-.6-4.6c0-2.7.3-4.7.8-5.9h0ZM287.8,131.8l4.2,35.1h-7.5l-.4-6.3h-2.6l-.4,6.3h-7.6l3.7-35.1h10.6ZM258.8,131.8h16.1v7h-4.4v28.1h-7.4v-28.1h-4.3v-7ZM245.9,131.8h10.6l4.2,35.1h-7.5l-.4-6.3h-2.6l-.4,6.3h-7.6l3.7-35.1h0ZM224.1,131.8h5.5c3.6,0,5.9.2,7.2.6s2.2,1.1,2.9,2c.7.9,1.1,2,1.2,3.1.2,1.1.2,3.4.2,6.7v12.3c0,3.2-.1,5.3-.4,6.3s-.7,1.9-1.2,2.5c-.6.6-1.3,1-2.2,1.3-.9.2-2.2.4-3.9.4h-9.3v-35.1h0ZM203.6,131.8h12.4v7h-5.1v6.7h4.5v6.7h-4.5v14.8h-7.4v-35.1h0ZM183.8,146.4c0-3.5,0-6,.2-7.5.1-1.5.6-2.8,1.3-4s1.7-2.1,2.9-2.8c1.2-.6,2.6-1,4.2-1s2.9.3,4.1.9c1.2.6,2.2,1.5,2.9,2.8s1.2,2.6,1.3,4c.1,1.4.2,4,.2,7.6v6c0,3.5,0,6-.2,7.5-.1,1.5-.6,2.8-1.3,4s-1.7,2.1-2.9,2.8c-1.2.7-2.6,1-4.2,1s-2.9-.3-4.1-.9c-1.2-.6-2.2-1.5-2.9-2.8s-1.2-2.6-1.3-4-.2-4-.2-7.6v-6h0ZM158.5,131.8h5.2c3.5,0,5.8.2,7,.5s2.2,1.2,3,2.5c.8,1.4,1.2,3.6,1.2,6.5s-.3,4.6-.8,5.5c-.6.9-1.6,1.5-3.2,1.7,1.4.5,2.4,1.1,2.9,1.8.5.7.8,1.4.9,2.1.1.6.2,2.4.2,5.2v9.3h-6.8v-11.7c0-1.9-.1-3-.4-3.5s-.9-.7-1.9-.7v15.8h-7.4v-35.1h0ZM143.6,131.8h12.3v7h-4.9v6.7h4.6v6.7h-4.6v7.7h5.4v7h-12.7s0-35.1,0-35.1ZM133.4,131.8h7.4v35.1h-7.4v-35.1ZM115.6,131.8h16.1v7h-4.4v28.1h-7.4v-28.1h-4.3v-7ZM97.5,131.8h6.1l4.1,15.8v-15.8h6.1v35.1h-6.4l-3.8-16v16h-6.1v-35.1ZM77.8,146.4c0-3.5,0-6,.2-7.5.1-1.5.6-2.8,1.3-4s1.7-2.1,2.9-2.8c1.2-.6,2.6-1,4.2-1s2.9.3,4.1.9c1.2.6,2.2,1.5,2.9,2.8s1.2,2.6,1.3,4,.2,4,.2,7.6v6c0,3.5,0,6-.2,7.5-.1,1.5-.6,2.8-1.3,4s-1.7,2.1-2.9,2.8-2.6,1-4.2,1-2.9-.3-4.1-.9c-1.2-.6-2.2-1.5-2.9-2.8s-1.2-2.6-1.3-4-.2-4-.2-7.6v-6h0ZM58.7,131.8h5.2c3.5,0,5.8.2,7,.5s2.2,1.2,3,2.5,1.2,3.6,1.2,6.5-.3,4.6-.8,5.5c-.6.9-1.6,1.5-3.2,1.7,1.4.5,2.4,1.1,2.9,1.8.5.7.8,1.4.9,2.1.1.6.2,2.4.2,5.2v9.3h-6.8v-11.7c0-1.9-.1-3-.4-3.5s-.9-.7-1.9-.7v15.8h-7.4v-35.1h0ZM51.9,167h-7.4v-35.1h12.4v7h-5.1v6.7h4.5v6.7h-4.5v14.8h0ZM59.6,190.5l-5.2-6.8h381.4l5.2,6.8H59.6ZM84.1,242.3l-.4-6.3h-2.5l-.4,6.3h-7.4l3.6-35.1h10.3l4.1,35.1s-7.3,0-7.3,0ZM108.4,242.3h-6.2l-3.7-16v16h-5.9v-35.1h5.9l4,15.8v-15.8h5.9v35.1h0ZM127.8,231.8c0,3.2-.1,5.3-.4,6.3-.2,1.1-.6,1.9-1.2,2.5-.6.6-1.3,1-2.1,1.3s-2.1.4-3.8.4h-9v-35.1h5.3c3.4,0,5.8.2,7,.6,1.2.4,2.1,1.1,2.8,2s1,2,1.2,3.1.2,3.4.2,6.7v12.3h0ZM148,242.3h-11.4v-35.1h7.1v28.1h4.3v7ZM156.8,242.3h-7.1v-35.1h7.1v35.1ZM171.7,214.2h-4.9v6.7h4.4v6.7h-4.4v14.8h-7.1v-35.1h12v7h0ZM185.8,242.3h-12.3v-35.1h11.9v7h-4.8v6.7h4.4v6.7h-4.4v7.7h5.2v7ZM208.9,238.8c-.5,1.2-1.3,2.2-2.6,3-1.3.8-2.8,1.2-4.6,1.2s-3.5-.5-4.9-1.4-2.2-2.1-2.6-3.5-.6-3.5-.6-6.1v-2.3h6.6v4.3c0,1.3,0,2.2.3,2.5.2.4.5.6,1,.6s.8-.2,1.1-.7.4-1.2.4-2.1c0-2.1-.2-3.4-.7-4.1-.5-.6-1.6-1.7-3.3-3.2-1.8-1.5-2.9-2.6-3.5-3.3s-1.1-1.6-1.4-2.8c-.4-1.2-.6-2.7-.6-4.6,0-2.7.3-4.7.8-5.9.5-1.2,1.4-2.2,2.6-2.9,1.2-.7,2.6-1.1,4.3-1.1s3.4.4,4.7,1.2c1.3.8,2.2,1.7,2.6,2.9.4,1.2.6,3.1.6,5.9v1.4h-6.6v-2.6c0-1.2,0-2-.2-2.3-.2-.3-.5-.5-.8-.5s-.7.2-1,.7c-.2.5-.3,1.1-.3,2s.1,2.1.4,2.6c.2.6.9,1.3,2,2.1,3.2,2.4,5.2,4.4,6,5.9.8,1.5,1.2,4,1.2,7.5s-.2,4.3-.7,5.5h0ZM228.4,222.4h-7.1v-6.1c0-1.8,0-2.9-.2-3.3-.1-.4-.5-.7-1-.7s-1,.3-1.1.8c-.2.5-.2,1.7-.2,3.5v16.3c0,1.7,0,2.8.2,3.3s.5.8,1.1.8.9-.3,1-.8.2-1.8.2-3.7v-4.4h7.1v1.4c0,3.6-.2,6.2-.6,7.7s-1.3,2.9-2.7,4-3.1,1.7-5.1,1.7-3.8-.5-5.2-1.5c-1.3-1-2.3-2.3-2.7-4s-.7-4.3-.7-7.7v-10.3c0-2.5,0-4.4.2-5.7s.5-2.5,1.2-3.7,1.6-2.1,2.8-2.8c1.2-.7,2.6-1,4.1-1s3.8.5,5.2,1.6c1.4,1,2.3,2.3,2.7,3.9.4,1.5.6,4,.6,7.3v3.3h0ZM238.1,242.3h-7.1v-35.1h7.1v35.1ZM253.3,242.3h-12.3v-35.1h11.9v7h-4.8v6.7h4.4v6.7h-4.4v7.7h5.2v7h0ZM271.2,242.3h-6.2l-3.7-16v16h-5.9v-35.1h5.9l4,15.8v-15.8h5.9v35.1h0ZM290.7,222.4h-7.1v-6.1c0-1.8,0-2.9-.2-3.3-.1-.4-.5-.7-1-.7s-1,.3-1.1.8c-.2.5-.2,1.7-.2,3.5v16.3c0,1.7,0,2.8.2,3.3s.5.8,1.1.8.9-.3,1-.8.2-1.8.2-3.7v-4.4h7.1v1.4c0,3.6-.2,6.2-.6,7.7s-1.3,2.9-2.6,4c-1.4,1.1-3.1,1.7-5.1,1.7s-3.8-.5-5.2-1.5c-1.3-1-2.3-2.3-2.7-4s-.7-4.3-.7-7.7v-10.3c0-2.5,0-4.4.2-5.7s.5-2.5,1.2-3.7,1.6-2.1,2.8-2.8c1.2-.7,2.6-1,4.1-1s3.8.5,5.2,1.6c1.4,1,2.3,2.3,2.7,3.9.4,1.5.6,4,.6,7.3v3.3h0ZM305.6,242.3h-12.3v-35.1h11.9v7h-4.8v6.7h4.4v6.7h-4.4v7.7h5.2v7ZM328.5,225.7c.5.7.8,1.4.9,2.1s.2,2.4.2,5.2v9.3h-6.6v-11.7c0-1.9-.1-3-.4-3.5s-.8-.7-1.8-.7v15.8h-7.1v-35.1h5c3.4,0,5.6.2,6.8.5s2.2,1.2,2.9,2.5c.7,1.4,1.1,3.6,1.1,6.5s-.3,4.6-.8,5.5-1.6,1.5-3.1,1.7c1.4.5,2.4,1.1,2.8,1.8h0ZM344.7,242.3h-12.3v-35.1h11.9v7h-4.8v6.7h4.4v6.7h-4.4v7.7h5.2v7ZM361.7,238.8c-.5,1.2-1.3,2.2-2.6,3-1.3.8-2.8,1.2-4.6,1.2s-3.5-.5-4.9-1.4-2.2-2.1-2.6-3.5-.6-3.5-.6-6.1v-2.3h6.6v4.3c0,1.3,0,2.2.3,2.5.2.4.5.6,1,.6s.8-.2,1.1-.7.4-1.2.4-2.1c0-2.1-.2-3.4-.7-4.1-.5-.6-1.6-1.7-3.3-3.2-1.8-1.5-2.9-2.6-3.5-3.3s-1.1-1.6-1.4-2.8c-.4-1.2-.6-2.7-.6-4.6,0-2.7.3-4.7.8-5.9.5-1.2,1.4-2.2,2.6-2.9,1.2-.7,2.6-1.1,4.3-1.1s3.4.4,4.7,1.2c1.3.8,2.2,1.7,2.6,2.9s.6,3.1.6,5.9v1.4h-6.6v-2.6c0-1.2,0-2-.2-2.3-.2-.3-.5-.5-.8-.5s-.7.2-1,.7c-.2.5-.3,1.1-.3,2s.1,2.1.4,2.6c.2.6.9,1.3,2,2.1,3.2,2.4,5.2,4.4,6,5.9s1.2,4,1.2,7.5-.2,4.3-.7,5.5h0ZM377,242.3h-12.3v-35.1h11.9v7h-4.8v6.7h4.4v6.7h-4.4v7.7h5.2v7ZM388.1,242.3l-.4-6.3h-2.5l-.4,6.3h-7.4l3.6-35.1h10.3l4.1,35.1h-7.3ZM411.4,225.7c.5.7.8,1.4.9,2.1s.2,2.4.2,5.2v9.3h-6.6v-11.7c0-1.9-.1-3-.4-3.5s-.8-.7-1.8-.7v15.8h-7.1v-35.1h5c3.4,0,5.6.2,6.8.5s2.2,1.2,2.9,2.5c.7,1.4,1.1,3.6,1.1,6.5s-.3,4.6-.8,5.5c-.5.9-1.6,1.5-3.1,1.7,1.4.5,2.4,1.1,2.8,1.8h0ZM431.8,222.4h-7.1v-6.1c0-1.8,0-2.9-.2-3.3-.1-.4-.5-.7-1-.7s-1,.3-1.1.8c-.2.5-.2,1.7-.2,3.5v16.3c0,1.7,0,2.8.2,3.3.2.5.5.8,1.1.8s.9-.3,1-.8.2-1.8.2-3.7v-4.4h7.1v1.4c0,3.6-.2,6.2-.6,7.7s-1.3,2.9-2.6,4c-1.4,1.1-3.1,1.7-5.1,1.7s-3.8-.5-5.2-1.5c-1.3-1-2.3-2.3-2.7-4s-.7-4.3-.7-7.7v-10.3c0-2.5,0-4.4.2-5.7.1-1.3.5-2.5,1.2-3.7s1.6-2.1,2.8-2.8c1.2-.7,2.6-1,4.1-1s3.8.5,5.2,1.6,2.3,2.3,2.7,3.9c.4,1.5.6,4,.6,7.3v3.3h0ZM450.8,242.3h-7.1v-14.8h-2.1v14.8h-7.1v-35.1h7.1v12.6h2.1v-12.6h7.1v35.1Z"/><path class="e" d="M403.7,213.2v7.8c.8,0,1.4-.1,1.7-.4.3-.3.5-1.2.5-2.7v-1.9c0-1.1-.2-1.8-.5-2.2s-.9-.5-1.7-.5h0Z"/><path class="e" d="M192.3,161.8c.5,0,.8-.3,1-.8s.2-1.9.2-3.9v-16.1c0-1.6,0-2.7-.2-3.1-.1-.5-.4-.7-.9-.7s-.7.2-.9.6-.3,1.5-.3,3.3v16.4c0,2,0,3.3.2,3.8.1.5.4.7.9.7Z"/><path class="e" d="M385.1,229.7h2.5c-.4-4-.7-8.9-1.1-14.8-.7,6.7-1.2,11.6-1.4,14.8h0Z"/></g></svg>